{"glyphs":{"0":{"ha":703,"x_min":0,"x_max":0,"o":"m 413 652 b 472 645 442 652 457 650 b 517 630 484 643 505 635 b 572 591 536 621 546 615 b 612 550 592 574 607 557 b 625 521 617 543 622 530 b 634 504 629 514 632 506 b 654 492 636 502 644 496 b 675 474 665 486 671 481 b 691 437 679 469 685 453 b 705 384 695 422 702 399 b 710 325 708 368 710 348 b 706 269 710 304 708 281 b 692 216 704 256 697 232 b 677 175 686 198 680 181 b 656 158 673 169 667 163 l 634 145 b 625 131 631 143 627 136 b 612 104 623 126 618 114 b 594 75 607 94 599 81 b 574 55 590 69 581 60 b 542 33 567 49 553 40 b 504 13 531 27 514 18 b 460 0 494 8 474 3 b 406 -5 445 -3 423 -5 b 352 0 390 -5 368 -3 b 309 11 338 3 319 8 b 271 31 300 15 283 24 b 230 63 260 38 241 52 b 197 102 213 78 206 87 l 181 133 b 161 154 178 144 173 147 b 138 169 153 158 143 165 b 121 206 134 173 127 190 b 106 253 116 222 108 244 b 100 313 104 263 101 286 b 104 379 99 346 100 361 b 118 433 106 392 113 417 b 134 474 124 451 131 469 b 157 493 138 481 145 487 b 179 510 169 499 176 504 l 195 543 b 229 585 206 562 212 569 b 270 618 241 595 259 610 b 313 638 281 624 300 633 b 356 650 325 643 344 648 b 413 652 369 652 388 653 m 403 635 b 345 630 377 635 361 633 b 310 619 334 627 318 622 b 281 604 302 615 289 608 b 247 578 274 599 259 587 b 219 547 236 568 223 554 b 203 515 214 541 206 526 b 199 481 196 497 195 494 b 200 450 200 471 201 458 b 194 413 200 443 197 426 b 187 356 192 400 189 375 b 187 292 185 336 185 312 b 194 236 189 274 192 249 b 200 198 197 223 200 206 b 199 169 201 191 200 177 b 200 141 196 157 196 152 b 215 108 203 133 209 119 b 244 74 221 98 232 84 b 282 45 253 65 270 52 b 319 27 294 38 310 30 b 356 17 328 23 344 19 b 405 13 367 15 388 13 b 457 18 424 13 443 15 b 494 28 469 19 486 25 b 529 45 502 31 518 39 b 561 69 539 53 554 62 b 583 91 569 74 579 84 b 601 123 588 97 596 111 b 611 153 606 135 611 148 b 610 180 612 156 611 169 b 612 220 608 194 609 206 b 620 266 615 231 619 252 b 623 324 621 280 623 306 b 619 389 623 344 621 372 l 611 438 b 611 477 608 452 608 460 b 609 511 613 494 613 499 b 598 538 607 519 602 531 b 561 577 594 545 580 560 b 508 614 537 599 528 606 b 462 630 496 619 475 627 b 403 635 444 634 431 635 "},"1":{"ha":431,"x_min":0,"x_max":0,"o":"m 291 650 b 302 647 292 650 297 649 b 313 637 307 645 311 642 b 309 599 315 631 318 622 b 299 347 299 570 298 565 l 300 124 l 294 110 b 284 85 292 103 285 92 b 284 68 282 78 282 71 b 291 57 285 64 288 59 b 315 45 294 56 304 50 b 346 35 326 40 340 35 b 365 34 353 33 361 33 b 378 49 369 35 373 41 b 391 65 382 56 388 63 b 402 67 393 66 398 67 b 417 59 406 67 412 64 b 427 43 421 55 426 47 b 427 22 428 38 428 28 b 419 3 426 14 423 8 b 398 -5 412 -4 408 -5 b 372 5 388 -5 383 -3 b 341 19 365 9 350 16 b 312 27 331 20 318 25 b 289 39 306 30 295 35 b 270 48 282 43 274 47 b 256 47 267 48 260 48 l 237 35 b 209 21 231 31 218 24 b 174 13 201 18 185 15 b 137 4 159 12 148 8 b 111 -5 127 -2 117 -5 b 94 -1 106 -5 97 -3 b 84 12 91 2 86 7 b 81 31 82 17 81 25 b 85 49 81 36 82 44 b 99 62 88 54 94 60 b 115 67 105 65 111 67 b 127 64 118 67 123 66 b 141 48 131 63 137 56 b 156 31 145 41 152 33 b 180 31 162 29 168 29 b 211 41 189 32 203 36 b 236 56 220 44 231 52 b 243 76 243 64 244 67 b 234 103 242 81 238 94 l 228 119 l 228 305 l 229 490 l 234 512 b 240 548 237 524 239 541 b 238 572 241 556 240 567 b 227 590 236 579 232 586 b 213 596 222 594 217 596 b 179 588 210 596 194 593 b 147 577 164 584 149 579 b 139 557 144 574 141 566 b 131 536 137 549 133 540 b 119 529 129 533 123 530 b 103 531 115 529 107 529 b 89 541 97 531 92 536 b 83 565 85 546 83 554 b 87 589 83 575 85 584 b 98 598 90 593 94 597 b 124 597 102 598 113 598 b 169 603 141 596 147 597 b 201 613 182 606 197 611 b 215 625 205 615 211 620 b 230 639 219 631 226 636 b 262 646 234 641 248 644 b 291 650 276 648 289 649 "},"2":{"ha":668,"x_min":0,"x_max":0,"o":"m 375 653 b 397 645 379 653 389 649 b 442 635 410 639 419 637 b 494 626 457 633 481 630 b 533 611 506 622 525 616 b 562 594 543 607 556 599 b 583 564 569 587 578 575 b 597 543 589 553 595 544 b 617 534 599 542 607 537 b 640 519 629 530 635 525 b 645 488 646 511 646 507 b 637 457 645 469 644 466 b 611 442 632 452 624 446 l 593 434 l 582 413 b 564 382 576 401 568 387 b 534 359 560 378 547 368 b 481 331 522 351 498 338 b 404 297 465 323 430 307 b 324 260 378 285 342 269 b 267 229 306 252 281 237 b 210 183 254 220 228 199 b 169 133 184 158 177 150 b 156 103 162 122 156 108 b 158 84 156 96 156 88 b 169 71 160 80 165 74 b 183 66 172 69 180 66 b 200 70 189 66 195 69 b 224 94 205 73 216 83 b 250 119 232 104 244 115 b 287 126 261 125 264 126 b 331 118 309 126 314 125 b 378 92 340 114 361 102 b 446 48 394 81 425 61 b 498 18 469 34 492 20 b 527 12 506 15 518 13 b 551 17 536 12 546 14 b 567 29 556 19 563 24 b 579 44 571 32 577 40 b 581 65 582 50 582 56 b 571 97 581 72 577 86 b 552 131 567 107 558 122 b 539 151 546 139 540 148 b 541 162 539 155 539 159 b 552 169 543 165 547 168 b 584 161 557 169 567 168 l 634 145 b 665 130 655 139 659 137 b 671 106 670 123 671 118 b 668 81 671 97 670 86 b 656 62 666 75 661 67 b 626 50 649 56 644 54 b 599 39 609 46 604 44 b 583 20 595 35 588 27 b 560 2 578 13 570 6 b 530 -5 549 -3 542 -5 b 497 0 520 -5 506 -3 b 462 18 490 3 473 11 l 394 60 b 334 97 369 77 342 94 b 306 108 328 101 315 106 b 275 109 291 111 285 112 b 256 102 269 107 259 104 b 236 81 252 99 244 90 b 209 56 229 71 217 60 b 190 41 202 51 194 44 b 177 31 187 38 181 33 b 140 20 172 30 156 24 b 99 13 124 17 106 13 b 82 18 93 13 86 15 b 78 29 80 19 78 25 b 81 42 78 32 79 39 b 100 66 82 44 91 56 b 125 95 108 77 119 90 b 142 119 131 101 138 112 b 157 151 144 127 152 142 b 201 199 166 164 176 176 b 259 245 221 217 244 236 b 323 280 273 254 302 269 l 421 323 b 494 356 454 336 487 351 b 519 369 503 359 514 366 b 541 386 524 373 534 381 b 560 410 547 392 556 403 b 571 433 565 418 569 429 b 567 466 573 442 572 446 l 559 488 l 566 504 b 573 531 569 513 573 525 b 568 555 574 539 573 544 b 551 579 564 563 556 573 b 525 596 545 584 533 593 b 491 609 517 601 501 606 b 444 618 481 612 459 616 b 400 615 417 620 416 620 b 374 608 392 611 380 608 b 350 615 369 608 358 611 l 335 620 l 299 616 b 249 608 280 614 256 610 b 221 598 241 606 229 602 b 200 583 215 595 205 589 b 181 558 196 579 187 568 b 171 529 172 545 171 541 b 178 503 171 520 174 510 b 203 473 181 494 190 484 b 222 450 217 461 222 455 b 218 438 222 447 220 442 b 201 432 214 434 210 432 b 169 443 192 432 183 435 b 131 456 157 448 140 455 b 103 466 120 459 107 463 b 92 477 98 469 93 474 b 89 492 90 481 89 487 b 92 510 89 496 90 505 b 106 529 94 516 99 524 b 132 543 112 535 121 540 b 155 553 142 544 152 549 b 170 574 157 556 165 566 b 191 599 177 582 186 594 b 218 615 196 604 208 611 b 251 626 227 619 242 624 b 302 633 260 629 283 631 b 351 645 329 637 338 639 b 375 653 360 649 370 653 "},"3":{"ha":685,"x_min":0,"x_max":0,"o":"m 387 653 b 407 646 391 653 400 650 b 454 636 418 642 431 639 b 506 628 470 634 494 631 b 544 615 519 625 535 619 b 572 595 554 610 566 602 b 595 563 578 589 589 574 l 607 542 l 628 533 b 654 517 643 527 650 522 b 660 488 658 510 660 504 b 656 462 660 474 658 466 b 633 449 654 459 644 454 b 612 431 617 443 615 441 b 607 414 610 427 608 419 b 601 398 606 408 604 402 b 589 385 599 394 594 389 b 569 376 584 381 575 377 b 543 370 564 374 552 372 b 517 359 530 369 524 366 b 506 344 510 354 506 348 b 512 333 506 341 509 336 b 525 325 516 330 521 327 b 557 321 530 324 544 322 b 594 317 572 320 588 319 b 617 301 601 314 611 307 b 637 270 623 294 632 281 b 651 246 642 259 648 248 b 672 239 654 244 663 241 b 696 229 681 236 692 231 b 705 200 704 223 704 221 b 700 166 706 181 705 175 b 673 145 694 156 693 154 b 647 125 653 137 652 136 b 636 102 644 119 640 107 b 621 80 633 95 627 85 b 594 57 616 73 604 63 b 553 36 584 51 566 42 b 509 21 541 31 520 23 b 456 12 497 19 474 14 b 411 2 434 9 420 6 b 392 -5 404 -2 394 -5 b 371 2 388 -5 379 -2 b 327 12 361 6 349 9 b 279 19 311 14 289 17 b 235 35 269 21 249 29 b 194 59 221 42 204 53 b 168 92 185 68 175 80 b 136 119 156 112 156 112 b 111 131 125 123 114 128 b 100 145 107 133 103 140 b 94 176 96 153 94 161 b 103 205 94 196 95 197 b 126 216 106 208 118 213 b 149 225 134 219 144 222 b 161 239 153 228 158 234 b 167 261 163 244 166 254 b 177 281 169 269 171 276 b 194 288 182 285 188 288 b 217 282 200 288 210 285 b 236 268 224 279 232 272 b 244 251 239 263 243 256 b 241 236 245 245 244 240 b 221 226 238 232 231 229 b 198 214 212 223 202 218 b 188 198 194 210 190 203 b 185 169 187 193 185 180 b 181 134 185 159 183 143 b 181 106 178 119 178 117 b 194 84 184 100 190 90 b 216 65 199 79 208 70 b 250 47 223 60 239 53 b 288 34 261 43 278 37 b 337 30 300 31 317 30 b 382 31 355 30 375 31 b 414 30 393 33 402 32 b 455 29 427 27 434 26 b 501 36 469 30 489 33 b 544 51 512 39 532 45 b 583 71 557 56 575 66 b 608 92 593 78 604 87 b 623 116 613 97 619 108 b 630 143 627 124 630 136 b 624 172 630 150 628 163 l 619 189 l 625 212 l 632 234 l 625 254 b 608 283 620 264 613 277 b 591 299 604 290 596 297 b 552 306 585 302 571 304 b 515 310 535 306 519 308 l 497 322 b 462 332 486 331 485 331 b 425 331 449 333 432 332 b 397 319 417 331 408 327 b 368 306 384 309 379 306 b 348 307 360 306 351 306 b 338 318 344 309 340 314 b 333 331 335 321 333 328 b 332 349 332 336 332 344 b 342 366 333 356 335 360 b 362 373 348 371 352 373 b 394 361 372 373 378 371 l 414 349 l 481 349 l 497 365 b 522 383 506 374 518 382 b 547 389 527 385 538 387 b 572 394 556 390 568 393 b 584 406 577 397 582 402 b 591 431 587 410 590 421 b 585 460 593 445 592 449 b 576 481 581 468 577 477 b 581 506 575 488 576 495 b 586 531 583 515 586 526 b 577 558 586 536 582 548 b 556 586 571 568 561 581 b 531 602 550 591 539 598 b 496 612 523 605 508 610 b 451 619 486 615 465 619 b 406 618 428 622 423 622 l 387 612 l 368 618 b 321 620 349 622 345 623 b 276 612 306 619 286 615 b 245 601 266 609 252 604 b 219 583 238 598 227 590 b 199 556 213 577 204 565 b 194 526 191 541 191 539 b 203 506 195 519 200 509 b 222 489 206 501 215 494 b 241 476 231 484 239 479 b 245 461 243 473 245 466 b 239 448 245 454 244 451 b 225 444 235 445 229 444 b 196 454 220 444 207 448 b 151 469 185 459 165 466 b 120 482 136 474 124 479 b 112 500 117 486 113 494 b 114 519 111 506 112 515 b 124 534 116 525 120 531 b 154 546 128 538 141 544 l 175 554 l 186 571 b 210 599 193 581 204 594 b 236 616 217 605 229 612 b 275 629 244 619 262 625 b 327 637 289 632 312 636 b 367 646 344 639 356 642 b 387 653 374 650 383 653 "},"4":{"ha":653,"x_min":0,"x_max":0,"o":"m 280 648 b 325 639 287 647 307 644 b 356 627 344 634 353 629 b 367 616 359 625 364 620 b 369 554 370 609 370 599 l 369 499 l 355 458 b 340 412 345 431 345 417 b 316 399 336 408 326 403 l 299 393 l 281 358 b 251 315 268 333 260 322 b 219 295 245 309 231 301 b 189 277 208 290 194 282 b 180 264 183 272 180 267 b 183 254 180 261 181 256 b 203 245 186 250 193 247 b 242 242 210 244 229 242 l 267 242 l 281 244 l 295 244 l 344 244 l 412 245 b 446 250 423 245 438 250 b 469 256 456 250 462 252 b 483 270 474 259 481 266 b 488 294 487 276 489 283 b 481 326 488 305 486 315 b 474 350 478 335 474 345 b 477 361 474 354 475 358 b 493 373 478 364 485 369 b 511 391 501 379 507 385 b 517 430 514 398 516 408 b 524 465 518 456 519 460 b 547 470 530 469 533 470 b 572 467 557 470 568 469 b 585 452 578 464 582 458 b 588 434 588 445 589 438 b 580 421 587 430 583 424 l 563 411 b 548 398 557 407 551 402 b 544 363 544 392 543 388 b 540 321 544 343 543 331 b 535 292 537 313 535 300 b 540 268 534 281 536 274 b 555 254 544 263 550 256 b 579 247 561 249 568 247 b 607 256 593 247 596 249 l 630 269 b 645 271 636 272 641 273 b 658 260 649 270 656 266 b 665 239 663 255 665 248 b 659 218 665 231 663 223 b 646 207 656 213 651 208 b 632 206 643 206 636 206 b 614 216 629 206 620 211 b 592 228 607 221 597 226 b 569 229 585 230 575 230 b 548 219 561 228 555 224 b 536 200 543 214 538 206 b 534 178 534 194 533 184 b 542 153 535 171 539 160 b 546 132 544 144 546 135 b 539 111 546 130 544 119 b 530 85 534 102 530 91 b 531 68 528 80 529 72 b 547 54 531 64 538 58 b 580 41 555 50 569 44 b 606 38 595 36 599 35 b 622 53 610 40 618 46 b 636 65 626 58 633 64 b 650 62 641 66 645 65 b 661 50 654 60 658 55 b 664 26 664 44 665 38 b 655 3 663 11 662 9 b 635 -5 648 -3 644 -5 b 619 -2 629 -5 621 -4 b 603 9 615 0 608 5 b 573 25 597 15 585 20 b 536 40 562 28 545 35 b 514 48 527 44 517 48 b 491 38 510 48 500 44 b 449 21 481 33 462 25 b 410 5 435 17 419 9 b 384 -5 399 -3 394 -5 b 364 3 375 -5 370 -3 b 355 21 357 7 356 12 b 355 42 354 28 354 37 b 365 58 356 46 360 54 b 381 66 369 63 376 66 b 392 63 384 66 389 65 b 403 50 394 61 399 56 b 414 36 406 44 411 38 b 430 33 417 33 422 33 b 457 42 435 34 448 38 b 483 54 467 45 479 51 b 495 67 489 56 494 63 b 496 82 497 70 498 77 b 487 107 495 88 492 99 b 480 134 482 118 480 127 b 483 158 480 141 481 152 b 488 184 486 165 488 177 b 482 207 488 193 486 202 b 466 222 480 213 474 219 b 445 228 460 225 450 228 l 414 224 b 342 221 394 221 386 221 b 280 224 307 221 289 223 b 234 225 272 225 252 223 b 191 231 217 227 197 229 b 167 231 184 232 174 232 b 139 221 160 231 149 227 b 115 213 128 215 120 212 b 101 220 109 213 105 216 b 95 246 96 226 95 231 b 101 271 95 263 96 267 b 135 279 106 277 110 278 l 163 280 l 178 291 b 213 311 187 297 203 306 b 243 331 223 317 236 325 b 264 362 248 337 257 351 l 278 393 b 282 424 281 399 283 408 b 287 469 281 438 284 454 b 294 521 289 481 293 505 b 295 567 295 538 296 558 b 285 594 294 575 289 588 b 267 618 281 602 271 612 b 257 635 261 624 257 631 b 262 645 257 638 259 643 b 280 648 265 648 269 649 "},"5":{"ha":699,"x_min":0,"x_max":0,"o":"m 662 722 b 685 715 674 722 678 721 b 695 692 694 708 694 706 b 690 666 696 677 695 673 b 673 656 684 658 681 656 b 647 663 666 656 658 657 b 625 671 639 668 629 671 b 610 666 621 671 615 669 b 596 648 606 663 599 655 b 581 627 592 641 585 631 b 559 614 576 621 566 616 b 502 608 552 611 531 609 b 441 614 456 607 456 607 b 394 622 429 619 420 621 l 335 629 b 288 632 319 631 301 633 b 258 627 277 631 264 629 b 246 615 254 624 248 619 b 246 591 244 610 244 603 b 250 556 248 581 250 566 b 245 506 250 544 248 522 b 238 464 243 489 240 470 b 222 429 236 457 230 442 b 209 395 214 414 209 403 b 214 380 208 389 210 383 b 234 371 217 377 226 373 b 261 371 245 369 253 369 b 293 384 268 373 281 379 b 331 398 304 390 321 396 b 375 405 340 400 359 404 b 444 407 390 406 421 407 b 503 405 467 407 494 406 b 543 395 512 404 530 399 b 582 380 556 392 574 384 b 611 358 592 374 604 365 b 637 321 619 352 629 337 b 669 287 651 295 652 294 b 691 272 678 282 688 276 b 700 253 694 269 698 260 b 705 223 703 246 705 232 b 701 194 705 214 703 200 l 691 170 b 669 154 687 166 678 158 b 640 122 654 145 652 143 b 616 86 632 109 622 93 b 591 61 609 79 598 68 b 561 42 583 55 569 45 l 527 29 b 487 19 517 26 499 21 l 445 13 b 408 3 432 12 419 8 b 384 -4 396 -3 390 -5 b 365 5 380 -3 370 1 b 328 14 356 9 348 12 b 277 21 314 15 291 19 b 234 33 263 24 244 30 b 205 52 224 38 211 46 b 182 81 198 57 188 70 b 167 102 177 90 169 100 b 145 107 163 104 154 106 b 120 118 137 109 126 114 b 106 132 115 121 109 128 b 103 154 105 137 103 147 b 109 173 103 163 105 169 b 135 184 113 177 122 181 b 160 194 145 187 157 192 b 175 215 164 198 170 206 b 190 233 179 222 186 231 l 212 244 b 234 251 220 248 230 251 b 245 250 238 251 243 251 b 254 241 248 249 252 244 b 258 220 256 237 258 228 b 253 203 258 211 256 206 b 232 194 250 200 241 196 b 210 186 224 192 214 188 b 200 173 206 183 202 178 b 194 144 198 169 194 156 b 190 114 192 131 190 119 b 199 89 190 108 194 97 b 219 63 205 80 213 68 b 245 47 226 57 237 51 b 280 38 254 44 269 40 b 324 31 291 35 310 32 b 365 33 346 29 350 29 b 389 39 373 36 384 39 b 412 33 393 39 403 36 b 456 32 428 28 429 28 b 510 43 472 34 496 39 b 548 55 524 46 541 52 b 576 72 556 57 568 66 b 605 101 584 80 597 93 b 623 128 612 110 620 122 b 629 150 626 134 629 144 b 623 174 629 156 626 167 b 617 216 619 184 617 194 b 624 266 617 239 619 248 l 632 287 l 626 302 b 610 331 623 310 616 324 b 588 356 605 340 594 350 b 559 371 581 360 569 368 b 518 384 549 376 531 381 b 441 390 498 389 484 390 b 358 386 407 390 376 388 b 298 368 335 382 325 380 b 250 354 271 356 262 354 b 219 357 242 354 228 356 b 195 359 207 360 200 360 b 173 341 192 357 181 350 b 149 321 165 331 154 323 b 129 318 144 319 134 318 b 112 324 121 318 116 319 b 105 336 108 327 105 332 b 106 351 103 341 104 347 b 126 367 107 356 115 361 b 149 384 137 372 145 379 b 156 442 154 392 155 400 b 162 507 158 469 160 498 b 166 577 165 518 166 543 b 170 635 165 627 166 631 b 187 641 174 639 181 641 b 215 638 193 641 205 639 b 250 642 231 635 233 635 b 285 650 260 645 276 649 b 337 646 296 651 314 649 b 399 639 356 643 384 640 b 444 645 424 637 425 638 b 470 653 454 649 466 653 b 492 642 477 653 482 650 b 516 628 499 634 508 630 b 539 626 522 626 532 626 b 559 633 545 627 555 631 b 577 653 565 636 572 644 b 598 677 582 662 592 672 b 619 694 605 681 614 690 l 639 714 b 662 722 646 721 649 722 "},"6":{"ha":677,"x_min":0,"x_max":0,"o":"m 510 651 b 554 643 525 649 544 645 b 592 618 566 638 576 631 b 632 595 613 599 615 598 b 656 591 643 594 654 592 b 667 581 660 589 665 585 b 671 561 669 578 671 570 b 666 539 671 552 669 544 b 637 522 662 532 655 529 b 595 496 618 515 610 510 b 565 481 579 481 577 481 b 544 488 555 481 550 481 b 535 503 538 493 535 498 b 540 517 535 507 537 513 b 560 530 542 519 552 526 b 581 543 569 534 579 540 b 591 556 584 544 588 552 b 594 576 593 562 594 570 b 589 594 594 581 592 590 b 569 614 585 600 577 608 b 540 628 561 619 548 626 b 486 635 531 631 507 633 b 417 635 456 637 438 637 b 369 628 400 633 380 631 b 326 611 360 626 341 618 b 280 585 311 604 290 592 b 242 549 267 576 255 564 b 214 507 232 536 219 518 b 199 474 208 498 202 482 b 198 447 196 463 196 456 b 201 425 199 442 201 431 b 194 399 201 418 198 407 b 182 372 190 392 185 380 b 179 346 181 365 179 353 b 185 326 179 336 180 331 b 207 321 193 320 194 319 b 231 328 215 322 226 325 b 256 355 239 331 245 338 b 283 383 267 371 273 378 b 338 403 290 388 315 396 b 407 418 363 410 391 416 b 462 418 429 420 442 420 b 511 409 477 417 499 412 b 556 394 524 406 544 399 b 593 371 567 388 583 378 b 619 347 602 365 614 354 b 636 317 623 342 631 328 b 655 293 643 303 647 296 l 675 280 b 691 264 681 276 688 269 b 700 239 694 258 698 247 b 702 204 702 231 703 217 b 694 169 701 192 697 177 b 683 149 691 160 686 152 b 661 136 681 147 670 141 b 639 115 646 129 644 126 b 624 83 636 107 630 94 b 603 54 619 73 609 59 b 563 28 596 47 579 36 b 518 6 547 19 527 10 b 478 -2 507 4 490 0 b 421 -5 466 -4 440 -5 b 358 -1 402 -5 374 -3 b 310 9 343 2 321 6 b 268 30 300 13 281 22 b 227 58 254 38 235 50 b 199 92 218 67 205 81 b 181 125 193 101 184 117 b 170 150 178 133 173 145 b 149 169 168 156 159 163 b 127 190 138 176 131 182 b 116 224 123 195 119 211 b 108 283 112 237 109 264 b 110 343 107 306 108 328 b 120 392 112 356 117 378 b 133 428 124 406 130 422 b 151 445 136 433 144 442 b 169 459 156 449 166 456 b 183 485 175 463 180 472 b 199 519 187 496 194 511 b 220 551 204 527 213 542 b 246 581 227 560 239 574 b 282 607 253 588 269 600 l 324 631 l 355 643 l 386 649 b 444 653 397 651 424 653 m 432 401 b 388 397 419 401 398 399 b 333 383 378 395 354 389 b 289 366 312 377 294 369 b 270 343 284 362 276 352 b 251 319 265 333 256 322 b 229 307 245 314 236 309 b 206 304 222 306 212 304 b 191 296 201 303 194 299 b 186 278 187 293 185 288 b 194 242 186 270 190 254 b 201 209 197 230 201 215 b 194 181 201 203 198 191 b 192 150 189 167 189 163 b 206 114 194 143 200 126 b 233 77 213 102 225 85 b 272 47 241 69 258 56 b 314 27 286 39 305 30 b 356 17 322 24 342 19 b 423 13 371 14 396 13 b 487 18 451 13 473 15 b 537 34 500 19 519 27 b 579 57 552 42 571 52 b 601 79 586 62 596 72 b 615 106 606 85 612 97 b 623 129 619 113 622 124 b 620 156 625 135 624 144 b 615 210 616 170 615 184 b 620 264 615 240 616 250 b 625 292 624 275 626 286 b 615 319 624 297 619 309 b 594 347 609 329 601 342 b 564 369 588 353 574 363 b 531 385 553 375 538 382 b 487 396 522 389 503 394 b 432 401 470 399 449 402 "},"7":{"ha":636,"x_min":0,"x_max":0,"o":"m 582 685 b 608 677 587 684 598 681 l 640 666 b 662 654 648 664 657 657 b 669 628 669 646 669 645 b 656 569 668 619 662 592 b 641 519 652 546 644 524 b 621 503 638 514 630 507 b 603 493 613 499 605 494 b 591 468 600 490 594 479 b 575 436 587 456 580 443 l 544 400 b 513 367 532 386 519 371 l 482 344 b 432 302 471 336 449 318 b 394 256 409 280 401 269 b 381 226 390 247 384 233 b 376 194 378 215 373 210 b 377 134 378 182 379 163 b 378 77 376 107 376 87 b 388 44 380 68 384 53 b 394 19 392 35 394 24 b 393 7 394 14 394 9 b 382 1 392 6 387 3 b 357 1 378 -1 369 -1 b 330 9 348 3 338 6 b 309 20 321 12 312 17 b 301 33 306 23 302 30 b 297 93 299 38 297 63 b 302 161 297 129 299 149 b 309 186 305 170 307 182 b 320 203 311 191 316 198 b 343 216 325 207 335 214 b 359 226 350 219 357 223 b 370 249 362 229 367 240 b 386 279 375 258 381 272 b 430 323 391 285 410 306 b 486 369 450 341 475 362 b 526 406 499 378 512 389 l 556 443 b 573 473 562 450 569 463 b 580 522 578 485 580 499 l 581 566 b 576 582 582 574 581 578 b 549 589 571 588 567 589 l 509 592 b 469 599 499 592 481 595 b 398 619 456 603 424 611 b 332 637 372 627 343 635 b 284 641 322 639 301 641 b 242 637 269 641 249 639 b 216 628 234 635 222 631 b 194 614 209 625 200 619 b 173 589 189 609 180 598 b 160 567 168 581 161 570 b 161 549 159 563 159 555 b 175 522 163 543 169 531 b 185 495 182 510 185 503 b 178 479 185 486 183 482 b 137 473 171 473 167 473 b 92 476 119 473 98 475 b 74 487 84 479 78 482 b 71 506 69 494 69 495 b 83 531 73 513 79 524 b 100 550 88 536 95 545 b 125 566 105 555 116 562 b 154 593 141 573 144 576 b 178 623 160 603 171 617 b 206 643 184 629 197 638 b 242 656 216 648 231 654 b 282 659 252 657 270 659 b 328 656 295 659 316 657 b 402 636 341 654 374 644 l 478 615 b 534 606 494 611 514 608 b 572 611 563 606 567 606 b 580 630 578 615 580 619 b 572 655 580 639 577 646 b 565 672 568 662 565 669 b 569 682 565 675 567 680 b 582 685 572 685 576 686 "},"8":{"ha":656,"x_min":0,"x_max":0,"o":"m 405 652 b 423 644 409 651 418 647 b 468 633 431 640 443 637 b 525 621 486 631 512 625 b 559 607 537 617 553 611 b 579 594 566 605 574 598 b 593 575 583 591 589 581 b 606 536 596 568 602 550 b 610 490 609 517 611 505 b 604 450 609 479 606 460 b 594 420 601 439 597 426 b 581 406 592 416 585 409 b 558 393 577 402 567 395 b 533 377 551 389 539 381 b 517 356 528 372 520 363 b 512 337 512 348 511 342 b 522 326 513 333 518 329 b 549 319 527 323 539 320 b 577 315 559 319 571 317 b 602 298 581 313 593 306 l 637 270 b 666 236 651 258 657 251 b 676 195 675 219 676 215 b 670 165 676 180 675 172 b 652 148 667 158 661 153 b 631 136 644 144 634 139 b 622 120 628 133 623 126 l 613 94 b 592 66 608 83 603 76 b 548 39 581 56 568 47 b 504 22 533 31 513 24 b 464 16 494 20 477 17 b 423 4 446 13 436 10 b 397 -5 413 -1 402 -5 b 370 4 392 -5 381 -1 b 321 17 356 12 348 14 b 270 24 303 19 281 22 b 223 40 259 27 239 33 b 179 59 208 45 188 55 b 139 87 169 64 152 77 b 110 119 125 99 115 110 b 99 149 106 126 101 140 b 94 187 96 159 94 176 b 99 222 94 198 96 214 b 116 259 101 231 108 247 b 140 293 124 276 131 285 b 177 312 147 298 164 307 b 212 328 191 318 206 324 b 231 344 219 332 227 339 b 240 362 239 350 240 353 b 235 380 240 368 237 376 b 225 392 233 383 229 389 b 202 406 222 394 212 401 b 176 427 190 412 181 419 b 161 456 170 433 164 447 b 156 487 156 469 156 478 b 164 510 157 494 160 505 b 178 526 167 516 173 523 b 197 536 181 529 191 533 b 214 545 204 538 212 543 b 228 569 217 547 223 558 b 246 598 232 580 241 593 b 269 615 252 604 261 611 b 297 626 275 619 288 624 b 338 633 306 629 325 632 b 369 640 351 635 366 638 l 387 648 b 405 652 394 652 401 653 m 358 618 b 320 615 348 618 331 617 b 284 604 310 613 294 607 b 259 587 274 599 264 593 b 244 561 256 582 248 570 b 236 537 240 552 236 541 b 244 512 236 532 239 521 b 257 458 247 502 253 479 b 269 413 261 435 266 419 b 288 396 274 406 281 400 b 347 381 294 394 321 386 b 428 359 373 375 410 366 b 472 348 447 353 466 348 b 489 351 479 348 486 349 b 503 369 492 352 498 360 b 521 391 507 377 516 387 b 550 407 526 394 540 402 b 576 427 565 415 572 420 b 587 458 580 432 584 446 b 592 499 590 470 592 489 b 586 539 592 509 589 527 b 575 570 583 551 578 565 b 560 587 571 576 565 583 b 534 600 555 591 544 596 b 499 611 526 604 510 608 b 457 618 488 614 469 617 b 419 615 441 619 432 619 b 389 614 404 610 401 610 b 358 618 382 616 369 618 m 275 340 b 251 336 263 341 257 340 b 236 324 247 333 240 328 b 219 312 232 320 225 315 b 185 297 214 309 198 302 b 151 279 172 292 156 284 b 132 254 146 274 137 263 b 119 223 127 244 120 231 b 114 185 116 215 114 201 b 118 147 114 172 116 155 b 130 120 120 139 126 127 b 159 93 134 115 147 102 b 209 64 174 81 190 71 b 260 44 225 56 247 48 b 319 34 273 41 299 36 b 371 35 352 30 353 30 b 397 41 382 38 394 41 b 422 35 401 41 412 38 b 471 33 441 30 442 30 b 522 45 491 36 509 41 b 561 64 533 50 551 58 b 587 85 571 70 582 80 b 600 110 591 91 597 102 b 606 136 603 119 606 131 b 598 163 606 143 602 154 b 587 203 594 171 590 189 b 577 237 584 217 580 231 b 563 251 573 243 568 249 b 518 266 559 254 539 260 l 427 287 b 361 303 398 294 369 300 b 331 318 355 306 341 312 l 303 333 b 275 340 296 336 283 339 "},"9":{"ha":678,"x_min":0,"x_max":0,"o":"m 389 652 b 455 644 417 652 433 649 b 509 626 470 641 494 632 b 564 589 532 616 541 610 b 600 551 580 575 595 558 b 617 515 604 544 612 528 b 635 486 624 494 627 490 b 656 470 641 482 650 476 b 673 445 666 463 670 456 b 682 409 676 438 680 421 b 686 349 685 395 686 373 b 682 288 686 327 685 301 l 672 246 b 660 219 669 236 664 224 b 644 203 657 214 650 206 b 624 191 637 200 629 194 b 609 163 619 187 615 181 b 594 123 606 151 599 132 b 545 70 586 109 576 98 b 479 23 509 38 504 34 b 439 8 464 17 446 10 b 390 0 432 6 410 3 b 307 -2 356 -5 347 -5 b 249 5 283 0 257 3 b 222 16 242 6 229 11 b 199 35 215 19 205 29 b 184 50 194 43 187 49 b 157 55 181 52 169 54 b 128 65 138 56 134 58 b 119 86 121 71 119 76 b 126 107 119 94 121 101 b 156 127 131 113 140 119 b 193 150 169 133 183 142 b 213 167 200 157 209 165 b 230 169 217 169 224 169 b 246 163 236 169 242 168 b 254 149 251 159 254 154 b 251 136 254 144 252 138 b 235 124 249 132 243 128 b 214 108 228 120 219 113 b 202 85 209 103 205 94 b 203 61 199 72 199 69 b 219 41 206 56 213 47 b 245 24 226 34 237 27 b 307 16 257 19 269 18 b 377 16 342 14 360 14 b 421 23 390 18 410 20 b 469 38 433 25 455 31 b 528 78 492 48 501 54 b 569 118 544 93 563 111 b 588 155 575 125 582 141 b 595 197 594 174 596 182 l 594 227 b 602 256 594 235 596 244 b 614 285 606 265 612 279 b 617 306 616 293 617 302 b 608 320 616 311 612 318 b 586 325 602 326 599 326 b 561 317 577 323 566 320 b 537 292 556 314 544 303 b 509 265 528 280 518 269 b 466 249 503 261 483 254 b 415 235 449 244 426 238 b 356 231 401 232 383 231 b 290 238 324 231 313 232 b 235 256 274 242 250 250 b 201 275 221 263 206 271 b 181 294 196 280 187 288 b 159 330 176 301 166 317 b 130 362 147 352 146 354 b 106 377 120 367 109 373 b 95 396 103 380 98 389 b 92 433 93 405 92 419 b 95 471 92 446 94 463 b 105 493 97 478 102 488 b 128 510 107 497 118 505 b 156 541 146 519 146 519 b 175 575 160 553 169 569 b 208 606 181 582 196 596 b 249 630 221 614 240 625 b 290 644 259 634 278 641 b 331 651 302 646 321 649 b 389 652 343 652 369 653 m 386 634 b 321 631 358 635 335 633 b 280 622 309 630 291 626 b 244 607 269 619 253 613 b 207 581 234 602 218 590 b 180 548 194 569 185 559 b 169 519 174 539 169 526 b 172 492 169 511 169 500 b 177 437 176 481 177 466 b 172 384 177 408 175 394 b 168 362 169 377 168 367 b 180 331 168 356 172 344 b 206 295 187 317 197 304 b 245 271 217 286 230 278 b 292 256 258 265 280 258 b 344 248 305 252 328 249 b 395 250 362 247 381 248 b 450 262 407 252 432 257 l 492 275 b 506 285 496 278 503 281 b 526 308 510 288 519 298 b 547 331 532 318 543 328 b 567 338 553 333 561 337 b 588 343 572 340 581 342 b 605 349 594 344 601 346 b 609 367 608 353 609 358 b 603 401 609 374 606 389 b 595 437 598 413 595 430 b 600 469 595 445 597 459 b 602 501 605 483 605 489 b 590 531 600 508 594 521 b 565 564 586 539 574 554 b 528 596 555 575 538 589 b 486 617 517 604 499 612 b 446 629 473 621 456 627 b 386 634 435 632 414 633 "}," ":{"ha":296,"x_min":0,"x_max":0,"o":""},"A":{"ha":1003,"x_min":0,"x_max":0,"o":"m 532 749 b 589 738 563 748 569 747 b 653 687 608 729 619 721 b 707 643 686 654 697 645 b 730 642 716 641 725 640 b 744 649 733 643 740 646 b 759 673 747 653 754 664 b 781 699 765 683 774 694 b 812 705 791 705 795 706 b 844 694 829 704 834 702 b 866 680 851 689 861 682 b 887 679 875 674 876 674 b 911 703 894 682 904 692 b 934 728 919 713 929 724 b 953 738 939 731 947 736 b 990 745 958 740 975 743 b 1039 750 1006 748 1027 750 b 1069 745 1050 750 1064 748 b 1089 732 1075 744 1084 737 b 1101 714 1094 727 1099 719 b 1105 688 1103 709 1105 697 b 1099 659 1105 679 1102 666 b 1085 638 1096 653 1091 644 b 1055 617 1081 633 1067 623 b 1023 594 1043 609 1029 599 b 998 556 1019 588 1007 570 b 958 493 990 540 971 512 b 923 437 944 473 929 448 b 899 406 917 425 906 411 b 873 387 893 399 881 391 b 855 370 866 382 857 375 b 848 347 852 366 849 356 b 852 330 848 339 850 331 b 874 321 854 328 864 324 b 908 317 885 319 900 317 b 942 330 921 317 927 319 b 968 343 952 337 962 343 b 982 334 974 343 979 340 b 987 307 986 329 988 320 b 982 278 987 297 985 284 b 968 262 980 271 973 265 b 949 256 962 259 954 256 b 931 268 944 256 937 260 b 913 286 924 273 917 281 b 887 298 908 292 900 295 l 855 303 b 836 295 845 303 841 301 b 829 273 833 292 830 281 b 821 245 828 264 824 252 b 804 226 819 240 810 231 b 781 206 797 221 787 212 b 763 171 770 197 768 191 b 751 136 759 158 754 143 b 730 107 747 131 738 117 b 708 76 721 97 712 83 b 702 51 705 69 702 57 b 706 36 702 45 704 38 b 738 32 708 34 720 32 b 778 36 754 32 771 34 b 802 56 788 38 793 43 b 823 77 808 65 818 75 b 844 77 831 80 835 80 b 861 67 850 75 857 70 b 869 39 866 62 868 55 b 864 7 869 23 869 15 b 853 -6 861 3 856 -4 b 834 -8 849 -7 841 -8 b 805 2 825 -8 816 -6 l 789 12 l 748 11 b 699 6 719 10 705 8 b 687 -10 695 3 690 -5 b 682 -29 684 -17 682 -24 b 677 -43 682 -32 680 -39 b 656 -50 673 -48 669 -50 b 630 -43 645 -50 637 -47 b 612 -27 624 -39 616 -31 b 605 2 607 -21 606 -12 b 611 29 603 20 604 22 b 640 37 617 32 628 35 b 668 44 652 38 664 41 b 681 65 672 46 678 56 b 693 93 684 74 689 86 b 712 119 695 98 705 110 b 731 146 719 128 728 140 b 740 170 734 153 739 163 l 746 195 b 778 232 750 204 759 215 l 805 256 l 805 277 b 794 302 805 296 805 296 b 741 310 786 306 767 308 b 683 319 718 312 692 316 b 659 323 675 321 664 323 b 645 318 655 323 648 320 b 634 295 643 315 637 305 b 622 271 630 286 625 275 b 599 253 619 268 609 259 b 573 231 590 246 578 237 b 558 203 569 227 562 213 b 533 160 554 190 544 174 b 499 110 523 148 508 126 b 468 66 490 95 475 75 l 432 19 b 374 -40 416 -6 406 -16 b 314 -80 354 -56 327 -74 b 263 -96 302 -85 279 -93 b 193 -102 246 -99 219 -102 b 134 -97 166 -102 144 -100 b 103 -80 125 -95 113 -88 b 78 -47 94 -72 83 -57 b 61 -12 72 -37 64 -21 b 46 37 57 -3 50 19 b 21 83 38 68 37 69 b 2 105 13 91 4 100 b -2 125 0 108 -2 118 b 4 156 -2 132 0 146 b 15 184 6 166 11 178 b 41 206 19 191 30 200 b 67 236 57 217 61 220 b 81 269 70 245 77 261 b 103 296 86 278 95 290 b 144 325 110 303 129 316 b 195 354 159 335 182 347 b 256 373 208 359 235 369 b 316 387 275 379 302 385 b 393 389 331 389 359 390 b 509 379 421 388 474 383 b 594 364 545 374 583 368 b 624 358 606 361 619 358 b 636 362 629 358 634 360 b 646 384 638 365 643 375 b 658 410 650 394 656 406 b 682 431 662 414 673 424 b 705 449 693 439 702 447 l 720 475 l 744 511 b 764 546 750 520 759 536 b 782 573 769 556 777 569 b 813 595 788 579 802 589 b 842 622 828 605 837 614 b 851 646 845 629 850 640 b 840 671 853 657 852 659 b 815 685 831 678 822 684 b 795 683 808 686 801 686 b 774 656 790 681 781 670 b 752 628 767 643 758 632 b 722 620 744 622 735 620 b 694 625 713 620 700 622 b 639 670 686 628 663 647 b 581 719 615 694 589 715 b 522 726 568 726 562 726 b 459 719 484 726 475 725 b 425 702 448 715 433 707 b 399 678 417 696 406 685 l 389 664 l 389 616 b 396 554 389 574 391 567 b 412 533 400 545 407 536 b 437 528 418 530 427 528 b 464 534 446 528 456 530 b 496 558 471 538 485 549 b 524 588 507 567 519 581 b 544 611 529 595 537 606 b 565 620 551 617 558 620 b 581 618 570 620 578 619 b 604 594 584 616 594 606 b 620 565 617 580 620 574 b 615 547 620 558 618 550 b 598 542 611 544 605 542 b 562 549 592 542 576 544 b 531 556 548 554 535 556 b 503 536 526 555 513 545 b 469 513 492 527 477 517 b 437 506 461 509 447 506 b 409 511 428 506 416 508 b 389 527 404 513 394 520 b 375 550 382 532 377 544 l 367 580 b 343 607 361 597 360 598 b 321 622 331 613 322 619 b 319 640 320 625 319 632 b 327 660 319 649 321 655 b 352 672 331 664 343 669 b 389 698 367 676 373 681 b 431 730 403 713 414 721 b 476 745 444 735 464 743 b 532 749 490 748 510 750 m 1047 729 b 1005 727 1040 730 1021 729 b 963 719 989 724 969 721 b 940 703 956 717 946 709 l 919 678 b 894 658 913 671 902 662 b 876 644 886 654 878 647 l 862 617 b 824 577 853 596 850 594 b 782 535 797 559 794 557 b 759 495 776 522 766 505 l 735 457 b 698 416 725 440 716 430 b 670 387 683 405 673 394 b 664 364 668 381 664 370 b 669 348 662 356 664 352 b 694 337 671 345 683 341 b 730 332 705 335 720 332 b 777 328 739 332 760 331 b 815 328 805 323 808 323 b 825 344 819 331 823 337 l 830 368 b 840 387 831 374 836 383 b 865 406 843 392 855 401 b 889 423 875 413 886 420 b 908 454 892 427 901 441 b 943 507 916 468 931 492 b 981 568 954 524 971 551 b 1011 611 991 585 1004 605 b 1047 637 1019 619 1034 630 b 1076 661 1061 645 1072 655 b 1082 688 1081 668 1082 677 b 1077 713 1082 699 1081 708 b 1067 724 1074 718 1069 722 b 1047 729 1063 726 1055 728 m 312 366 l 267 355 b 205 334 246 349 219 340 b 148 303 192 328 166 314 b 106 269 128 290 113 277 b 90 235 102 261 94 246 b 85 196 83 219 82 213 b 88 157 86 185 88 168 b 74 108 88 142 86 133 l 59 79 l 63 58 b 76 13 65 47 70 27 b 94 -31 81 -2 88 -21 b 116 -62 99 -42 108 -56 b 141 -78 122 -69 133 -75 b 190 -81 148 -80 170 -81 b 250 -77 209 -81 237 -79 b 294 -66 264 -74 283 -69 b 342 -38 305 -62 326 -49 b 385 -3 356 -27 377 -11 b 416 33 394 6 408 21 b 448 77 424 45 438 65 b 480 121 457 88 471 108 b 511 166 487 134 501 154 b 538 211 523 180 532 195 b 555 244 544 224 550 239 b 578 264 558 249 569 258 b 601 281 588 270 598 278 b 612 299 605 284 609 293 b 617 319 615 306 617 315 b 608 335 617 326 614 331 b 579 346 604 339 591 344 b 491 359 566 349 527 356 b 373 368 443 366 411 368 "},"a":{"ha":1003,"x_min":0,"x_max":0,"o":"m 532 749 b 476 745 510 750 490 748 b 431 730 464 743 444 735 b 389 698 414 721 403 713 b 352 672 373 681 367 676 b 327 660 343 669 331 664 b 319 640 321 655 319 649 b 321 622 319 632 320 625 b 343 607 322 619 331 613 b 367 580 360 598 361 597 l 375 550 b 389 527 377 544 382 532 b 409 511 394 520 404 513 b 437 506 416 508 428 506 b 469 513 447 506 461 509 b 503 536 477 517 492 527 b 531 556 513 545 526 555 b 562 549 535 556 548 554 b 598 542 576 544 592 542 b 615 547 605 542 611 544 b 620 565 618 550 620 558 b 604 594 620 574 617 580 b 581 618 594 606 584 616 b 565 620 578 619 570 620 b 544 611 558 620 551 617 b 524 588 537 606 529 595 b 496 558 519 581 507 567 b 464 534 485 549 471 538 b 437 528 456 530 446 528 b 412 533 427 528 418 530 b 396 554 407 536 400 545 b 389 616 391 567 389 574 l 389 664 l 399 678 b 425 702 406 685 417 696 b 459 719 433 707 448 715 b 522 726 475 725 484 726 b 581 719 562 726 568 726 b 639 670 589 715 615 694 b 694 625 663 647 686 628 b 722 620 700 622 713 620 b 752 628 735 620 744 622 b 774 656 758 632 767 643 b 795 683 781 670 790 681 b 815 685 801 686 808 686 b 840 671 822 684 831 678 b 851 646 852 659 853 657 b 842 622 850 640 845 629 b 813 595 837 614 828 605 b 782 573 802 589 788 579 b 764 546 777 569 769 556 b 744 511 759 536 750 520 l 720 475 l 705 449 b 682 431 702 447 693 439 b 658 410 673 424 662 414 b 646 384 656 406 650 394 b 636 362 643 375 638 365 b 624 358 634 360 629 358 b 594 364 619 358 606 361 b 509 379 583 368 545 374 b 393 389 474 383 421 388 b 316 387 359 390 331 389 b 256 373 302 385 275 379 b 195 354 235 369 208 359 b 144 325 182 347 159 335 b 103 296 129 316 110 303 b 81 269 95 290 86 278 b 67 236 77 261 70 245 b 41 206 61 220 57 217 b 15 184 30 200 19 191 b 4 156 11 178 6 166 b -2 125 0 146 -2 132 b 2 105 -2 118 0 108 b 21 83 4 100 13 91 b 46 37 37 69 38 68 b 61 -12 50 19 57 -3 b 78 -47 64 -21 72 -37 b 103 -80 83 -57 94 -72 b 134 -97 113 -88 125 -95 b 193 -102 144 -100 166 -102 b 263 -96 219 -102 246 -99 b 314 -80 279 -93 302 -85 b 374 -40 327 -74 354 -56 b 432 19 406 -16 416 -6 l 468 66 b 499 110 475 75 490 95 b 533 160 508 126 523 148 b 558 203 544 174 554 190 b 573 231 562 213 569 227 b 599 253 578 237 590 246 b 622 271 609 259 619 268 b 634 295 625 275 630 286 b 645 318 637 305 643 315 b 659 323 648 320 655 323 b 683 319 664 323 675 321 b 741 310 692 316 718 312 b 794 302 767 308 786 306 b 805 277 805 296 805 296 l 805 256 l 778 232 b 746 195 759 215 750 204 l 740 170 b 731 146 739 163 734 153 b 712 119 728 140 719 128 b 693 93 705 110 695 98 b 681 65 689 86 684 74 b 668 44 678 56 672 46 b 640 37 664 41 652 38 b 611 29 628 35 617 32 b 605 2 604 22 603 20 b 612 -27 606 -12 607 -21 b 630 -43 616 -31 624 -39 b 656 -50 637 -47 645 -50 b 677 -43 669 -50 673 -48 b 682 -29 680 -39 682 -32 b 687 -10 682 -24 684 -17 b 699 6 690 -5 695 3 b 748 11 705 8 719 10 l 789 12 l 805 2 b 834 -8 816 -6 825 -8 b 853 -6 841 -8 849 -7 b 864 7 856 -4 861 3 b 869 39 869 15 869 23 b 861 67 868 55 866 62 b 844 77 857 70 850 75 b 823 77 835 80 831 80 b 802 56 818 75 808 65 b 778 36 793 43 788 38 b 738 32 771 34 754 32 b 706 36 720 32 708 34 b 702 51 704 38 702 45 b 708 76 702 57 705 69 b 730 107 712 83 721 97 b 751 136 738 117 747 131 b 763 171 754 143 759 158 b 781 206 768 191 770 197 b 804 226 787 212 797 221 b 821 245 810 231 819 240 b 829 273 824 252 828 264 b 836 295 830 281 833 292 b 855 303 841 301 845 303 l 887 298 b 913 286 900 295 908 292 b 931 268 917 281 924 273 b 949 256 937 260 944 256 b 968 262 954 256 962 259 b 982 278 973 265 980 271 b 987 307 985 284 987 297 b 982 334 988 320 986 329 b 968 343 979 340 974 343 b 942 330 962 343 952 337 b 908 317 927 319 921 317 b 874 321 900 317 885 319 b 852 330 864 324 854 328 b 848 347 850 331 848 339 b 855 370 849 356 852 366 b 873 387 857 375 866 382 b 899 406 881 391 893 399 b 923 437 906 411 917 425 b 958 493 929 448 944 473 b 998 556 971 512 990 540 b 1023 594 1007 570 1019 588 b 1055 617 1029 599 1043 609 b 1085 638 1067 623 1081 633 b 1099 659 1091 644 1096 653 b 1105 688 1102 666 1105 679 b 1101 714 1105 697 1103 709 b 1089 732 1099 719 1094 727 b 1069 745 1084 737 1075 744 b 1039 750 1064 748 1050 750 b 990 745 1027 750 1006 748 b 953 738 975 743 958 740 b 934 728 947 736 939 731 b 911 703 929 724 919 713 b 887 679 904 692 894 682 b 866 680 876 674 875 674 b 844 694 861 682 851 689 b 812 705 834 702 829 704 b 781 699 795 706 791 705 b 759 673 774 694 765 683 b 744 649 754 664 747 653 b 730 642 740 646 733 643 b 707 643 725 640 716 641 b 653 687 697 645 686 654 b 589 738 619 721 608 729 b 532 749 569 747 563 748 m 1047 729 b 1067 724 1055 728 1063 726 b 1077 713 1069 722 1074 718 b 1082 688 1081 708 1082 699 b 1076 661 1082 677 1081 668 b 1047 637 1072 655 1061 645 b 1011 611 1034 630 1019 619 b 981 568 1004 605 991 585 b 943 507 971 551 954 524 b 908 454 931 492 916 468 b 889 423 901 441 892 427 b 865 406 886 420 875 413 b 840 387 855 401 843 392 b 830 368 836 383 831 374 l 825 344 b 815 328 823 337 819 331 b 777 328 808 323 805 323 b 730 332 760 331 739 332 b 694 337 720 332 705 335 b 669 348 683 341 671 345 b 664 364 664 352 662 356 b 670 387 664 370 668 381 b 698 416 673 394 683 405 b 735 457 716 430 725 440 l 759 495 b 782 535 766 505 776 522 b 824 577 794 557 797 559 b 862 617 850 594 853 596 l 876 644 b 894 658 878 647 886 654 b 919 678 902 662 913 671 l 940 703 b 963 719 946 709 956 717 b 1005 727 969 721 989 724 b 1047 729 1021 729 1040 730 m 373 368 b 491 359 411 368 443 366 b 579 346 527 356 566 349 b 608 335 591 344 604 339 b 617 319 614 331 617 326 b 612 299 617 315 615 306 b 601 281 609 293 605 284 b 578 264 598 278 588 270 b 555 244 569 258 558 249 b 538 211 550 239 544 224 b 511 166 532 195 523 180 b 480 121 501 154 487 134 b 448 77 471 108 457 88 b 416 33 438 65 424 45 b 385 -3 408 21 394 6 b 342 -38 377 -11 356 -27 b 294 -66 326 -49 305 -62 b 250 -77 283 -69 264 -74 b 190 -81 237 -79 209 -81 b 141 -78 170 -81 148 -80 b 116 -62 133 -75 122 -69 b 94 -31 108 -56 99 -42 b 76 13 88 -21 81 -2 b 63 58 70 27 65 47 l 59 79 l 74 108 b 88 157 86 133 88 142 b 85 196 88 168 86 185 b 90 235 82 213 83 219 b 106 269 94 246 102 261 b 148 303 113 277 128 290 b 205 334 166 314 192 328 b 267 355 219 340 246 349 l 312 366 "},"B":{"ha":979,"x_min":0,"x_max":0,"o":"m 745 750 b 770 744 751 750 762 747 b 817 733 778 741 799 736 l 872 723 b 921 708 885 720 907 714 b 963 689 935 703 954 694 b 990 663 971 683 983 672 b 1008 627 996 654 1005 638 l 1020 594 b 1045 571 1025 583 1029 580 b 1069 553 1056 566 1067 557 b 1074 534 1072 548 1074 540 b 1068 514 1074 529 1071 519 b 1040 495 1063 506 1055 501 b 1008 469 1021 487 1019 484 b 983 437 1003 458 991 444 b 946 414 976 430 959 419 b 905 399 934 407 915 401 l 869 393 b 849 379 856 390 854 388 b 846 358 846 372 845 364 b 856 340 847 353 852 344 l 880 301 b 900 267 888 285 897 269 b 919 255 903 263 911 258 b 938 240 926 251 934 244 b 944 218 941 234 944 225 b 936 190 944 209 940 198 b 907 166 930 179 924 174 b 874 133 888 156 885 153 b 848 96 867 122 856 105 b 816 67 841 87 826 74 b 762 40 805 60 781 47 b 702 17 744 31 717 21 b 644 4 686 12 660 6 b 544 -1 624 1 590 -1 b 457 5 486 -1 469 0 b 420 30 446 8 435 15 b 387 47 401 48 399 49 b 369 38 380 46 372 43 b 355 19 365 34 358 25 b 334 0 350 12 341 4 b 313 -8 328 -4 319 -6 b 278 -5 308 -9 293 -7 b 233 -2 261 -2 244 -1 l 193 -6 b 159 -6 181 -6 166 -6 b 136 6 153 -5 143 1 b 115 29 130 11 119 22 b 99 45 109 36 102 44 b 72 52 95 47 83 50 b 45 59 61 53 49 56 b 36 76 43 62 38 69 b 36 98 34 83 34 91 b 48 117 38 104 44 112 b 90 126 55 122 61 124 b 141 134 109 128 131 131 b 177 141 151 138 167 141 b 229 131 187 141 206 137 l 293 112 b 334 96 309 107 328 100 b 352 82 341 93 349 86 b 369 71 356 79 363 73 b 389 69 374 68 381 67 b 410 84 397 70 403 74 l 428 107 b 458 127 432 112 446 120 b 488 146 471 133 484 142 b 506 178 492 151 500 165 b 538 223 513 190 527 211 b 574 270 548 235 565 256 l 618 334 l 666 403 l 718 477 b 763 534 734 500 755 526 b 781 568 774 547 778 554 b 788 594 781 577 785 589 b 808 608 791 598 798 604 b 840 615 818 612 831 615 b 861 608 851 615 856 613 b 869 591 864 605 868 597 b 869 565 869 584 869 572 b 860 544 867 556 863 547 b 825 537 856 541 846 539 l 795 535 l 781 522 b 738 469 773 515 754 491 l 686 394 l 632 318 l 587 252 b 556 212 578 239 564 221 b 525 167 546 203 533 182 b 501 129 518 151 506 134 b 473 111 494 123 482 116 b 446 94 465 106 452 99 b 431 76 440 88 433 81 b 426 60 428 71 426 64 b 442 40 426 56 432 48 b 477 21 455 27 460 24 b 558 19 491 19 515 18 b 649 26 594 19 633 23 b 706 40 665 29 691 35 l 767 63 b 819 98 790 74 803 82 b 851 138 832 110 844 125 b 859 182 861 156 862 158 b 867 224 857 206 858 208 b 875 252 871 233 875 245 b 859 292 875 258 869 273 b 837 330 851 307 842 324 b 812 343 832 335 825 340 b 789 353 803 345 792 350 b 781 367 785 355 782 361 b 785 391 780 374 781 381 b 798 408 789 399 794 406 b 832 412 803 410 818 412 b 889 418 847 412 873 415 b 936 431 906 420 927 427 b 968 452 945 436 960 445 b 991 480 976 459 986 471 b 996 518 997 494 998 497 b 998 558 995 531 996 548 b 994 605 1002 575 1002 580 b 978 644 989 619 981 637 b 959 666 973 651 965 661 b 931 682 954 669 941 678 b 891 697 920 687 903 694 b 832 710 879 701 853 706 b 782 716 811 713 789 716 b 761 713 776 716 766 715 b 697 709 756 710 730 709 b 609 702 656 708 636 706 b 544 685 591 697 561 691 b 452 647 527 681 485 663 b 357 589 394 620 390 618 l 309 546 b 288 517 300 539 293 529 b 283 476 282 502 281 495 b 281 431 284 459 283 445 b 282 381 276 414 276 411 b 296 343 287 365 293 347 b 312 330 299 338 306 332 b 347 325 319 326 330 324 b 398 331 361 325 383 328 b 434 344 412 335 429 341 b 454 363 440 348 448 356 b 495 407 459 370 478 390 b 534 461 525 436 528 441 l 542 483 l 534 505 b 529 536 530 519 528 530 b 537 551 530 542 533 548 b 558 558 540 554 550 557 b 588 559 568 560 581 560 b 610 547 596 557 604 554 b 619 523 617 540 619 534 b 614 501 619 514 617 506 b 588 486 611 497 599 491 l 564 473 l 553 450 b 538 420 549 440 543 427 b 507 390 533 415 519 401 b 470 350 496 379 479 361 b 439 323 459 337 448 328 b 405 312 431 319 416 314 b 356 305 394 309 371 306 b 313 307 335 304 321 305 b 290 320 306 309 296 315 b 273 338 283 325 276 333 b 264 368 270 343 267 356 b 255 397 261 379 256 393 b 231 415 253 404 245 408 b 206 432 216 420 210 425 b 205 453 205 438 203 446 b 212 470 206 458 209 467 b 238 486 216 474 227 481 b 266 518 256 496 257 497 b 281 549 270 530 278 544 b 306 572 285 555 296 565 l 351 610 b 429 660 375 631 385 638 l 501 693 b 551 708 513 697 535 704 l 612 722 b 672 730 629 725 656 729 b 718 741 694 731 705 734 b 745 750 728 745 740 750 m 175 119 b 142 114 163 119 151 117 b 125 102 134 110 127 105 b 120 81 124 99 121 90 b 125 53 119 69 119 64 b 144 27 129 44 138 33 b 167 14 151 21 161 15 b 210 17 173 13 192 14 b 270 17 240 21 244 21 b 305 12 285 14 301 12 b 321 17 308 12 316 14 b 337 30 326 19 333 25 b 346 48 341 34 345 43 b 334 70 348 56 346 59 b 293 91 324 80 315 84 b 230 109 277 94 248 103 b 175 119 206 116 189 119 "},"b":{"ha":979,"x_min":0,"x_max":0,"o":"m 745 750 b 718 741 740 750 728 745 b 672 730 705 734 694 731 b 612 722 656 729 629 725 l 551 708 b 501 693 535 704 513 697 l 429 660 b 351 610 385 638 375 631 l 306 572 b 281 549 296 565 285 555 b 266 518 278 544 270 530 b 238 486 257 497 256 496 b 212 470 227 481 216 474 b 205 453 209 467 206 458 b 206 432 203 446 205 438 b 231 415 210 425 216 420 b 255 397 245 408 253 404 b 264 368 256 393 261 379 b 273 338 267 356 270 343 b 290 320 276 333 283 325 b 313 307 296 315 306 309 b 356 305 321 305 335 304 b 405 312 371 306 394 309 b 439 323 416 314 431 319 b 470 350 448 328 459 337 b 507 390 479 361 496 379 b 538 420 519 401 533 415 b 553 450 543 427 549 440 l 564 473 l 588 486 b 614 501 599 491 611 497 b 619 523 617 506 619 514 b 610 547 619 534 617 540 b 588 559 604 554 596 557 b 558 558 581 560 568 560 b 537 551 550 557 540 554 b 529 536 533 548 530 542 b 534 505 528 530 530 519 l 542 483 l 534 461 b 495 407 528 441 525 436 b 454 363 478 390 459 370 b 434 344 448 356 440 348 b 398 331 429 341 412 335 b 347 325 383 328 361 325 b 312 330 330 324 319 326 b 296 343 306 332 299 338 b 282 381 293 347 287 365 b 281 431 276 411 276 414 b 283 476 283 445 284 459 b 288 517 281 495 282 502 b 309 546 293 529 300 539 l 357 589 b 452 647 390 618 394 620 b 544 685 485 663 527 681 b 609 702 561 691 591 697 b 697 709 636 706 656 708 b 761 713 730 709 756 710 b 782 716 766 715 776 716 b 832 710 789 716 811 713 b 891 697 853 706 879 701 b 931 682 903 694 920 687 b 959 666 941 678 954 669 b 978 644 965 661 973 651 b 994 605 981 637 989 619 b 998 558 1002 580 1002 575 b 996 518 996 548 995 531 b 991 480 998 497 997 494 b 968 452 986 471 976 459 b 936 431 960 445 945 436 b 889 418 927 427 906 420 b 832 412 873 415 847 412 b 798 408 818 412 803 410 b 785 391 794 406 789 399 b 781 367 781 381 780 374 b 789 353 782 361 785 355 b 812 343 792 350 803 345 b 837 330 825 340 832 335 b 859 292 842 324 851 307 b 875 252 869 273 875 258 b 867 224 875 245 871 233 b 859 182 858 208 857 206 b 851 138 862 158 861 156 b 819 98 844 125 832 110 b 767 63 803 82 790 74 l 706 40 b 649 26 691 35 665 29 b 558 19 633 23 594 19 b 477 21 515 18 491 19 b 442 40 460 24 455 27 b 426 60 432 48 426 56 b 431 76 426 64 428 71 b 446 94 433 81 440 88 b 473 111 452 99 465 106 b 501 129 482 116 494 123 b 525 167 506 134 518 151 b 556 212 533 182 546 203 b 587 252 564 221 578 239 l 632 318 l 686 394 l 738 469 b 781 522 754 491 773 515 l 795 535 l 825 537 b 860 544 846 539 856 541 b 869 565 863 547 867 556 b 869 591 869 572 869 584 b 861 608 868 597 864 605 b 840 615 856 613 851 615 b 808 608 831 615 818 612 b 788 594 798 604 791 598 b 781 568 785 589 781 577 b 763 534 778 554 774 547 b 718 477 755 526 734 500 l 666 403 l 618 334 l 574 270 b 538 223 565 256 548 235 b 506 178 527 211 513 190 b 488 146 500 165 492 151 b 458 127 484 142 471 133 b 428 107 446 120 432 112 l 410 84 b 389 69 403 74 397 70 b 369 71 381 67 374 68 b 352 82 363 73 356 79 b 334 96 349 86 341 93 b 293 112 328 100 309 107 l 229 131 b 177 141 206 137 187 141 b 141 134 167 141 151 138 b 90 126 131 131 109 128 b 48 117 61 124 55 122 b 36 98 44 112 38 104 b 36 76 34 91 34 83 b 45 59 38 69 43 62 b 72 52 49 56 61 53 b 99 45 83 50 95 47 b 115 29 102 44 109 36 b 136 6 119 22 130 11 b 159 -6 143 1 153 -5 b 193 -6 166 -6 181 -6 l 233 -2 b 278 -5 244 -1 261 -2 b 313 -8 293 -7 308 -9 b 334 0 319 -6 328 -4 b 355 19 341 4 350 12 b 369 38 358 25 365 34 b 387 47 372 43 380 46 b 420 30 399 49 401 48 b 457 5 435 15 446 8 b 544 -1 469 0 486 -1 b 644 4 590 -1 624 1 b 702 17 660 6 686 12 b 762 40 717 21 744 31 b 816 67 781 47 805 60 b 848 96 826 74 841 87 b 874 133 856 105 867 122 b 907 166 885 153 888 156 b 936 190 924 174 930 179 b 944 218 940 198 944 209 b 938 240 944 225 941 234 b 919 255 934 244 926 251 b 900 267 911 258 903 263 b 880 301 897 269 888 285 l 856 340 b 846 358 852 344 847 353 b 849 379 845 364 846 372 b 869 393 854 388 856 390 l 905 399 b 946 414 915 401 934 407 b 983 437 959 419 976 430 b 1008 469 991 444 1003 458 b 1040 495 1019 484 1021 487 b 1068 514 1055 501 1063 506 b 1074 534 1071 519 1074 529 b 1069 553 1074 540 1072 548 b 1045 571 1067 557 1056 566 b 1020 594 1029 580 1025 583 l 1008 627 b 990 663 1005 638 996 654 b 963 689 983 672 971 683 b 921 708 954 694 935 703 b 872 723 907 714 885 720 l 817 733 b 770 744 799 736 778 741 b 745 750 762 747 751 750 m 175 119 b 230 109 189 119 206 116 b 293 91 248 103 277 94 b 334 70 315 84 324 80 b 346 48 346 59 348 56 b 337 30 345 43 341 34 b 321 17 333 25 326 19 b 305 12 316 14 308 12 b 270 17 301 12 285 14 b 210 17 244 21 240 21 b 167 14 192 14 173 13 b 144 27 161 15 151 21 b 125 53 138 33 129 44 b 120 81 119 64 119 69 b 125 102 121 90 124 99 b 142 114 127 105 134 110 b 175 119 151 117 163 119 "},"C":{"ha":851,"x_min":0,"x_max":0,"o":"m 468 831 b 492 827 476 831 487 830 b 505 814 497 824 503 819 b 509 796 507 809 509 801 b 510 777 510 791 510 782 b 499 756 509 769 506 763 b 463 750 489 747 489 747 l 425 752 b 383 744 419 753 399 748 b 334 723 367 739 344 730 b 282 682 323 717 301 698 b 240 633 258 660 248 649 b 224 594 234 622 227 605 b 219 545 220 580 219 565 b 231 497 220 522 223 514 b 257 461 238 485 249 469 b 306 431 269 450 281 443 b 350 419 335 419 343 417 b 368 444 357 421 361 427 b 383 473 373 457 380 470 b 411 492 387 477 399 485 b 441 510 423 498 436 506 b 457 534 444 514 452 525 b 485 566 463 544 475 557 l 531 601 b 590 644 544 613 571 631 b 668 686 607 656 643 674 b 732 714 694 698 722 710 l 794 730 b 858 741 818 735 846 740 b 892 739 871 742 884 742 b 914 727 898 737 908 731 b 929 711 919 723 926 716 b 937 687 931 706 935 695 l 944 664 b 967 649 947 658 954 654 b 992 636 977 645 988 639 b 998 616 996 631 998 625 b 990 595 998 606 996 601 b 964 582 986 591 973 585 b 940 572 954 580 943 576 b 927 550 937 569 931 559 b 910 520 923 541 915 528 b 884 497 905 514 893 503 l 838 468 b 772 432 821 457 792 442 b 693 404 753 424 718 410 b 617 384 669 396 634 387 b 536 372 599 381 563 375 b 456 369 506 369 475 368 b 403 379 436 370 419 373 b 373 386 391 382 377 386 b 359 382 369 386 363 384 b 338 340 356 381 347 361 b 322 263 323 303 323 300 b 308 192 321 226 321 222 b 295 141 298 168 295 155 b 307 86 295 128 298 112 b 332 37 318 60 324 46 b 357 19 339 31 350 22 b 428 14 367 15 380 14 b 519 21 479 14 492 15 b 569 35 537 25 559 31 b 628 66 578 39 605 52 b 680 100 652 79 675 94 b 696 124 685 105 692 116 b 706 181 701 134 704 148 b 708 245 707 205 708 234 b 703 284 708 258 706 274 b 688 306 699 294 693 303 b 665 315 682 310 672 314 b 618 309 656 316 639 313 b 573 296 600 306 580 300 b 552 282 567 294 557 287 b 534 256 547 278 539 266 b 531 218 525 238 525 237 b 536 189 533 207 536 194 b 528 171 536 183 532 176 b 497 161 521 164 518 163 b 465 164 484 160 471 162 b 450 177 459 166 453 171 b 445 200 447 181 445 192 b 452 223 445 211 447 218 b 478 238 456 228 468 234 b 502 248 489 242 499 246 b 515 267 505 250 510 258 b 533 294 519 276 528 288 b 558 313 538 300 550 308 b 606 328 568 318 589 324 b 657 335 622 331 645 335 b 690 330 671 335 683 333 b 708 318 696 327 705 321 b 720 300 712 314 718 306 b 729 272 723 294 727 282 b 736 246 731 263 733 251 b 759 229 738 241 745 235 b 782 213 769 223 781 217 b 787 194 784 209 787 201 b 781 175 787 188 784 179 b 753 156 778 170 765 162 b 719 124 730 147 730 147 b 695 86 714 111 703 94 b 644 50 688 78 665 62 l 588 20 b 539 5 578 16 556 9 b 477 -6 521 1 494 -4 b 423 -9 460 -7 436 -9 b 378 -6 410 -9 390 -7 b 341 5 366 -5 349 1 b 316 22 331 9 320 17 b 301 44 311 28 305 38 b 282 94 297 52 289 74 b 261 138 272 123 268 132 b 239 155 256 141 246 149 b 226 185 227 166 226 168 b 236 231 226 198 229 212 b 255 271 242 245 250 264 b 281 295 260 279 270 289 b 305 317 292 302 302 311 b 315 339 307 322 312 331 l 325 369 b 329 393 329 379 330 389 b 293 415 327 396 315 405 b 243 444 270 425 254 435 b 217 478 234 453 222 468 b 200 517 210 488 204 506 b 195 556 198 528 195 544 b 202 598 195 566 198 584 b 219 643 206 611 214 631 b 268 696 228 659 237 669 b 324 742 288 715 314 735 b 377 763 334 748 358 757 b 416 779 395 769 413 775 b 428 801 419 781 424 792 b 444 825 432 811 439 822 b 468 831 450 830 457 831 m 864 719 b 805 711 854 719 827 716 b 747 697 782 706 756 700 b 681 669 738 694 708 681 b 604 628 654 656 619 638 b 549 589 588 617 563 600 b 506 556 536 578 516 564 b 479 528 496 549 485 537 b 461 501 474 519 465 506 b 431 478 456 494 443 484 b 399 456 418 471 404 462 b 388 436 395 452 390 443 b 384 419 386 431 384 422 b 391 406 384 415 387 409 b 418 395 394 404 406 399 b 471 390 432 392 449 390 b 546 394 490 390 523 392 l 618 405 b 687 423 634 408 665 417 b 758 449 709 430 741 442 b 830 487 776 456 808 474 b 884 526 851 500 875 518 b 908 563 895 537 902 546 b 919 625 915 581 918 594 b 917 679 920 651 919 669 b 908 702 915 687 911 697 b 894 716 906 706 899 713 b 864 719 888 719 876 720 "},"c":{"ha":851,"x_min":0,"x_max":0,"o":"m 468 831 b 444 825 457 831 450 830 b 428 801 439 822 432 811 b 416 779 424 792 419 781 b 377 763 413 775 395 769 b 324 742 358 757 334 748 b 268 696 314 735 288 715 b 219 643 237 669 228 659 b 202 598 214 631 206 611 b 195 556 198 584 195 566 b 200 517 195 544 198 528 b 217 478 204 506 210 488 b 243 444 222 468 234 453 b 293 415 254 435 270 425 b 329 393 315 405 327 396 b 325 369 330 389 329 379 l 315 339 b 305 317 312 331 307 322 b 281 295 302 311 292 302 b 255 271 270 289 260 279 b 236 231 250 264 242 245 b 226 185 229 212 226 198 b 239 155 226 168 227 166 b 261 138 246 149 256 141 b 282 94 268 132 272 123 b 301 44 289 74 297 52 b 316 22 305 38 311 28 b 341 5 320 17 331 9 b 378 -6 349 1 366 -5 b 423 -9 390 -7 410 -9 b 477 -6 436 -9 460 -7 b 539 5 494 -4 521 1 b 588 20 556 9 578 16 l 644 50 b 695 86 665 62 688 78 b 719 124 703 94 714 111 b 753 156 730 147 730 147 b 781 175 765 162 778 170 b 787 194 784 179 787 188 b 782 213 787 201 784 209 b 759 229 781 217 769 223 b 736 246 745 235 738 241 b 729 272 733 251 731 263 b 720 300 727 282 723 294 b 708 318 718 306 712 314 b 690 330 705 321 696 327 b 657 335 683 333 671 335 b 606 328 645 335 622 331 b 558 313 589 324 568 318 b 533 294 550 308 538 300 b 515 267 528 288 519 276 b 502 248 510 258 505 250 b 478 238 499 246 489 242 b 452 223 468 234 456 228 b 445 200 447 218 445 211 b 450 177 445 192 447 181 b 465 164 453 171 459 166 b 497 161 471 162 484 160 b 528 171 518 163 521 164 b 536 189 532 176 536 183 b 531 218 536 194 533 207 b 534 256 525 237 525 238 b 552 282 539 266 547 278 b 573 296 557 287 567 294 b 618 309 580 300 600 306 b 665 315 639 313 656 316 b 688 306 672 314 682 310 b 703 284 693 303 699 294 b 708 245 706 274 708 258 b 706 181 708 234 707 205 b 696 124 704 148 701 134 b 680 100 692 116 685 105 b 628 66 675 94 652 79 b 569 35 605 52 578 39 b 519 21 559 31 537 25 b 428 14 492 15 479 14 b 357 19 380 14 367 15 b 332 37 350 22 339 31 b 307 86 324 46 318 60 b 295 141 298 112 295 128 b 308 192 295 155 298 168 b 322 263 321 222 321 226 b 338 340 323 300 323 303 b 359 382 347 361 356 381 b 373 386 363 384 369 386 b 403 379 377 386 391 382 b 456 369 419 373 436 370 b 536 372 475 368 506 369 b 617 384 563 375 599 381 b 693 404 634 387 669 396 b 772 432 718 410 753 424 b 838 468 792 442 821 457 l 884 497 b 910 520 893 503 905 514 b 927 550 915 528 923 541 b 940 572 931 559 937 569 b 964 582 943 576 954 580 b 990 595 973 585 986 591 b 998 616 996 601 998 606 b 992 636 998 625 996 631 b 967 649 988 639 977 645 b 944 664 954 654 947 658 l 937 687 b 929 711 935 695 931 706 b 914 727 926 716 919 723 b 892 739 908 731 898 737 b 858 741 884 742 871 742 b 794 730 846 740 818 735 l 732 714 b 668 686 722 710 694 698 b 590 644 643 674 607 656 b 531 601 571 631 544 613 l 485 566 b 457 534 475 557 463 544 b 441 510 452 525 444 514 b 411 492 436 506 423 498 b 383 473 399 485 387 477 b 368 444 380 470 373 457 b 350 419 361 427 357 421 b 306 431 343 417 335 419 b 257 461 281 443 269 450 b 231 497 249 469 238 485 b 219 545 223 514 220 522 b 224 594 219 565 220 580 b 240 633 227 605 234 622 b 282 682 248 649 258 660 b 334 723 301 698 323 717 b 383 744 344 730 367 739 b 425 752 399 748 419 753 l 463 750 b 499 756 489 747 489 747 b 510 777 506 763 509 769 b 509 796 510 782 510 791 b 505 814 509 801 507 809 b 492 827 503 819 497 824 b 468 831 487 830 476 831 m 864 719 b 894 716 876 720 888 719 b 908 702 899 713 906 706 b 917 679 911 697 915 687 b 919 625 919 669 920 651 b 908 563 918 594 915 581 b 884 526 902 546 895 537 b 830 487 875 518 851 500 b 758 449 808 474 776 456 b 687 423 741 442 709 430 b 618 405 665 417 634 408 l 546 394 b 471 390 523 392 490 390 b 418 395 449 390 432 392 b 391 406 406 399 394 404 b 384 419 387 409 384 415 b 388 436 384 422 386 431 b 399 456 390 443 395 452 b 431 478 404 462 418 471 b 461 501 443 484 456 494 b 479 528 465 506 474 519 b 506 556 485 537 496 549 b 549 589 516 564 536 578 b 604 628 563 600 588 617 b 681 669 619 638 654 656 b 747 697 708 681 738 694 b 805 711 756 700 782 706 b 864 719 827 716 854 719 "},"D":{"ha":1024,"x_min":0,"x_max":0,"o":"m 1181 823 b 1200 818 1188 822 1196 819 b 1211 800 1205 815 1209 807 b 1211 770 1214 791 1214 782 b 1200 746 1209 758 1206 751 b 1182 740 1194 743 1187 740 b 1151 747 1178 740 1164 743 b 1115 751 1131 754 1126 754 b 1081 738 1108 749 1093 744 b 1026 706 1069 732 1044 718 b 975 667 1006 694 984 677 b 956 638 966 656 957 644 b 954 615 953 631 952 621 b 973 586 956 607 962 598 b 997 554 983 576 994 561 b 1006 523 1001 546 1006 532 b 1010 495 1009 513 1010 501 b 1024 460 1010 490 1017 474 b 1039 420 1031 445 1038 430 b 1033 376 1040 413 1037 393 b 1019 325 1030 359 1024 336 b 1005 296 1017 314 1009 301 b 981 281 1000 292 989 284 b 961 263 971 276 965 270 l 952 241 b 937 208 950 234 944 219 b 888 148 930 194 915 176 b 832 94 868 127 842 103 b 794 68 822 87 806 75 l 746 44 b 692 21 732 37 708 27 b 642 7 676 16 654 10 l 600 2 b 550 -6 588 1 566 -3 b 503 -8 533 -8 513 -9 b 469 1 491 -7 478 -4 b 444 21 462 6 450 15 b 415 33 432 32 430 33 b 389 30 406 33 394 31 b 370 17 382 27 375 21 b 349 2 366 12 356 6 b 267 -6 338 -4 328 -5 b 176 -8 229 -8 188 -9 b 141 0 163 -7 150 -5 b 105 27 132 4 117 16 b 66 51 88 43 80 47 b 42 59 57 53 46 57 b 31 76 38 62 32 69 b 31 99 29 83 29 92 b 40 118 32 106 36 114 b 80 126 45 123 53 124 b 128 133 98 127 119 131 b 167 140 136 136 153 139 b 209 138 182 142 198 141 b 244 127 219 136 233 131 b 294 111 253 123 276 116 b 343 94 313 106 335 98 b 369 71 350 89 362 80 b 389 55 376 64 384 56 b 411 54 394 53 404 53 b 433 63 420 56 429 59 b 450 82 437 67 444 75 b 491 108 458 92 469 98 b 529 131 507 116 524 126 b 551 162 533 135 544 150 b 584 207 558 174 573 194 b 641 283 595 220 620 255 l 706 377 b 753 447 721 399 743 431 b 792 497 763 464 781 486 b 816 524 803 508 814 520 b 827 548 819 528 823 539 b 841 577 830 558 836 571 b 869 598 846 584 856 592 b 893 611 880 603 891 609 b 899 624 895 613 898 619 b 896 644 901 631 899 638 b 875 669 894 649 883 660 b 841 691 864 679 853 686 b 784 703 831 694 806 699 b 702 711 764 706 727 710 b 622 709 675 712 642 711 b 556 697 604 707 573 702 b 494 680 537 694 509 685 l 444 658 b 383 621 431 652 404 635 b 331 581 363 606 339 589 b 304 542 321 572 311 558 b 292 486 292 518 291 517 b 286 438 293 460 292 451 b 280 413 282 430 280 418 b 286 374 280 407 282 390 b 298 336 290 358 295 341 b 313 321 301 331 308 325 b 350 315 320 316 326 315 b 407 322 367 316 392 319 b 455 338 423 326 444 332 b 483 358 466 344 478 353 b 511 401 488 364 501 382 b 540 456 522 419 535 444 b 548 492 544 469 548 485 b 540 521 548 499 544 512 b 531 548 535 531 531 543 b 542 569 531 556 534 561 b 576 576 551 577 552 578 b 610 565 599 575 601 574 b 619 542 618 557 619 552 b 616 520 619 534 618 525 b 599 506 614 517 606 510 b 579 493 592 502 582 495 b 565 463 575 489 569 476 b 545 419 560 451 552 431 l 521 376 b 495 341 514 364 503 348 b 464 319 488 333 474 324 b 420 304 454 314 434 307 b 357 295 404 299 381 296 b 306 301 322 294 319 294 b 282 322 296 306 288 314 b 267 365 277 331 270 348 b 255 401 263 381 257 397 b 234 416 253 405 244 411 b 215 431 226 420 217 427 b 211 453 213 434 211 444 b 218 480 211 463 213 473 b 244 500 221 486 231 494 b 269 519 256 506 267 514 l 284 550 b 306 587 291 564 300 580 b 362 631 312 594 336 613 b 429 673 387 649 417 668 b 482 696 441 680 464 690 b 544 717 499 704 528 712 b 631 731 560 720 599 727 l 690 737 l 747 729 l 824 717 b 860 704 835 714 851 708 b 896 677 870 699 885 689 b 927 656 913 659 918 656 b 959 680 936 656 941 659 b 1018 725 975 694 994 710 b 1075 757 1038 738 1064 752 l 1108 771 b 1128 791 1118 775 1122 780 b 1142 812 1132 799 1139 808 b 1159 822 1145 817 1153 820 b 1181 823 1166 823 1176 824 m 915 587 b 890 584 907 588 896 587 b 869 574 882 582 873 578 b 855 558 864 571 857 564 b 842 531 851 552 845 540 b 812 488 837 518 829 506 b 769 432 799 475 780 449 b 721 363 757 415 736 383 l 661 276 b 605 200 643 248 618 214 b 568 149 593 185 576 162 b 542 114 559 135 548 119 b 506 93 536 108 519 99 b 474 76 494 87 479 80 b 460 62 469 73 463 67 b 455 47 456 57 455 51 b 467 30 455 44 460 36 b 485 16 473 24 481 18 b 510 12 490 14 501 12 b 558 17 520 12 542 14 l 616 24 b 678 39 631 26 658 32 b 744 66 696 44 726 56 b 794 94 761 74 784 87 b 856 146 806 100 832 124 b 910 205 880 169 904 194 b 932 250 918 214 927 234 b 943 309 941 275 943 283 b 947 361 943 327 944 349 b 956 410 950 372 953 394 b 962 445 956 426 960 442 b 978 469 964 449 971 459 b 987 507 989 484 989 485 b 979 544 986 520 982 537 b 958 570 975 552 966 563 b 937 584 952 577 942 583 l 915 587 m 182 119 b 135 114 158 119 148 119 b 113 103 125 111 116 106 b 105 81 110 99 106 90 b 106 56 103 69 103 65 b 125 35 110 51 118 42 b 150 19 131 30 143 22 b 178 11 156 16 169 12 b 211 15 191 9 198 10 b 255 17 228 21 230 21 b 305 14 273 13 288 12 b 339 20 318 15 333 18 b 355 30 344 23 352 27 b 360 42 358 32 360 38 b 354 58 360 46 357 54 b 332 76 349 64 340 71 b 289 91 325 80 306 86 b 237 107 273 94 250 103 b 182 119 218 116 208 118 "},"d":{"ha":1024,"x_min":0,"x_max":0,"o":"m 1181 823 b 1159 822 1176 824 1166 823 b 1142 812 1153 820 1145 817 b 1128 791 1139 808 1132 799 b 1108 771 1122 780 1118 775 l 1075 757 b 1018 725 1064 752 1038 738 b 959 680 994 710 975 694 b 927 656 941 659 936 656 b 896 677 918 656 913 659 b 860 704 885 689 870 699 b 824 717 851 708 835 714 l 747 729 l 690 737 l 631 731 b 544 717 599 727 560 720 b 482 696 528 712 499 704 b 429 673 464 690 441 680 b 362 631 417 668 387 649 b 306 587 336 613 312 594 b 284 550 300 580 291 564 l 269 519 b 244 500 267 514 256 506 b 218 480 231 494 221 486 b 211 453 213 473 211 463 b 215 431 211 444 213 434 b 234 416 217 427 226 420 b 255 401 244 411 253 405 b 267 365 257 397 263 381 b 282 322 270 348 277 331 b 306 301 288 314 296 306 b 357 295 319 294 322 294 b 420 304 381 296 404 299 b 464 319 434 307 454 314 b 495 341 474 324 488 333 b 521 376 503 348 514 364 l 545 419 b 565 463 552 431 560 451 b 579 493 569 476 575 489 b 599 506 582 495 592 502 b 616 520 606 510 614 517 b 619 542 618 525 619 534 b 610 565 619 552 618 557 b 576 576 601 574 599 575 b 542 569 552 578 551 577 b 531 548 534 561 531 556 b 540 521 531 543 535 531 b 548 492 544 512 548 499 b 540 456 548 485 544 469 b 511 401 535 444 522 419 b 483 358 501 382 488 364 b 455 338 478 353 466 344 b 407 322 444 332 423 326 b 350 315 392 319 367 316 b 313 321 326 315 320 316 b 298 336 308 325 301 331 b 286 374 295 341 290 358 b 280 413 282 390 280 407 b 286 438 280 418 282 430 b 292 486 292 451 293 460 b 304 542 291 517 292 518 b 331 581 311 558 321 572 b 383 621 339 589 363 606 b 444 658 404 635 431 652 l 494 680 b 556 697 509 685 537 694 b 622 709 573 702 604 707 b 702 711 642 711 675 712 b 784 703 727 710 764 706 b 841 691 806 699 831 694 b 875 669 853 686 864 679 b 896 644 883 660 894 649 b 899 624 899 638 901 631 b 893 611 898 619 895 613 b 869 598 891 609 880 603 b 841 577 856 592 846 584 b 827 548 836 571 830 558 b 816 524 823 539 819 528 b 792 497 814 520 803 508 b 753 447 781 486 763 464 b 706 377 743 431 721 399 l 641 283 b 584 207 620 255 595 220 b 551 162 573 194 558 174 b 529 131 544 150 533 135 b 491 108 524 126 507 116 b 450 82 469 98 458 92 b 433 63 444 75 437 67 b 411 54 429 59 420 56 b 389 55 404 53 394 53 b 369 71 384 56 376 64 b 343 94 362 80 350 89 b 294 111 335 98 313 106 b 244 127 276 116 253 123 b 209 138 233 131 219 136 b 167 140 198 141 182 142 b 128 133 153 139 136 136 b 80 126 119 131 98 127 b 40 118 53 124 45 123 b 31 99 36 114 32 106 b 31 76 29 92 29 83 b 42 59 32 69 38 62 b 66 51 46 57 57 53 b 105 27 80 47 88 43 b 141 0 117 16 132 4 b 176 -8 150 -5 163 -7 b 267 -6 188 -9 229 -8 b 349 2 328 -5 338 -4 b 370 17 356 6 366 12 b 389 30 375 21 382 27 b 415 33 394 31 406 33 b 444 21 430 33 432 32 b 469 1 450 15 462 6 b 503 -8 478 -4 491 -7 b 550 -6 513 -9 533 -8 b 600 2 566 -3 588 1 l 642 7 b 692 21 654 10 676 16 b 746 44 708 27 732 37 l 794 68 b 832 94 806 75 822 87 b 888 148 842 103 868 127 b 937 208 915 176 930 194 b 952 241 944 219 950 234 l 961 263 b 981 281 965 270 971 276 b 1005 296 989 284 1000 292 b 1019 325 1009 301 1017 314 b 1033 376 1024 336 1030 359 b 1039 420 1037 393 1040 413 b 1024 460 1038 430 1031 445 b 1010 495 1017 474 1010 490 b 1006 523 1010 501 1009 513 b 997 554 1006 532 1001 546 b 973 586 994 561 983 576 b 954 615 962 598 956 607 b 956 638 952 621 953 631 b 975 667 957 644 966 656 b 1026 706 984 677 1006 694 b 1081 738 1044 718 1069 732 b 1115 751 1093 744 1108 749 b 1151 747 1126 754 1131 754 b 1182 740 1164 743 1178 740 b 1200 746 1187 740 1194 743 b 1211 770 1206 751 1209 758 b 1211 800 1214 782 1214 791 b 1200 818 1209 807 1205 815 b 1181 823 1196 819 1188 822 m 915 587 l 937 584 b 958 570 942 583 952 577 b 979 544 966 563 975 552 b 987 507 982 537 986 520 b 978 469 989 485 989 484 b 962 445 971 459 964 449 b 956 410 960 442 956 426 b 947 361 953 394 950 372 b 943 309 944 349 943 327 b 932 250 943 283 941 275 b 910 205 927 234 918 214 b 856 146 904 194 880 169 b 794 94 832 124 806 100 b 744 66 784 87 761 74 b 678 39 726 56 696 44 b 616 24 658 32 631 26 l 558 17 b 510 12 542 14 520 12 b 485 16 501 12 490 14 b 467 30 481 18 473 24 b 455 47 460 36 455 44 b 460 62 455 51 456 57 b 474 76 463 67 469 73 b 506 93 479 80 494 87 b 542 114 519 99 536 108 b 568 149 548 119 559 135 b 605 200 576 162 593 185 b 661 276 618 214 643 248 l 721 363 b 769 432 736 383 757 415 b 812 488 780 449 799 475 b 842 531 829 506 837 518 b 855 558 845 540 851 552 b 869 574 857 564 864 571 b 890 584 873 578 882 582 b 915 587 896 587 907 588 m 182 119 b 237 107 208 118 218 116 b 289 91 250 103 273 94 b 332 76 306 86 325 80 b 354 58 340 71 349 64 b 360 42 357 54 360 46 b 355 30 360 38 358 32 b 339 20 352 27 344 23 b 305 14 333 18 318 15 b 255 17 288 12 273 13 b 211 15 230 21 228 21 b 178 11 198 10 191 9 b 150 19 169 12 156 16 b 125 35 143 22 131 30 b 106 56 118 42 110 51 b 105 81 103 65 103 69 b 113 103 106 90 110 99 b 135 114 116 106 125 111 b 182 119 148 119 158 119 "},"E":{"ha":773,"x_min":0,"x_max":0,"o":"m 526 822 b 547 818 532 822 542 820 b 561 806 552 815 559 810 b 567 781 565 802 567 793 b 562 756 567 772 565 760 b 547 743 559 750 553 745 b 506 742 540 741 528 740 b 440 731 475 744 474 744 b 382 705 420 724 394 712 b 326 659 369 697 344 677 b 279 606 306 641 286 619 b 256 565 271 594 261 576 b 248 527 251 551 248 539 b 252 498 248 517 249 504 b 269 468 254 493 261 479 b 291 439 275 456 285 444 b 312 423 296 433 306 426 b 370 414 319 420 341 417 b 431 411 396 411 424 410 b 456 418 440 412 451 415 b 471 430 461 419 469 425 b 469 456 477 437 476 439 b 456 485 466 467 460 480 b 429 499 451 494 446 495 b 400 509 416 501 405 505 b 393 525 395 514 393 520 b 399 542 393 531 395 538 b 425 556 403 546 415 553 b 451 568 435 560 447 565 b 465 588 454 570 460 580 b 491 619 469 596 481 611 b 537 653 500 629 521 644 b 604 686 553 661 583 677 b 670 710 624 695 655 706 l 731 726 b 782 733 749 730 772 733 b 816 727 795 733 806 731 b 845 693 829 720 832 716 l 861 665 l 882 658 b 908 646 894 655 906 649 b 913 628 911 644 913 635 b 906 608 913 620 910 613 b 878 596 904 605 893 599 b 843 577 857 591 853 588 b 814 548 836 569 823 557 b 766 515 804 540 782 525 b 703 480 750 505 721 489 b 652 456 684 470 661 460 b 606 444 643 453 621 447 b 570 435 592 443 575 438 b 560 423 566 431 561 427 b 565 396 560 420 562 408 b 569 363 569 382 570 370 b 560 344 568 357 564 348 b 543 331 556 340 548 334 b 492 324 535 328 519 326 b 403 305 453 322 449 321 b 306 266 375 294 332 277 b 237 231 281 254 249 238 b 195 198 225 223 206 208 b 167 166 184 188 172 173 b 157 144 161 158 157 148 b 167 118 157 140 161 128 b 184 78 172 107 180 90 b 206 44 190 62 195 54 b 242 26 215 36 226 30 b 287 15 254 22 274 18 b 356 13 302 13 326 12 b 426 20 381 15 412 18 b 473 31 440 22 461 28 b 536 56 485 34 513 45 b 594 89 563 68 583 79 b 624 123 605 97 618 112 b 639 169 632 138 636 148 b 642 216 641 185 643 206 b 638 245 642 226 640 239 b 626 263 636 251 631 259 b 606 271 621 267 613 270 b 558 261 598 272 585 269 b 497 240 538 256 511 245 b 457 216 484 234 466 223 l 441 203 l 442 175 b 432 137 443 147 443 146 b 399 130 423 129 421 128 b 367 138 381 131 374 131 b 355 156 362 142 357 150 b 354 180 354 163 353 173 b 365 199 355 185 359 194 b 397 213 370 206 378 208 b 444 233 417 217 426 220 b 488 258 457 243 477 254 l 544 279 b 599 291 570 287 586 291 b 630 286 609 291 623 288 b 647 273 636 283 644 277 b 659 250 651 269 656 258 b 667 222 661 241 665 229 b 691 200 669 210 671 208 b 715 187 702 195 713 189 b 719 173 717 184 719 178 b 708 156 719 168 715 162 b 684 144 704 151 693 145 b 662 136 676 142 666 138 b 647 119 657 133 651 126 b 627 90 644 111 634 99 b 599 65 620 81 607 70 b 544 37 591 60 567 47 b 479 11 522 28 493 16 b 405 -3 464 7 431 1 b 321 -8 369 -7 347 -9 b 258 0 302 -7 274 -4 b 209 17 242 4 220 11 b 181 38 198 22 186 31 b 162 73 175 44 167 60 b 146 107 157 87 150 102 b 126 121 142 113 133 119 b 106 131 119 124 109 128 b 100 144 103 133 100 140 b 108 159 100 150 103 155 b 127 167 113 162 121 166 b 155 188 133 168 143 175 l 188 221 b 227 249 197 229 215 242 b 294 282 240 256 269 271 b 384 319 318 293 358 310 l 449 342 b 495 345 459 344 481 345 b 533 350 514 345 527 347 b 544 359 538 353 544 356 b 547 374 545 362 547 369 b 544 395 547 380 545 389 b 533 413 541 402 537 409 b 511 419 529 417 522 419 b 483 409 499 419 493 417 b 458 396 476 405 465 398 b 418 392 451 394 435 392 b 355 394 403 392 374 393 b 305 405 334 396 314 401 b 272 426 294 408 282 417 b 242 470 265 435 251 455 b 225 518 230 493 226 502 b 230 556 224 531 226 544 b 252 604 232 565 243 587 b 317 678 268 631 273 638 b 391 732 356 714 368 722 b 442 753 406 740 428 748 b 471 767 455 757 468 764 b 484 791 474 770 480 781 b 503 816 490 803 495 810 b 526 822 509 819 519 822 m 789 714 b 719 702 781 715 758 711 b 640 680 687 694 652 684 b 585 655 629 676 604 664 b 531 625 567 646 543 632 b 500 600 519 618 506 606 b 480 571 495 594 486 581 b 469 531 471 556 469 549 b 482 481 469 515 472 506 b 501 445 490 465 498 449 b 522 440 505 442 511 440 b 555 450 535 440 543 443 b 603 465 566 456 580 461 b 673 488 628 469 644 475 b 743 525 694 497 725 514 b 798 564 761 536 786 554 b 828 594 810 574 823 588 b 837 634 834 606 836 612 b 827 682 837 659 836 664 b 808 707 821 694 812 705 b 789 714 804 710 795 713 "},"e":{"ha":773,"x_min":0,"x_max":0,"o":"m 526 822 b 503 816 519 822 509 819 b 484 791 495 810 490 803 b 471 767 480 781 474 770 b 442 753 468 764 455 757 b 391 732 428 748 406 740 b 317 678 368 722 356 714 b 252 604 273 638 268 631 b 230 556 243 587 232 565 b 225 518 226 544 224 531 b 242 470 226 502 230 493 b 272 426 251 455 265 435 b 305 405 282 417 294 408 b 355 394 314 401 334 396 b 418 392 374 393 403 392 b 458 396 435 392 451 394 b 483 409 465 398 476 405 b 511 419 493 417 499 419 b 533 413 522 419 529 417 b 544 395 537 409 541 402 b 547 374 545 389 547 380 b 544 359 547 369 545 362 b 533 350 544 356 538 353 b 495 345 527 347 514 345 b 449 342 481 345 459 344 l 384 319 b 294 282 358 310 318 293 b 227 249 269 271 240 256 b 188 221 215 242 197 229 l 155 188 b 127 167 143 175 133 168 b 108 159 121 166 113 162 b 100 144 103 155 100 150 b 106 131 100 140 103 133 b 126 121 109 128 119 124 b 146 107 133 119 142 113 b 162 73 150 102 157 87 b 181 38 167 60 175 44 b 209 17 186 31 198 22 b 258 0 220 11 242 4 b 321 -8 274 -4 302 -7 b 405 -3 347 -9 369 -7 b 479 11 431 1 464 7 b 544 37 493 16 522 28 b 599 65 567 47 591 60 b 627 90 607 70 620 81 b 647 119 634 99 644 111 b 662 136 651 126 657 133 b 684 144 666 138 676 142 b 708 156 693 145 704 151 b 719 173 715 162 719 168 b 715 187 719 178 717 184 b 691 200 713 189 702 195 b 667 222 671 208 669 210 b 659 250 665 229 661 241 b 647 273 656 258 651 269 b 630 286 644 277 636 283 b 599 291 623 288 609 291 b 544 279 586 291 570 287 l 488 258 b 444 233 477 254 457 243 b 397 213 426 220 417 217 b 365 199 378 208 370 206 b 354 180 359 194 355 185 b 355 156 353 173 354 163 b 367 138 357 150 362 142 b 399 130 374 131 381 131 b 432 137 421 128 423 129 b 442 175 443 146 443 147 l 441 203 l 457 216 b 497 240 466 223 484 234 b 558 261 511 245 538 256 b 606 271 585 269 598 272 b 626 263 613 270 621 267 b 638 245 631 259 636 251 b 642 216 640 239 642 226 b 639 169 643 206 641 185 b 624 123 636 148 632 138 b 594 89 618 112 605 97 b 536 56 583 79 563 68 b 473 31 513 45 485 34 b 426 20 461 28 440 22 b 356 13 412 18 381 15 b 287 15 326 12 302 13 b 242 26 274 18 254 22 b 206 44 226 30 215 36 b 184 78 195 54 190 62 b 167 118 180 90 172 107 b 157 144 161 128 157 140 b 167 166 157 148 161 158 b 195 198 172 173 184 188 b 237 231 206 208 225 223 b 306 266 249 238 281 254 b 403 305 332 277 375 294 b 492 324 449 321 453 322 b 543 331 519 326 535 328 b 560 344 548 334 556 340 b 569 363 564 348 568 357 b 565 396 570 370 569 382 b 560 423 562 408 560 420 b 570 435 561 427 566 431 b 606 444 575 438 592 443 b 652 456 621 447 643 453 b 703 480 661 460 684 470 b 766 515 721 489 750 505 b 814 548 782 525 804 540 b 843 577 823 557 836 569 b 878 596 853 588 857 591 b 906 608 893 599 904 605 b 913 628 910 613 913 620 b 908 646 913 635 911 644 b 882 658 906 649 894 655 l 861 665 l 845 693 b 816 727 832 716 829 720 b 782 733 806 731 795 733 b 731 726 772 733 749 730 l 670 710 b 604 686 655 706 624 695 b 537 653 583 677 553 661 b 491 619 521 644 500 629 b 465 588 481 611 469 596 b 451 568 460 580 454 570 b 425 556 447 565 435 560 b 399 542 415 553 403 546 b 393 525 395 538 393 531 b 400 509 393 520 395 514 b 429 499 405 505 416 501 b 456 485 446 495 451 494 b 469 456 460 480 466 467 b 471 430 476 439 477 437 b 456 418 469 425 461 419 b 431 411 451 415 440 412 b 370 414 424 410 396 411 b 312 423 341 417 319 420 b 291 439 306 426 296 433 b 269 468 285 444 275 456 b 252 498 261 479 254 493 b 248 527 249 504 248 517 b 256 565 248 539 251 551 b 279 606 261 576 271 594 b 326 659 286 619 306 641 b 382 705 344 677 369 697 b 440 731 394 712 420 724 b 506 742 474 744 475 744 b 547 743 528 740 540 741 b 562 756 553 745 559 750 b 567 781 565 760 567 772 b 561 806 567 793 565 802 b 547 818 559 810 552 815 b 526 822 542 820 532 822 m 789 714 b 808 707 795 713 804 710 b 827 682 812 705 821 694 b 837 634 836 664 837 659 b 828 594 836 612 834 606 b 798 564 823 588 810 574 b 743 525 786 554 761 536 b 673 488 725 514 694 497 b 603 465 644 475 628 469 b 555 450 580 461 566 456 b 522 440 543 443 535 440 b 501 445 511 440 505 442 b 482 481 498 449 490 465 b 469 531 472 506 469 515 b 480 571 469 549 471 556 b 500 600 486 581 495 594 b 531 625 506 606 519 618 b 585 655 543 632 567 646 b 640 680 604 664 629 676 b 719 702 652 684 687 694 b 789 714 758 711 781 715 "},"F":{"ha":993,"x_min":0,"x_max":0,"o":"m 504 759 b 570 756 528 759 558 758 l 622 746 l 706 728 b 811 712 750 718 769 714 b 880 703 851 710 867 707 l 920 684 b 965 669 933 678 953 671 b 1009 664 977 666 997 664 b 1049 672 1028 664 1035 666 b 1087 702 1057 676 1075 690 l 1121 735 b 1143 752 1127 742 1137 749 b 1169 756 1149 755 1161 756 b 1190 752 1178 756 1187 755 b 1199 742 1193 750 1197 745 b 1203 712 1201 738 1203 724 b 1196 681 1203 694 1202 689 b 1178 673 1191 675 1186 673 b 1147 683 1170 674 1157 678 b 1119 693 1138 689 1125 693 b 1089 675 1112 693 1105 689 b 1054 650 1077 665 1062 654 b 1006 644 1041 644 1032 644 b 953 649 987 644 965 646 b 904 669 942 653 919 661 b 863 686 889 676 870 684 b 799 693 856 688 827 691 b 717 703 764 694 740 697 l 632 723 b 508 735 580 735 580 735 l 437 735 l 406 725 b 354 705 389 719 366 710 b 322 685 343 700 328 691 b 303 659 316 680 307 668 b 294 605 295 644 294 639 b 299 533 294 578 295 556 b 312 490 303 515 309 495 b 329 475 316 484 323 478 b 359 471 334 473 348 471 b 408 479 370 471 392 475 b 449 492 424 482 443 489 b 472 507 456 495 467 503 b 492 534 479 513 488 525 b 495 569 500 550 500 551 b 491 598 493 578 491 591 b 499 618 491 606 493 612 b 528 626 506 624 509 626 b 557 621 540 626 553 624 b 570 609 562 619 568 614 b 575 583 573 605 575 593 b 568 558 575 569 573 564 b 542 544 563 553 552 547 b 514 526 526 540 521 537 b 487 494 509 519 497 505 b 450 469 474 481 464 475 b 403 456 439 466 419 459 b 354 450 388 453 366 450 b 319 456 341 450 329 452 b 298 473 312 459 302 467 b 285 501 294 479 287 492 l 276 537 b 269 558 274 546 270 556 b 245 569 267 560 256 564 b 221 586 231 573 226 578 b 219 607 219 593 218 600 b 228 626 220 614 224 621 b 253 639 232 630 244 635 b 282 667 269 645 272 648 b 306 700 289 678 299 693 b 331 718 312 706 324 714 b 379 738 338 721 359 731 b 437 755 398 744 425 753 b 504 759 450 757 480 759 m 803 613 b 845 607 810 613 830 610 b 881 601 862 606 879 602 b 889 592 884 600 888 596 b 887 580 891 587 890 581 b 869 574 884 577 878 574 b 835 582 861 574 846 578 b 804 591 825 587 810 591 b 761 574 795 591 782 585 b 717 544 744 565 724 551 b 679 499 709 537 693 517 b 646 450 665 481 651 459 b 630 417 643 440 634 426 l 614 387 b 609 360 608 375 607 370 b 620 341 611 352 616 344 b 653 331 625 338 640 333 b 741 329 673 326 687 326 b 834 338 782 331 815 334 l 872 347 b 886 359 877 349 882 355 b 904 381 890 364 897 374 b 931 393 914 391 918 393 b 956 388 939 393 950 391 b 968 375 960 385 966 380 b 972 349 970 370 972 359 b 967 323 972 340 969 328 b 957 312 965 318 960 313 b 940 309 955 310 946 309 b 910 318 933 309 919 314 b 878 325 896 324 889 326 l 832 317 b 731 307 809 312 783 309 b 634 313 666 306 659 306 b 598 315 610 319 606 319 b 585 301 594 312 587 306 b 577 279 583 296 579 286 b 563 250 574 271 569 258 b 548 220 558 242 551 229 l 536 183 b 519 150 531 168 526 156 b 497 137 514 145 504 139 b 478 127 490 135 481 131 b 460 91 475 123 467 107 l 437 43 b 394 -25 431 31 411 1 b 335 -104 376 -51 349 -86 l 295 -151 b 258 -184 288 -159 271 -174 b 217 -219 245 -194 227 -210 b 168 -250 205 -230 186 -241 b 112 -272 151 -257 126 -268 b 61 -284 97 -277 75 -281 b 8 -287 48 -285 24 -287 b -34 -283 -8 -287 -27 -285 b -59 -268 -42 -281 -53 -274 b -81 -222 -69 -257 -74 -249 b -97 -184 -88 -205 -94 -187 b -116 -175 -100 -181 -108 -177 b -136 -165 -123 -173 -132 -169 b -144 -147 -142 -160 -144 -155 b -137 -125 -144 -141 -141 -131 b -108 -99 -133 -119 -120 -107 b -73 -77 -96 -90 -81 -80 b -46 -70 -66 -73 -54 -70 b -25 -78 -36 -70 -31 -72 b -17 -95 -19 -82 -17 -90 b -20 -112 -17 -101 -19 -108 b -44 -128 -22 -115 -32 -122 b -69 -147 -56 -133 -65 -141 b -75 -166 -72 -154 -75 -161 b -64 -208 -75 -169 -70 -189 b -43 -254 -56 -236 -50 -246 b 8 -264 -32 -263 -31 -263 b 75 -260 37 -265 56 -264 b 126 -245 89 -257 112 -250 b 169 -226 140 -240 159 -231 b 208 -198 179 -220 196 -208 l 251 -163 b 288 -126 263 -154 280 -137 b 323 -84 296 -116 312 -96 b 378 -10 333 -72 358 -39 b 423 62 397 19 418 52 b 444 107 429 72 438 93 b 457 156 451 124 456 141 b 465 188 459 170 463 184 b 490 209 468 192 479 201 b 517 236 502 218 512 229 b 527 267 520 244 525 257 b 526 295 529 280 529 288 b 507 312 523 304 519 307 b 458 318 495 317 484 318 b 375 304 429 317 417 315 b 319 285 348 296 323 288 b 304 269 315 283 308 276 b 288 249 300 262 293 254 b 264 240 282 244 274 242 b 239 244 253 239 246 240 b 224 257 232 247 226 253 b 220 284 222 262 220 274 b 226 313 220 295 223 307 b 235 324 228 318 232 322 b 251 326 238 325 245 326 b 279 318 256 326 269 322 b 307 309 288 313 301 309 b 367 323 314 309 341 316 b 449 337 404 333 421 336 b 507 333 476 339 490 338 b 539 334 530 329 531 329 b 549 348 544 338 548 344 b 552 371 551 353 552 363 b 558 393 553 381 555 388 b 579 400 562 395 571 399 b 601 409 588 402 596 406 b 623 450 604 413 615 431 b 663 514 633 470 648 495 b 697 555 676 531 692 549 b 719 574 702 561 713 569 b 761 598 727 580 746 590 b 803 613 781 608 794 613 "},"f":{"ha":993,"x_min":0,"x_max":0,"o":"m 504 759 b 437 755 480 759 450 757 b 379 738 425 753 398 744 b 331 718 359 731 338 721 b 306 700 324 714 312 706 b 282 667 299 693 289 678 b 253 639 272 648 269 645 b 228 626 244 635 232 630 b 219 607 224 621 220 614 b 221 586 218 600 219 593 b 245 569 226 578 231 573 b 269 558 256 564 267 560 b 276 537 270 556 274 546 l 285 501 b 298 473 287 492 294 479 b 319 456 302 467 312 459 b 354 450 329 452 341 450 b 403 456 366 450 388 453 b 450 469 419 459 439 466 b 487 494 464 475 474 481 b 514 526 497 505 509 519 b 542 544 521 537 526 540 b 568 558 552 547 563 553 b 575 583 573 564 575 569 b 570 609 575 593 573 605 b 557 621 568 614 562 619 b 528 626 553 624 540 626 b 499 618 509 626 506 624 b 491 598 493 612 491 606 b 495 569 491 591 493 578 b 492 534 500 551 500 550 b 472 507 488 525 479 513 b 449 492 467 503 456 495 b 408 479 443 489 424 482 b 359 471 392 475 370 471 b 329 475 348 471 334 473 b 312 490 323 478 316 484 b 299 533 309 495 303 515 b 294 605 295 556 294 578 b 303 659 294 639 295 644 b 322 685 307 668 316 680 b 354 705 328 691 343 700 b 406 725 366 710 389 719 l 437 735 l 508 735 b 632 723 580 735 580 735 l 717 703 b 799 693 740 697 764 694 b 863 686 827 691 856 688 b 904 669 870 684 889 676 b 953 649 919 661 942 653 b 1006 644 965 646 987 644 b 1054 650 1032 644 1041 644 b 1089 675 1062 654 1077 665 b 1119 693 1105 689 1112 693 b 1147 683 1125 693 1138 689 b 1178 673 1157 678 1170 674 b 1196 681 1186 673 1191 675 b 1203 712 1202 689 1203 694 b 1199 742 1203 724 1201 738 b 1190 752 1197 745 1193 750 b 1169 756 1187 755 1178 756 b 1143 752 1161 756 1149 755 b 1121 735 1137 749 1127 742 l 1087 702 b 1049 672 1075 690 1057 676 b 1009 664 1035 666 1028 664 b 965 669 997 664 977 666 b 920 684 953 671 933 678 l 880 703 b 811 712 867 707 851 710 b 706 728 769 714 750 718 l 622 746 l 570 756 b 504 759 558 758 528 759 m 803 613 b 761 598 794 613 781 608 b 719 574 746 590 727 580 b 697 555 713 569 702 561 b 663 514 692 549 676 531 b 623 450 648 495 633 470 b 601 409 615 431 604 413 b 579 400 596 406 588 402 b 558 393 571 399 562 395 b 552 371 555 388 553 381 b 549 348 552 363 551 353 b 539 334 548 344 544 338 b 507 333 531 329 530 329 b 449 337 490 338 476 339 b 367 323 421 336 404 333 b 307 309 341 316 314 309 b 279 318 301 309 288 313 b 251 326 269 322 256 326 b 235 324 245 326 238 325 b 226 313 232 322 228 318 b 220 284 223 307 220 295 b 224 257 220 274 222 262 b 239 244 226 253 232 247 b 264 240 246 240 253 239 b 288 249 274 242 282 244 b 304 269 293 254 300 262 b 319 285 308 276 315 283 b 375 304 323 288 348 296 b 458 318 417 315 429 317 b 507 312 484 318 495 317 b 526 295 519 307 523 304 b 527 267 529 288 529 280 b 517 236 525 257 520 244 b 490 209 512 229 502 218 b 465 188 479 201 468 192 b 457 156 463 184 459 170 b 444 107 456 141 451 124 b 423 62 438 93 429 72 b 378 -10 418 52 397 19 b 323 -84 358 -39 333 -72 b 288 -126 312 -96 296 -116 b 251 -163 280 -137 263 -154 l 208 -198 b 169 -226 196 -208 179 -220 b 126 -245 159 -231 140 -240 b 75 -260 112 -250 89 -257 b 8 -264 56 -264 37 -265 b -43 -254 -31 -263 -32 -263 b -64 -208 -50 -246 -56 -236 b -75 -166 -70 -189 -75 -169 b -69 -147 -75 -161 -72 -154 b -44 -128 -65 -141 -56 -133 b -20 -112 -32 -122 -22 -115 b -17 -95 -19 -108 -17 -101 b -25 -78 -17 -90 -19 -82 b -46 -70 -31 -72 -36 -70 b -73 -77 -54 -70 -66 -73 b -108 -99 -81 -80 -96 -90 b -137 -125 -120 -107 -133 -119 b -144 -147 -141 -131 -144 -141 b -136 -165 -144 -155 -142 -160 b -116 -175 -132 -169 -123 -173 b -97 -184 -108 -177 -100 -181 b -81 -222 -94 -187 -88 -205 b -59 -268 -74 -249 -69 -257 b -34 -283 -53 -274 -42 -281 b 8 -287 -27 -285 -8 -287 b 61 -284 24 -287 48 -285 b 112 -272 75 -281 97 -277 b 168 -250 126 -268 151 -257 b 217 -219 186 -241 205 -230 b 258 -184 227 -210 245 -194 b 295 -151 271 -174 288 -159 l 335 -104 b 394 -25 349 -86 376 -51 b 437 43 411 1 431 31 l 460 91 b 478 127 467 107 475 123 b 497 137 481 131 490 135 b 519 150 504 139 514 145 b 536 183 526 156 531 168 l 548 220 b 563 250 551 229 558 242 b 577 279 569 258 574 271 b 585 301 579 286 583 296 b 598 315 587 306 594 312 b 634 313 606 319 610 319 b 731 307 659 306 666 306 b 832 317 783 309 809 312 l 878 325 b 910 318 889 326 896 324 b 940 309 919 314 933 309 b 957 312 946 309 955 310 b 967 323 960 313 965 318 b 972 349 969 328 972 340 b 968 375 972 359 970 370 b 956 388 966 380 960 385 b 931 393 950 391 939 393 b 904 381 918 393 914 391 b 886 359 897 374 890 364 b 872 347 882 355 877 349 l 834 338 b 741 329 815 334 782 331 b 653 331 687 326 673 326 b 620 341 640 333 625 338 b 609 360 616 344 611 352 b 614 387 607 370 608 375 l 630 417 b 646 450 634 426 643 440 b 679 499 651 459 665 481 b 717 544 693 517 709 537 b 761 574 724 551 744 565 b 804 591 782 585 795 591 b 835 582 810 591 825 587 b 869 574 846 578 861 574 b 887 580 878 574 884 577 b 889 592 890 581 891 587 b 881 601 888 596 884 600 b 845 607 879 602 862 606 b 803 613 830 610 810 613 "},"G":{"ha":861,"x_min":0,"x_max":0,"o":"m 508 831 b 527 823 514 830 522 827 b 539 810 531 820 537 815 b 544 787 542 806 544 795 b 535 760 544 776 542 769 b 519 747 531 755 524 749 b 487 751 512 744 505 745 b 448 756 469 756 459 758 b 406 746 439 756 420 751 b 361 725 394 741 372 731 b 317 694 349 719 330 705 b 283 658 305 682 289 667 b 270 633 278 650 272 639 b 273 601 269 627 269 617 l 278 578 l 264 552 l 249 525 l 254 505 b 264 471 256 493 260 478 b 280 454 268 466 275 457 b 314 437 285 450 301 443 b 348 431 333 430 340 429 b 369 448 356 432 362 438 b 406 488 375 456 391 474 b 445 532 420 503 438 522 b 472 562 454 543 465 556 l 521 602 b 595 654 542 618 575 642 b 670 694 616 667 650 685 b 749 722 691 704 727 716 b 821 738 772 729 805 735 b 867 741 840 742 857 743 b 894 732 875 740 887 736 b 911 715 899 729 907 720 b 923 687 916 709 920 696 b 931 661 925 677 929 666 b 954 646 934 656 942 651 b 978 632 965 643 975 636 b 982 614 980 629 982 620 b 974 594 982 606 980 600 b 948 582 970 591 958 585 b 920 568 935 579 927 574 b 913 555 916 563 913 556 b 900 532 913 553 906 543 b 874 502 893 522 881 508 b 831 471 867 495 847 481 b 769 438 815 462 787 446 b 706 411 752 430 723 418 l 634 391 b 542 375 613 386 571 379 b 448 370 504 370 477 369 b 388 380 415 371 406 373 b 358 386 374 385 364 387 b 344 377 354 385 347 381 b 328 338 343 373 334 356 b 316 264 317 307 316 304 b 301 188 315 222 315 221 b 287 147 294 169 287 152 b 299 99 287 144 293 121 b 317 48 305 76 313 54 b 333 32 319 44 327 36 b 385 26 344 27 350 26 b 455 31 407 26 438 28 b 501 40 470 32 492 37 b 553 73 512 44 531 56 b 594 108 572 88 591 104 b 605 142 597 113 602 128 b 615 177 607 156 612 171 b 628 193 618 181 623 189 b 654 207 631 196 644 203 b 680 221 665 213 676 219 b 688 244 683 225 687 233 b 697 269 690 256 693 265 b 718 276 702 274 708 276 b 744 272 725 276 737 274 b 765 262 751 270 760 266 b 773 244 770 257 773 251 b 764 225 773 236 770 231 l 746 211 b 736 173 739 206 738 203 b 727 127 734 151 731 136 b 706 97 723 119 714 106 b 684 69 697 89 688 76 b 671 40 681 63 675 49 b 654 1 668 31 660 13 l 619 -58 b 574 -120 605 -79 585 -107 b 522 -178 564 -134 540 -159 b 469 -223 504 -194 480 -216 b 423 -249 457 -231 437 -243 b 377 -268 410 -256 389 -264 b 333 -279 365 -271 345 -277 b 267 -285 321 -281 292 -284 b 205 -282 229 -287 219 -286 b 176 -265 193 -279 184 -273 b 155 -222 169 -256 162 -243 b 136 -185 148 -204 141 -189 b 113 -172 132 -181 122 -176 b 94 -159 105 -169 96 -163 b 92 -142 92 -155 91 -147 b 103 -119 94 -135 98 -126 b 133 -97 107 -114 121 -104 b 171 -80 145 -90 163 -82 b 199 -77 181 -76 192 -75 b 219 -87 206 -78 215 -82 b 227 -105 224 -92 227 -98 b 222 -120 227 -109 225 -117 b 197 -134 219 -124 207 -131 b 169 -150 185 -139 173 -145 b 160 -168 164 -156 160 -163 b 173 -208 160 -171 166 -191 b 190 -248 180 -227 187 -244 b 206 -259 193 -252 199 -256 b 253 -265 214 -264 227 -265 b 318 -260 273 -265 302 -263 l 369 -248 b 415 -231 382 -244 403 -236 b 459 -204 426 -225 446 -213 b 510 -159 473 -194 495 -174 b 555 -110 525 -144 545 -122 b 591 -60 565 -98 581 -76 b 627 -3 602 -44 617 -19 b 651 48 636 14 646 36 b 665 81 656 60 661 75 b 687 109 668 86 678 99 b 708 137 696 119 706 131 b 713 167 710 144 713 156 b 707 192 713 178 711 187 b 693 198 705 196 699 198 b 663 189 687 198 674 194 b 637 170 651 183 641 176 b 627 137 633 165 629 150 b 615 100 624 122 619 108 b 565 56 608 91 592 76 b 501 19 530 30 519 23 b 450 9 488 15 466 11 b 381 6 435 7 404 6 b 329 12 350 6 339 7 b 306 28 321 15 311 22 b 292 48 300 33 294 43 b 279 90 290 53 283 72 b 266 131 274 107 268 126 b 247 146 263 135 255 143 b 229 162 240 150 231 157 b 224 189 226 167 224 179 b 232 232 224 200 227 217 b 251 269 237 245 244 262 b 275 290 256 276 267 285 b 293 305 282 294 291 301 l 312 355 b 322 406 327 396 328 398 b 295 422 319 410 307 418 b 262 441 283 428 269 436 b 244 462 256 446 247 456 b 234 491 241 469 236 481 b 229 516 231 500 230 511 b 210 537 228 519 219 530 b 191 564 198 547 193 555 b 191 588 189 570 189 581 b 198 606 192 594 195 603 b 224 624 201 610 212 618 b 256 656 243 633 246 638 b 280 689 263 667 274 681 b 316 720 286 696 302 710 b 367 751 330 731 353 744 l 406 768 b 434 778 412 769 426 774 b 460 801 448 782 452 786 b 475 823 466 811 471 820 b 489 830 478 825 483 828 b 508 831 494 831 503 831 m 850 720 b 781 708 839 720 809 715 b 701 685 754 702 718 692 b 656 665 685 679 665 669 b 606 635 648 661 626 647 b 526 579 587 623 551 598 b 467 524 496 556 476 537 b 422 475 458 513 438 491 b 385 432 406 459 389 440 b 382 412 381 422 380 418 b 398 399 384 407 392 402 b 432 390 406 396 420 392 b 507 393 448 387 465 388 b 596 404 537 395 577 400 b 675 424 616 407 651 417 b 748 451 699 431 732 444 b 809 483 765 459 793 473 b 859 519 827 493 849 509 b 889 556 869 528 883 544 b 903 618 899 574 900 579 b 903 677 906 649 906 664 b 894 703 900 686 896 698 b 880 716 892 707 884 713 b 850 720 874 719 861 720 "},"g":{"ha":861,"x_min":0,"x_max":0,"o":"m 508 831 b 489 830 503 831 494 831 b 475 823 483 828 478 825 b 460 801 471 820 466 811 b 434 778 452 786 448 782 b 406 768 426 774 412 769 l 367 751 b 316 720 353 744 330 731 b 280 689 302 710 286 696 b 256 656 274 681 263 667 b 224 624 246 638 243 633 b 198 606 212 618 201 610 b 191 588 195 603 192 594 b 191 564 189 581 189 570 b 210 537 193 555 198 547 b 229 516 219 530 228 519 b 234 491 230 511 231 500 b 244 462 236 481 241 469 b 262 441 247 456 256 446 b 295 422 269 436 283 428 b 322 406 307 418 319 410 b 312 355 328 398 327 396 l 293 305 b 275 290 291 301 282 294 b 251 269 267 285 256 276 b 232 232 244 262 237 245 b 224 189 227 217 224 200 b 229 162 224 179 226 167 b 247 146 231 157 240 150 b 266 131 255 143 263 135 b 279 90 268 126 274 107 b 292 48 283 72 290 53 b 306 28 294 43 300 33 b 329 12 311 22 321 15 b 381 6 339 7 350 6 b 450 9 404 6 435 7 b 501 19 466 11 488 15 b 565 56 519 23 530 30 b 615 100 592 76 608 91 b 627 137 619 108 624 122 b 637 170 629 150 633 165 b 663 189 641 176 651 183 b 693 198 674 194 687 198 b 707 192 699 198 705 196 b 713 167 711 187 713 178 b 708 137 713 156 710 144 b 687 109 706 131 696 119 b 665 81 678 99 668 86 b 651 48 661 75 656 60 b 627 -3 646 36 636 14 b 591 -60 617 -19 602 -44 b 555 -110 581 -76 565 -98 b 510 -159 545 -122 525 -144 b 459 -204 495 -174 473 -194 b 415 -231 446 -213 426 -225 b 369 -248 403 -236 382 -244 l 318 -260 b 253 -265 302 -263 273 -265 b 206 -259 227 -265 214 -264 b 190 -248 199 -256 193 -252 b 173 -208 187 -244 180 -227 b 160 -168 166 -191 160 -171 b 169 -150 160 -163 164 -156 b 197 -134 173 -145 185 -139 b 222 -120 207 -131 219 -124 b 227 -105 225 -117 227 -109 b 219 -87 227 -98 224 -92 b 199 -77 215 -82 206 -78 b 171 -80 192 -75 181 -76 b 133 -97 163 -82 145 -90 b 103 -119 121 -104 107 -114 b 92 -142 98 -126 94 -135 b 94 -159 91 -147 92 -155 b 113 -172 96 -163 105 -169 b 136 -185 122 -176 132 -181 b 155 -222 141 -189 148 -204 b 176 -265 162 -243 169 -256 b 205 -282 184 -273 193 -279 b 267 -285 219 -286 229 -287 b 333 -279 292 -284 321 -281 b 377 -268 345 -277 365 -271 b 423 -249 389 -264 410 -256 b 469 -223 437 -243 457 -231 b 522 -178 480 -216 504 -194 b 574 -120 540 -159 564 -134 b 619 -58 585 -107 605 -79 l 654 1 b 671 40 660 13 668 31 b 684 69 675 49 681 63 b 706 97 688 76 697 89 b 727 127 714 106 723 119 b 736 173 731 136 734 151 b 746 211 738 203 739 206 l 764 225 b 773 244 770 231 773 236 b 765 262 773 251 770 257 b 744 272 760 266 751 270 b 718 276 737 274 725 276 b 697 269 708 276 702 274 b 688 244 693 265 690 256 b 680 221 687 233 683 225 b 654 207 676 219 665 213 b 628 193 644 203 631 196 b 615 177 623 189 618 181 b 605 142 612 171 607 156 b 594 108 602 128 597 113 b 553 73 591 104 572 88 b 501 40 531 56 512 44 b 455 31 492 37 470 32 b 385 26 438 28 407 26 b 333 32 350 26 344 27 b 317 48 327 36 319 44 b 299 99 313 54 305 76 b 287 147 293 121 287 144 b 301 188 287 152 294 169 b 316 264 315 221 315 222 b 328 338 316 304 317 307 b 344 377 334 356 343 373 b 358 386 347 381 354 385 b 388 380 364 387 374 385 b 448 370 406 373 415 371 b 542 375 477 369 504 370 b 634 391 571 379 613 386 l 706 411 b 769 438 723 418 752 430 b 831 471 787 446 815 462 b 874 502 847 481 867 495 b 900 532 881 508 893 522 b 913 555 906 543 913 553 b 920 568 913 556 916 563 b 948 582 927 574 935 579 b 974 594 958 585 970 591 b 982 614 980 600 982 606 b 978 632 982 620 980 629 b 954 646 975 636 965 643 b 931 661 942 651 934 656 b 923 687 929 666 925 677 b 911 715 920 696 916 709 b 894 732 907 720 899 729 b 867 741 887 736 875 740 b 821 738 857 743 840 742 b 749 722 805 735 772 729 b 670 694 727 716 691 704 b 595 654 650 685 616 667 b 521 602 575 642 542 618 l 472 562 b 445 532 465 556 454 543 b 406 488 438 522 420 503 b 369 448 391 474 375 456 b 348 431 362 438 356 432 b 314 437 340 429 333 430 b 280 454 301 443 285 450 b 264 471 275 457 268 466 b 254 505 260 478 256 493 l 249 525 l 264 552 l 278 578 l 273 601 b 270 633 269 617 269 627 b 283 658 272 639 278 650 b 317 694 289 667 305 682 b 361 725 330 705 349 719 b 406 746 372 731 394 741 b 448 756 420 751 439 756 b 487 751 459 758 469 756 b 519 747 505 745 512 744 b 535 760 524 749 531 755 b 544 787 542 769 544 776 b 539 810 544 795 542 806 b 527 823 537 815 531 820 b 508 831 522 827 514 830 m 850 720 b 880 716 861 720 874 719 b 894 703 884 713 892 707 b 903 677 896 698 900 686 b 903 618 906 664 906 649 b 889 556 900 579 899 574 b 859 519 883 544 869 528 b 809 483 849 509 827 493 b 748 451 793 473 765 459 b 675 424 732 444 699 431 b 596 404 651 417 616 407 b 507 393 577 400 537 395 b 432 390 465 388 448 387 b 398 399 420 392 406 396 b 382 412 392 402 384 407 b 385 432 380 418 381 422 b 422 475 389 440 406 459 b 467 524 438 491 458 513 b 526 579 476 537 496 556 b 606 635 551 598 587 623 b 656 665 626 647 648 661 b 701 685 665 669 685 679 b 781 708 718 692 754 702 b 850 720 809 715 839 720 "},"H":{"ha":1081,"x_min":0,"x_max":0,"o":"m 1163 749 b 1184 743 1169 748 1179 745 b 1197 730 1189 741 1194 734 b 1201 703 1199 724 1201 712 b 1194 678 1201 691 1199 683 b 1180 667 1192 673 1184 669 b 1150 668 1174 665 1164 665 b 1118 666 1131 670 1127 670 b 1093 649 1112 664 1100 656 b 1044 598 1084 642 1062 619 b 997 536 1023 575 1005 551 b 973 502 991 523 980 508 b 950 485 967 496 956 489 b 931 473 944 482 935 477 b 919 458 927 469 922 463 b 912 435 917 454 914 444 b 916 415 910 423 911 419 b 940 409 920 410 926 409 b 988 415 949 409 971 412 b 1053 422 1005 419 1033 421 l 1094 426 b 1119 444 1098 427 1109 435 b 1154 461 1137 459 1141 461 b 1178 452 1166 461 1170 459 b 1188 431 1185 445 1187 440 b 1187 410 1188 425 1188 416 b 1182 393 1187 406 1185 397 b 1171 381 1180 388 1175 383 b 1154 379 1169 380 1160 379 b 1118 391 1145 379 1133 382 l 1094 404 l 1055 402 b 983 394 1032 401 1002 397 b 925 389 957 388 945 387 b 893 386 905 390 898 390 b 881 358 888 383 884 375 b 864 323 876 340 872 332 b 839 304 857 317 846 308 b 815 285 831 300 820 292 b 798 256 810 280 803 267 b 779 217 794 244 786 227 b 750 165 771 206 758 182 l 717 99 b 698 51 703 73 698 62 b 706 29 698 41 701 34 b 733 19 713 20 717 19 b 775 31 748 20 756 22 b 811 56 788 38 804 49 b 844 106 819 63 831 80 b 873 151 857 131 866 145 l 894 164 b 924 169 902 167 913 169 b 951 162 940 169 944 168 b 962 139 956 157 960 148 b 962 111 964 130 964 119 b 954 95 961 105 956 97 b 938 92 951 94 944 92 b 909 97 932 92 919 94 b 881 104 899 101 886 104 b 866 97 877 104 869 101 b 851 74 862 94 856 83 b 826 41 846 64 834 49 b 781 12 816 31 800 20 b 735 -1 759 2 751 0 b 703 5 721 -1 711 1 b 683 25 694 9 688 16 b 677 56 677 35 676 42 b 694 103 679 69 682 81 b 724 162 704 119 717 145 b 754 216 731 178 744 202 b 779 263 762 228 773 250 b 795 296 784 276 792 292 b 825 319 799 302 812 312 b 851 340 836 327 849 336 b 859 360 854 344 857 353 b 861 382 862 369 862 379 b 848 394 860 388 856 391 b 827 394 842 394 832 395 b 792 381 820 393 805 387 b 747 371 772 373 764 371 b 697 384 729 371 721 373 l 669 397 l 660 392 b 646 372 656 388 649 380 b 641 335 644 364 641 349 b 636 306 641 320 639 310 b 616 294 633 303 624 297 b 587 275 606 291 595 284 b 550 219 579 267 564 244 b 507 156 532 186 522 171 b 475 118 496 144 482 128 b 453 89 469 107 458 94 b 423 66 447 83 434 73 l 389 42 b 356 22 380 35 365 27 b 318 7 347 18 330 11 b 269 -5 306 4 284 -2 b 219 -9 256 -7 233 -9 b 182 -4 203 -9 191 -7 b 160 12 175 0 166 6 b 147 37 156 18 150 29 b 143 57 144 46 143 55 b 137 70 143 59 140 65 b 110 87 134 77 127 81 b 82 103 96 92 85 98 b 77 124 79 107 77 116 b 82 145 77 131 80 141 b 99 157 85 149 93 155 b 128 162 105 160 119 162 b 159 158 138 162 152 160 b 180 147 166 156 175 151 b 187 131 184 143 187 137 b 174 102 187 123 183 114 b 163 66 161 84 161 83 b 170 35 164 56 168 43 b 188 16 175 27 181 19 b 222 11 195 12 205 10 b 272 17 236 11 258 14 b 320 30 287 19 308 26 b 358 47 333 33 350 42 b 406 79 367 52 388 67 b 453 122 433 97 442 106 b 489 167 461 134 477 154 b 531 226 506 183 515 197 b 565 282 541 247 556 272 b 581 307 573 293 581 304 b 581 325 582 311 582 319 b 571 342 581 331 576 338 b 549 351 567 345 556 349 b 520 353 543 353 530 354 b 481 342 512 352 494 346 b 404 324 467 337 432 329 b 337 309 376 319 345 312 b 309 288 325 306 319 301 b 287 267 303 279 292 269 b 266 262 281 265 272 262 b 245 267 259 262 251 264 b 232 279 241 269 235 275 b 229 308 231 283 229 296 b 237 337 229 327 230 331 b 258 344 243 343 248 344 b 287 338 267 344 279 342 b 310 330 295 334 306 331 b 338 331 316 328 326 329 l 399 344 b 476 362 423 348 457 356 b 530 372 499 369 514 372 b 573 364 544 372 557 369 b 606 358 591 357 598 356 b 634 394 615 361 619 366 b 676 459 644 413 663 442 b 732 525 689 477 715 506 b 768 566 751 544 767 561 b 765 581 769 571 768 576 b 749 590 762 585 756 589 l 709 594 b 660 603 686 594 675 596 b 629 623 651 606 636 617 b 589 664 620 631 603 649 b 548 699 573 681 558 694 b 514 709 540 704 525 708 b 469 708 503 710 483 710 b 418 695 456 706 432 701 l 379 682 b 349 666 371 679 358 672 b 323 643 340 660 328 650 l 314 629 l 314 569 b 320 496 315 521 316 506 b 335 481 323 490 329 483 b 374 477 344 476 352 475 b 417 485 392 478 406 481 b 459 513 426 488 444 501 b 496 549 474 525 491 542 b 516 571 501 557 510 568 b 547 576 525 576 531 577 b 575 567 565 575 569 573 b 582 547 580 561 582 554 b 580 529 582 543 581 533 b 569 513 577 524 573 517 b 554 503 565 509 558 505 b 525 506 548 501 541 502 b 495 512 512 510 500 513 b 467 493 491 510 479 502 b 433 469 456 483 441 472 b 400 459 427 466 412 461 b 361 455 388 456 370 455 b 331 460 351 455 338 457 b 310 473 323 464 314 469 b 300 490 306 477 302 484 b 294 519 298 494 295 507 b 286 545 292 531 288 544 b 265 557 284 548 274 553 b 244 570 256 561 245 567 b 239 586 241 573 239 580 b 244 606 239 592 242 601 b 269 622 249 613 256 618 b 295 641 281 626 288 631 l 318 668 b 357 694 325 676 339 685 b 418 718 372 701 399 712 b 494 728 447 727 452 728 b 557 719 539 728 540 728 b 612 669 569 711 586 697 b 665 623 638 642 653 629 b 719 613 678 617 688 615 b 765 608 741 612 761 609 b 781 608 769 607 776 607 b 810 630 785 609 799 619 l 847 660 b 873 691 856 668 867 680 b 893 715 879 701 887 711 b 917 722 896 719 908 721 b 943 720 927 723 938 722 b 957 708 948 718 955 712 b 963 689 959 704 962 695 b 962 667 964 683 964 673 b 953 649 961 659 956 652 b 936 644 949 646 941 644 b 905 650 931 644 917 646 b 872 652 884 656 881 656 b 836 624 867 649 851 636 b 804 589 819 609 807 597 l 793 564 b 758 522 790 556 774 538 b 713 473 743 506 722 484 b 691 444 704 462 694 449 b 686 426 688 438 686 431 b 692 412 686 421 689 415 b 712 399 695 409 705 403 b 747 393 722 394 731 393 b 794 404 764 393 772 394 b 846 415 819 414 823 415 b 878 416 859 414 874 415 b 888 427 881 417 886 422 b 894 447 890 431 892 440 b 901 470 894 454 898 464 b 918 490 905 476 912 485 l 940 504 b 959 518 946 506 955 513 b 980 548 964 522 973 536 b 1023 606 986 561 1005 585 b 1074 659 1041 626 1063 650 l 1103 684 b 1117 710 1110 690 1114 697 b 1125 735 1119 720 1122 731 b 1141 746 1128 739 1135 744 b 1163 749 1146 749 1156 750 "},"h":{"ha":1081,"x_min":0,"x_max":0,"o":"m 1163 749 b 1141 746 1156 750 1146 749 b 1125 735 1135 744 1128 739 b 1117 710 1122 731 1119 720 b 1103 684 1114 697 1110 690 l 1074 659 b 1023 606 1063 650 1041 626 b 980 548 1005 585 986 561 b 959 518 973 536 964 522 b 940 504 955 513 946 506 l 918 490 b 901 470 912 485 905 476 b 894 447 898 464 894 454 b 888 427 892 440 890 431 b 878 416 886 422 881 417 b 846 415 874 415 859 414 b 794 404 823 415 819 414 b 747 393 772 394 764 393 b 712 399 731 393 722 394 b 692 412 705 403 695 409 b 686 426 689 415 686 421 b 691 444 686 431 688 438 b 713 473 694 449 704 462 b 758 522 722 484 743 506 b 793 564 774 538 790 556 l 804 589 b 836 624 807 597 819 609 b 872 652 851 636 867 649 b 905 650 881 656 884 656 b 936 644 917 646 931 644 b 953 649 941 644 949 646 b 962 667 956 652 961 659 b 963 689 964 673 964 683 b 957 708 962 695 959 704 b 943 720 955 712 948 718 b 917 722 938 722 927 723 b 893 715 908 721 896 719 b 873 691 887 711 879 701 b 847 660 867 680 856 668 l 810 630 b 781 608 799 619 785 609 b 765 608 776 607 769 607 b 719 613 761 609 741 612 b 665 623 688 615 678 617 b 612 669 653 629 638 642 b 557 719 586 697 569 711 b 494 728 540 728 539 728 b 418 718 452 728 447 727 b 357 694 399 712 372 701 b 318 668 339 685 325 676 l 295 641 b 269 622 288 631 281 626 b 244 606 256 618 249 613 b 239 586 242 601 239 592 b 244 570 239 580 241 573 b 265 557 245 567 256 561 b 286 545 274 553 284 548 b 294 519 288 544 292 531 b 300 490 295 507 298 494 b 310 473 302 484 306 477 b 331 460 314 469 323 464 b 361 455 338 457 351 455 b 400 459 370 455 388 456 b 433 469 412 461 427 466 b 467 493 441 472 456 483 b 495 512 479 502 491 510 b 525 506 500 513 512 510 b 554 503 541 502 548 501 b 569 513 558 505 565 509 b 580 529 573 517 577 524 b 582 547 581 533 582 543 b 575 567 582 554 580 561 b 547 576 569 573 565 575 b 516 571 531 577 525 576 b 496 549 510 568 501 557 b 459 513 491 542 474 525 b 417 485 444 501 426 488 b 374 477 406 481 392 478 b 335 481 352 475 344 476 b 320 496 329 483 323 490 b 314 569 316 506 315 521 l 314 629 l 323 643 b 349 666 328 650 340 660 b 379 682 358 672 371 679 l 418 695 b 469 708 432 701 456 706 b 514 709 483 710 503 710 b 548 699 525 708 540 704 b 589 664 558 694 573 681 b 629 623 603 649 620 631 b 660 603 636 617 651 606 b 709 594 675 596 686 594 l 749 590 b 765 581 756 589 762 585 b 768 566 768 576 769 571 b 732 525 767 561 751 544 b 676 459 715 506 689 477 b 634 394 663 442 644 413 b 606 358 619 366 615 361 b 573 364 598 356 591 357 b 530 372 557 369 544 372 b 476 362 514 372 499 369 b 399 344 457 356 423 348 l 338 331 b 310 330 326 329 316 328 b 287 338 306 331 295 334 b 258 344 279 342 267 344 b 237 337 248 344 243 343 b 229 308 230 331 229 327 b 232 279 229 296 231 283 b 245 267 235 275 241 269 b 266 262 251 264 259 262 b 287 267 272 262 281 265 b 309 288 292 269 303 279 b 337 309 319 301 325 306 b 404 324 345 312 376 319 b 481 342 432 329 467 337 b 520 353 494 346 512 352 b 549 351 530 354 543 353 b 571 342 556 349 567 345 b 581 325 576 338 581 331 b 581 307 582 319 582 311 b 565 282 581 304 573 293 b 531 226 556 272 541 247 b 489 167 515 197 506 183 b 453 122 477 154 461 134 b 406 79 442 106 433 97 b 358 47 388 67 367 52 b 320 30 350 42 333 33 b 272 17 308 26 287 19 b 222 11 258 14 236 11 b 188 16 205 10 195 12 b 170 35 181 19 175 27 b 163 66 168 43 164 56 b 174 102 161 83 161 84 b 187 131 183 114 187 123 b 180 147 187 137 184 143 b 159 158 175 151 166 156 b 128 162 152 160 138 162 b 99 157 119 162 105 160 b 82 145 93 155 85 149 b 77 124 80 141 77 131 b 82 103 77 116 79 107 b 110 87 85 98 96 92 b 137 70 127 81 134 77 b 143 57 140 65 143 59 b 147 37 143 55 144 46 b 160 12 150 29 156 18 b 182 -4 166 6 175 0 b 219 -9 191 -7 203 -9 b 269 -5 233 -9 256 -7 b 318 7 284 -2 306 4 b 356 22 330 11 347 18 b 389 42 365 27 380 35 l 423 66 b 453 89 434 73 447 83 b 475 118 458 94 469 107 b 507 156 482 128 496 144 b 550 219 522 171 532 186 b 587 275 564 244 579 267 b 616 294 595 284 606 291 b 636 306 624 297 633 303 b 641 335 639 310 641 320 b 646 372 641 349 644 364 b 660 392 649 380 656 388 l 669 397 l 697 384 b 747 371 721 373 729 371 b 792 381 764 371 772 373 b 827 394 805 387 820 393 b 848 394 832 395 842 394 b 861 382 856 391 860 388 b 859 360 862 379 862 369 b 851 340 857 353 854 344 b 825 319 849 336 836 327 b 795 296 812 312 799 302 b 779 263 792 292 784 276 b 754 216 773 250 762 228 b 724 162 744 202 731 178 b 694 103 717 145 704 119 b 677 56 682 81 679 69 b 683 25 676 42 677 35 b 703 5 688 16 694 9 b 735 -1 711 1 721 -1 b 781 12 751 0 759 2 b 826 41 800 20 816 31 b 851 74 834 49 846 64 b 866 97 856 83 862 94 b 881 104 869 101 877 104 b 909 97 886 104 899 101 b 938 92 919 94 932 92 b 954 95 944 92 951 94 b 962 111 956 97 961 105 b 962 139 964 119 964 130 b 951 162 960 148 956 157 b 924 169 944 168 940 169 b 894 164 913 169 902 167 l 873 151 b 844 106 866 145 857 131 b 811 56 831 80 819 63 b 775 31 804 49 788 38 b 733 19 756 22 748 20 b 706 29 717 19 713 20 b 698 51 701 34 698 41 b 717 99 698 62 703 73 l 750 165 b 779 217 758 182 771 206 b 798 256 786 227 794 244 b 815 285 803 267 810 280 b 839 304 820 292 831 300 b 864 323 846 308 857 317 b 881 358 872 332 876 340 b 893 386 884 375 888 383 b 925 389 898 390 905 390 b 983 394 945 387 957 388 b 1055 402 1002 397 1032 401 l 1094 404 l 1118 391 b 1154 379 1133 382 1145 379 b 1171 381 1160 379 1169 380 b 1182 393 1175 383 1180 388 b 1187 410 1185 397 1187 406 b 1188 431 1188 416 1188 425 b 1178 452 1187 440 1185 445 b 1154 461 1170 459 1166 461 b 1119 444 1141 461 1137 459 b 1094 426 1109 435 1098 427 l 1053 422 b 988 415 1033 421 1005 419 b 940 409 971 412 949 409 b 916 415 926 409 920 410 b 912 435 911 419 910 423 b 919 458 914 444 917 454 b 931 473 922 463 927 469 b 950 485 935 477 944 482 b 973 502 956 489 967 496 b 997 536 980 508 991 523 b 1044 598 1005 551 1023 575 b 1093 649 1062 619 1084 642 b 1118 666 1100 656 1112 664 b 1150 668 1127 670 1131 670 b 1180 667 1164 665 1174 665 b 1194 678 1184 669 1192 673 b 1201 703 1199 683 1201 691 b 1197 730 1201 712 1199 724 b 1184 743 1194 734 1189 741 b 1163 749 1179 745 1169 748 "},"I":{"ha":800,"x_min":0,"x_max":0,"o":"m 547 751 b 597 742 575 750 584 748 b 627 722 606 738 619 729 l 670 677 b 713 636 686 658 706 640 b 746 629 723 631 731 629 b 791 632 757 629 778 631 b 834 645 804 635 824 641 b 875 656 845 650 864 655 b 906 665 887 658 901 663 b 919 676 910 668 916 672 b 928 702 920 680 925 692 b 944 731 932 717 938 725 b 965 740 950 735 959 739 l 985 740 b 1003 735 991 739 999 737 b 1016 719 1006 733 1013 725 b 1019 686 1019 708 1020 698 b 1010 662 1019 672 1016 667 b 974 658 1003 656 999 656 b 934 655 951 659 944 659 b 918 638 928 652 920 644 b 908 608 914 631 910 619 b 895 581 906 596 901 587 b 869 564 890 574 879 568 b 838 536 855 559 851 556 b 795 469 829 524 810 494 b 751 395 781 443 761 410 b 716 340 740 381 725 356 b 670 262 707 324 687 289 b 615 178 655 235 629 197 b 550 105 599 157 571 125 b 494 55 530 84 504 62 b 454 31 484 47 466 36 b 403 9 442 24 419 15 b 346 -5 387 5 362 -2 b 287 -9 331 -7 305 -9 b 235 -6 270 -9 246 -7 b 199 7 221 -4 209 1 b 176 31 189 14 181 22 b 164 72 172 40 167 57 l 155 110 b 130 131 152 119 148 122 b 104 150 116 137 107 143 b 100 173 100 156 99 164 b 107 194 101 181 105 190 b 137 213 110 199 123 207 b 173 244 157 222 162 226 b 205 274 182 256 193 267 b 244 292 215 281 232 289 l 283 303 b 312 325 300 307 302 309 b 330 348 318 334 326 345 b 354 354 334 352 343 354 b 381 343 368 354 371 353 b 392 309 393 331 393 331 b 380 278 391 289 390 286 b 356 269 371 270 366 269 b 326 275 349 269 335 271 b 290 281 312 281 304 281 b 250 272 281 280 262 276 b 214 255 238 269 221 261 b 190 231 206 249 195 238 b 181 188 181 217 180 215 b 178 144 181 173 181 153 b 181 94 175 131 175 123 l 192 48 b 206 29 194 43 200 34 b 230 17 213 24 223 18 b 284 13 237 15 261 13 b 344 17 306 13 334 15 b 390 28 356 18 376 23 b 436 45 405 31 425 40 b 476 69 447 50 465 61 b 532 118 487 76 512 98 b 597 190 553 137 581 169 b 661 288 612 210 641 255 l 703 360 b 734 409 706 366 719 388 b 777 479 748 430 768 461 b 813 539 786 496 803 523 b 834 575 824 555 833 570 b 831 595 835 580 834 588 b 818 610 829 601 823 608 b 777 609 812 613 802 613 b 731 607 759 607 738 606 b 703 618 722 609 709 613 b 645 671 694 621 669 645 b 592 722 621 696 597 719 b 537 728 583 727 573 728 b 453 714 493 728 492 727 b 402 694 431 706 408 698 b 377 677 394 692 383 683 b 359 653 370 670 362 659 b 355 582 355 642 354 630 b 359 514 355 544 356 522 b 375 495 362 506 368 499 b 406 489 383 491 392 489 b 449 496 418 489 437 493 b 500 526 467 501 477 506 b 540 566 518 540 534 556 b 560 587 545 574 555 584 b 588 594 568 592 577 594 b 617 584 603 594 607 593 b 628 553 626 576 627 574 b 622 520 629 532 629 528 b 604 512 617 514 612 512 b 576 519 597 512 585 515 b 549 528 568 524 555 528 b 526 519 542 528 533 524 l 499 498 b 462 478 491 491 474 482 b 415 469 449 473 429 469 b 377 470 399 467 385 469 b 354 484 370 473 359 479 b 340 504 347 490 342 498 b 333 534 338 508 335 523 b 326 561 331 546 328 558 b 306 572 323 564 315 569 b 284 585 298 576 289 581 b 277 605 279 590 277 595 b 282 625 277 612 280 621 b 309 642 285 629 297 637 b 339 664 324 648 331 654 l 360 690 b 388 711 367 697 380 706 b 438 731 396 716 419 725 l 493 747 b 547 751 505 750 525 751 "},"i":{"ha":800,"x_min":0,"x_max":0,"o":"m 547 751 b 493 747 525 751 505 750 l 438 731 b 388 711 419 725 396 716 b 360 690 380 706 367 697 l 339 664 b 309 642 331 654 324 648 b 282 625 297 637 285 629 b 277 605 280 621 277 612 b 284 585 277 595 279 590 b 306 572 289 581 298 576 b 326 561 315 569 323 564 b 333 534 328 558 331 546 b 340 504 335 523 338 508 b 354 484 342 498 347 490 b 377 470 359 479 370 473 b 415 469 385 469 399 467 b 462 478 429 469 449 473 b 499 498 474 482 491 491 l 526 519 b 549 528 533 524 542 528 b 576 519 555 528 568 524 b 604 512 585 515 597 512 b 622 520 612 512 617 514 b 628 553 629 528 629 532 b 617 584 627 574 626 576 b 588 594 607 593 603 594 b 560 587 577 594 568 592 b 540 566 555 584 545 574 b 500 526 534 556 518 540 b 449 496 477 506 467 501 b 406 489 437 493 418 489 b 375 495 392 489 383 491 b 359 514 368 499 362 506 b 355 582 356 522 355 544 b 359 653 354 630 355 642 b 377 677 362 659 370 670 b 402 694 383 683 394 692 b 453 714 408 698 431 706 b 537 728 492 727 493 728 b 592 722 573 728 583 727 b 645 671 597 719 621 696 b 703 618 669 645 694 621 b 731 607 709 613 722 609 b 777 609 738 606 759 607 b 818 610 802 613 812 613 b 831 595 823 608 829 601 b 834 575 834 588 835 580 b 813 539 833 570 824 555 b 777 479 803 523 786 496 b 734 409 768 461 748 430 b 703 360 719 388 706 366 l 661 288 b 597 190 641 255 612 210 b 532 118 581 169 553 137 b 476 69 512 98 487 76 b 436 45 465 61 447 50 b 390 28 425 40 405 31 b 344 17 376 23 356 18 b 284 13 334 15 306 13 b 230 17 261 13 237 15 b 206 29 223 18 213 24 b 192 48 200 34 194 43 l 181 94 b 178 144 175 123 175 131 b 181 188 181 153 181 173 b 190 231 180 215 181 217 b 214 255 195 238 206 249 b 250 272 221 261 238 269 b 290 281 262 276 281 280 b 326 275 304 281 312 281 b 356 269 335 271 349 269 b 380 278 366 269 371 270 b 392 309 390 286 391 289 b 381 343 393 331 393 331 b 354 354 371 353 368 354 b 330 348 343 354 334 352 b 312 325 326 345 318 334 b 283 303 302 309 300 307 l 244 292 b 205 274 232 289 215 281 b 173 244 193 267 182 256 b 137 213 162 226 157 222 b 107 194 123 207 110 199 b 100 173 105 190 101 181 b 104 150 99 164 100 156 b 130 131 107 143 116 137 b 155 110 148 122 152 119 l 164 72 b 176 31 167 57 172 40 b 199 7 181 22 189 14 b 235 -6 209 1 221 -4 b 287 -9 246 -7 270 -9 b 346 -5 305 -9 331 -7 b 403 9 362 -2 387 5 b 454 31 419 15 442 24 b 494 55 466 36 484 47 b 550 105 504 62 530 84 b 615 178 571 125 599 157 b 670 262 629 197 655 235 b 716 340 687 289 707 324 b 751 395 725 356 740 381 b 795 469 761 410 781 443 b 838 536 810 494 829 524 b 869 564 851 556 855 559 b 895 581 879 568 890 574 b 908 608 901 587 906 596 b 918 638 910 619 914 631 b 934 655 920 644 928 652 b 974 658 944 659 951 659 b 1010 662 999 656 1003 656 b 1019 686 1016 667 1019 672 b 1016 719 1020 698 1019 708 b 1003 735 1013 725 1006 733 b 985 740 999 737 991 739 l 965 740 b 944 731 959 739 950 735 b 928 702 938 725 932 717 b 919 676 925 692 920 680 b 906 665 916 672 910 668 b 875 656 901 663 887 658 b 834 645 864 655 845 650 b 791 632 824 641 804 635 b 746 629 778 631 757 629 b 713 636 731 629 723 631 b 670 677 706 640 686 658 l 627 722 b 597 742 619 729 606 738 b 547 751 584 748 575 750 "},"J":{"ha":882,"x_min":0,"x_max":0,"o":"m 509 749 b 562 740 538 749 546 747 b 596 716 574 735 586 726 b 646 665 605 706 627 683 b 692 624 665 646 685 628 b 763 615 702 618 709 617 b 833 618 812 613 825 614 b 869 650 840 620 855 634 b 906 687 881 665 898 681 b 932 715 913 693 925 706 b 956 738 940 724 950 735 b 983 744 963 743 972 744 b 1008 736 997 744 1002 744 b 1019 712 1014 731 1017 722 b 1017 682 1019 702 1019 690 b 1006 666 1015 675 1010 668 b 990 663 1004 664 995 663 b 966 669 984 663 973 666 l 944 677 b 926 674 939 678 931 677 b 884 635 921 671 903 654 b 836 570 857 607 849 596 b 803 527 823 544 819 538 l 772 503 b 755 483 765 496 757 488 l 742 451 b 726 418 737 439 730 424 b 705 394 721 411 712 401 b 690 371 696 386 691 378 b 693 353 688 364 689 358 b 711 339 695 348 704 343 b 740 329 719 335 731 331 b 774 330 752 327 761 327 b 817 342 783 331 802 337 b 857 365 834 348 846 356 b 881 382 866 373 877 381 b 905 386 886 385 896 386 b 929 381 913 386 923 384 b 941 369 933 379 939 373 b 945 352 944 363 945 356 l 945 331 b 935 310 945 323 943 318 b 912 301 928 303 923 301 b 879 314 901 301 894 304 b 847 326 865 322 856 326 b 806 317 841 326 823 322 b 752 308 781 308 775 307 b 702 319 731 309 721 311 b 670 328 686 327 676 330 b 657 317 666 327 660 322 b 653 285 655 311 653 299 b 649 257 653 273 651 260 b 629 243 647 254 638 247 b 602 222 618 238 608 231 l 581 190 l 557 154 b 545 128 551 144 545 132 b 549 111 545 123 547 116 b 568 96 551 106 559 100 b 607 90 580 91 588 89 b 654 97 621 90 641 93 b 690 125 675 104 676 104 b 717 153 701 142 707 149 b 742 156 724 156 733 156 b 763 146 749 155 757 151 b 772 118 769 139 771 134 b 769 88 773 104 772 95 b 756 75 765 82 760 77 b 740 71 753 73 745 71 b 708 78 733 71 719 74 l 688 84 l 656 76 b 598 69 631 69 617 69 b 554 80 578 69 569 72 b 526 88 544 84 531 88 b 511 84 520 88 514 86 b 493 55 507 81 500 69 b 465 6 486 41 473 19 l 442 -29 b 414 -52 438 -34 425 -44 b 386 -71 403 -58 391 -68 b 366 -101 382 -74 373 -88 b 345 -133 359 -114 350 -129 b 317 -155 341 -138 328 -148 b 279 -184 306 -163 288 -175 l 244 -212 b 204 -236 236 -218 218 -230 b 156 -256 190 -244 169 -253 b 71 -276 143 -261 105 -269 b -11 -286 25 -285 6 -287 b -48 -276 -27 -285 -37 -282 b -70 -255 -56 -271 -66 -263 b -85 -210 -75 -247 -81 -227 b -95 -175 -89 -193 -94 -178 b -118 -165 -97 -173 -107 -169 b -143 -151 -129 -161 -140 -155 b -147 -132 -145 -147 -147 -139 b -141 -113 -147 -126 -144 -118 b -117 -99 -137 -108 -127 -103 b -94 -91 -107 -96 -97 -93 l -78 -70 b -56 -46 -71 -62 -61 -51 b -30 -31 -50 -42 -38 -34 b 34 -7 -21 -26 7 -16 b 132 18 60 1 105 13 b 231 34 160 23 205 31 b 316 49 258 38 296 44 b 376 56 342 55 357 56 b 422 44 396 55 405 53 b 452 35 438 35 445 33 b 474 65 459 37 464 42 b 490 109 481 80 489 100 b 496 134 492 119 494 131 b 514 146 498 137 506 143 b 539 167 521 150 533 159 b 560 195 545 174 555 187 b 582 231 565 205 575 220 b 599 258 591 242 598 254 b 597 276 600 263 599 271 b 579 293 594 281 588 288 b 535 300 566 298 557 300 b 479 289 512 300 503 298 b 428 256 452 279 447 276 b 390 233 408 235 406 234 b 365 237 378 231 371 232 b 352 253 360 240 354 246 b 347 276 349 258 347 269 b 352 299 347 283 349 294 b 362 313 354 306 359 311 b 381 317 367 315 374 317 b 413 306 387 317 402 312 l 434 296 l 452 302 l 494 315 b 541 322 513 322 521 324 b 587 311 556 321 569 319 b 619 304 606 303 612 301 b 632 316 623 306 629 311 b 637 348 636 322 637 330 b 643 381 636 369 637 374 b 663 393 646 385 656 391 b 694 413 672 395 682 403 b 721 458 707 427 712 435 b 741 501 727 474 735 494 b 768 526 746 508 758 520 b 796 549 777 532 790 543 b 810 569 803 555 809 564 b 808 583 811 573 810 581 b 794 594 806 587 800 592 b 748 594 786 595 768 595 b 697 598 722 593 712 594 b 621 661 681 603 675 609 b 547 724 575 706 559 719 b 491 728 535 729 526 730 b 430 721 468 727 441 724 b 383 705 419 719 399 711 b 337 681 369 698 347 688 b 309 657 327 675 314 664 b 298 635 305 650 300 641 b 300 605 297 630 297 618 b 299 563 304 587 303 581 b 297 518 294 545 294 537 b 306 482 299 505 304 489 b 319 466 308 476 315 469 b 348 460 326 461 334 460 b 395 468 359 460 381 464 b 435 481 410 471 428 477 b 469 506 442 483 457 495 b 501 542 481 517 495 533 b 524 567 507 551 518 562 b 551 577 531 573 541 576 b 577 574 562 578 570 577 b 593 557 582 571 589 563 b 596 527 596 548 597 541 b 588 502 595 512 594 506 b 569 496 583 498 575 496 b 542 503 563 496 551 499 b 514 508 531 506 519 508 b 481 488 506 508 499 505 b 440 459 468 476 449 464 b 394 445 431 456 409 449 b 346 440 378 443 356 440 b 319 443 336 440 324 441 b 299 456 314 444 305 450 b 284 480 294 461 286 472 b 277 508 281 488 279 501 b 271 531 276 517 273 527 b 248 550 269 538 262 543 b 224 567 235 556 226 562 b 220 586 221 571 220 581 b 227 608 220 593 223 603 b 251 627 231 616 239 621 b 273 640 260 631 270 637 b 286 660 275 643 281 652 b 310 687 291 668 301 681 b 358 716 318 694 340 706 b 414 738 376 724 401 734 b 456 747 426 742 445 745 b 509 749 467 749 491 750 m 369 37 b 350 35 363 36 355 35 l 318 28 b 236 14 305 24 268 18 l 131 -4 b 47 -25 105 -9 67 -19 b -13 -46 27 -31 0 -41 b -49 -69 -26 -52 -42 -62 b -69 -96 -56 -77 -66 -89 b -74 -134 -74 -106 -75 -113 b -66 -196 -73 -148 -69 -176 b -53 -243 -62 -217 -56 -237 b -36 -258 -49 -248 -42 -255 b -2 -265 -28 -263 -19 -265 b 76 -254 11 -265 44 -260 b 148 -237 106 -248 139 -241 b 184 -222 158 -233 175 -227 b 219 -203 194 -218 210 -208 b 256 -174 229 -197 245 -184 b 302 -140 269 -164 288 -148 b 333 -115 316 -131 330 -119 b 349 -87 337 -110 344 -97 b 367 -60 355 -77 363 -65 b 394 -39 371 -56 383 -46 b 423 -17 406 -32 419 -21 b 431 3 428 -11 431 -3 b 420 19 431 9 429 14 b 394 32 414 24 402 31 b 369 37 385 35 374 37 "},"j":{"ha":882,"x_min":0,"x_max":0,"o":"m 509 749 b 456 747 491 750 467 749 b 414 738 445 745 426 742 b 358 716 401 734 376 724 b 310 687 340 706 318 694 b 286 660 301 681 291 668 b 273 640 281 652 275 643 b 251 627 270 637 260 631 b 227 608 239 621 231 616 b 220 586 223 603 220 593 b 224 567 220 581 221 571 b 248 550 226 562 235 556 b 271 531 262 543 269 538 b 277 508 273 527 276 517 b 284 480 279 501 281 488 b 299 456 286 472 294 461 b 319 443 305 450 314 444 b 346 440 324 441 336 440 b 394 445 356 440 378 443 b 440 459 409 449 431 456 b 481 488 449 464 468 476 b 514 508 499 505 506 508 b 542 503 519 508 531 506 b 569 496 551 499 563 496 b 588 502 575 496 583 498 b 596 527 594 506 595 512 b 593 557 597 541 596 548 b 577 574 589 563 582 571 b 551 577 570 577 562 578 b 524 567 541 576 531 573 b 501 542 518 562 507 551 b 469 506 495 533 481 517 b 435 481 457 495 442 483 b 395 468 428 477 410 471 b 348 460 381 464 359 460 b 319 466 334 460 326 461 b 306 482 315 469 308 476 b 297 518 304 489 299 505 b 299 563 294 537 294 545 b 300 605 303 581 304 587 b 298 635 297 618 297 630 b 309 657 300 641 305 650 b 337 681 314 664 327 675 b 383 705 347 688 369 698 b 430 721 399 711 419 719 b 491 728 441 724 468 727 b 547 724 526 730 535 729 b 621 661 559 719 575 706 b 697 598 675 609 681 603 b 748 594 712 594 722 593 b 794 594 768 595 786 595 b 808 583 800 592 806 587 b 810 569 810 581 811 573 b 796 549 809 564 803 555 b 768 526 790 543 777 532 b 741 501 758 520 746 508 b 721 458 735 494 727 474 b 694 413 712 435 707 427 b 663 393 682 403 672 395 b 643 381 656 391 646 385 b 637 348 637 374 636 369 b 632 316 637 330 636 322 b 619 304 629 311 623 306 b 587 311 612 301 606 303 b 541 322 569 319 556 321 b 494 315 521 324 513 322 l 452 302 l 434 296 l 413 306 b 381 317 402 312 387 317 b 362 313 374 317 367 315 b 352 299 359 311 354 306 b 347 276 349 294 347 283 b 352 253 347 269 349 258 b 365 237 354 246 360 240 b 390 233 371 232 378 231 b 428 256 406 234 408 235 b 479 289 447 276 452 279 b 535 300 503 298 512 300 b 579 293 557 300 566 298 b 597 276 588 288 594 281 b 599 258 599 271 600 263 b 582 231 598 254 591 242 b 560 195 575 220 565 205 b 539 167 555 187 545 174 b 514 146 533 159 521 150 b 496 134 506 143 498 137 b 490 109 494 131 492 119 b 474 65 489 100 481 80 b 452 35 464 42 459 37 b 422 44 445 33 438 35 b 376 56 405 53 396 55 b 316 49 357 56 342 55 b 231 34 296 44 258 38 b 132 18 205 31 160 23 b 34 -7 105 13 60 1 b -30 -31 7 -16 -21 -26 b -56 -46 -38 -34 -50 -42 b -78 -70 -61 -51 -71 -62 l -94 -91 b -117 -99 -97 -93 -107 -96 b -141 -113 -127 -103 -137 -108 b -147 -132 -144 -118 -147 -126 b -143 -151 -147 -139 -145 -147 b -118 -165 -140 -155 -129 -161 b -95 -175 -107 -169 -97 -173 b -85 -210 -94 -178 -89 -193 b -70 -255 -81 -227 -75 -247 b -48 -276 -66 -263 -56 -271 b -11 -286 -37 -282 -27 -285 b 71 -276 6 -287 25 -285 b 156 -256 105 -269 143 -261 b 204 -236 169 -253 190 -244 b 244 -212 218 -230 236 -218 l 279 -184 b 317 -155 288 -175 306 -163 b 345 -133 328 -148 341 -138 b 366 -101 350 -129 359 -114 b 386 -71 373 -88 382 -74 b 414 -52 391 -68 403 -58 b 442 -29 425 -44 438 -34 l 465 6 b 493 55 473 19 486 41 b 511 84 500 69 507 81 b 526 88 514 86 520 88 b 554 80 531 88 544 84 b 598 69 569 72 578 69 b 656 76 617 69 631 69 l 688 84 l 708 78 b 740 71 719 74 733 71 b 756 75 745 71 753 73 b 769 88 760 77 765 82 b 772 118 772 95 773 104 b 763 146 771 134 769 139 b 742 156 757 151 749 155 b 717 153 733 156 724 156 b 690 125 707 149 701 142 b 654 97 676 104 675 104 b 607 90 641 93 621 90 b 568 96 588 89 580 91 b 549 111 559 100 551 106 b 545 128 547 116 545 123 b 557 154 545 132 551 144 l 581 190 l 602 222 b 629 243 608 231 618 238 b 649 257 638 247 647 254 b 653 285 651 260 653 273 b 657 317 653 299 655 311 b 670 328 660 322 666 327 b 702 319 676 330 686 327 b 752 308 721 311 731 309 b 806 317 775 307 781 308 b 847 326 823 322 841 326 b 879 314 856 326 865 322 b 912 301 894 304 901 301 b 935 310 923 301 928 303 b 945 331 943 318 945 323 l 945 352 b 941 369 945 356 944 363 b 929 381 939 373 933 379 b 905 386 923 384 913 386 b 881 382 896 386 886 385 b 857 365 877 381 866 373 b 817 342 846 356 834 348 b 774 330 802 337 783 331 b 740 329 761 327 752 327 b 711 339 731 331 719 335 b 693 353 704 343 695 348 b 690 371 689 358 688 364 b 705 394 691 378 696 386 b 726 418 712 401 721 411 b 742 451 730 424 737 439 l 755 483 b 772 503 757 488 765 496 l 803 527 b 836 570 819 538 823 544 b 884 635 849 596 857 607 b 926 674 903 654 921 671 b 944 677 931 677 939 678 l 966 669 b 990 663 973 666 984 663 b 1006 666 995 663 1004 664 b 1017 682 1010 668 1015 675 b 1019 712 1019 690 1019 702 b 1008 736 1017 722 1014 731 b 983 744 1002 744 997 744 b 956 738 972 744 963 743 b 932 715 950 735 940 724 b 906 687 925 706 913 693 b 869 650 898 681 881 665 b 833 618 855 634 840 620 b 763 615 825 614 812 613 b 692 624 709 617 702 618 b 646 665 685 628 665 646 b 596 716 627 683 605 706 b 562 740 586 726 574 735 b 509 749 546 747 538 749 m 369 37 b 394 32 374 37 385 35 b 420 19 402 31 414 24 b 431 3 429 14 431 9 b 423 -17 431 -3 428 -11 b 394 -39 419 -21 406 -32 b 367 -60 383 -46 371 -56 b 349 -87 363 -65 355 -77 b 333 -115 344 -97 337 -110 b 302 -140 330 -119 316 -131 b 256 -174 288 -148 269 -164 b 219 -203 245 -184 229 -197 b 184 -222 210 -208 194 -218 b 148 -237 175 -227 158 -233 b 76 -254 139 -241 106 -248 b -2 -265 44 -260 11 -265 b -36 -258 -19 -265 -28 -263 b -53 -243 -42 -255 -49 -248 b -66 -196 -56 -237 -62 -217 b -74 -134 -69 -176 -73 -148 b -69 -96 -75 -113 -74 -106 b -49 -69 -66 -89 -56 -77 b -13 -46 -42 -62 -26 -52 b 47 -25 0 -41 27 -31 b 131 -4 67 -19 105 -9 l 236 14 b 318 28 268 18 305 24 l 350 35 b 369 37 355 35 363 36 "},"K":{"ha":1110,"x_min":0,"x_max":0,"o":"m 485 753 b 544 743 519 752 524 751 b 578 720 556 737 570 727 b 619 678 585 714 604 694 b 663 641 639 657 653 645 b 707 632 674 636 686 634 b 761 630 724 632 747 631 l 784 627 l 815 656 b 853 689 831 671 848 686 b 871 712 858 692 866 703 b 888 736 877 722 884 733 b 906 746 891 739 899 744 b 930 751 912 749 923 751 b 947 744 936 751 944 748 b 954 725 952 740 954 734 b 946 695 954 718 950 705 b 933 676 942 687 936 678 b 899 674 929 672 921 672 l 870 676 l 851 660 b 817 629 840 652 825 638 b 799 602 808 619 800 607 b 789 578 798 596 794 586 b 748 532 784 570 766 550 b 706 487 730 515 711 494 b 692 461 700 480 694 469 b 687 441 689 454 687 444 b 694 429 687 436 690 431 b 723 419 698 426 711 421 b 764 421 744 414 744 414 b 816 434 775 426 798 432 b 857 444 833 437 852 442 b 874 457 862 447 870 453 b 892 482 879 462 886 473 b 919 519 897 492 910 508 b 951 566 929 531 944 551 b 983 618 958 580 973 604 b 1017 671 994 631 1008 656 b 1044 710 1026 688 1038 705 b 1079 731 1051 716 1067 725 b 1120 744 1092 737 1110 743 b 1151 746 1130 746 1144 747 b 1180 736 1158 745 1170 741 b 1212 710 1188 732 1202 720 b 1240 684 1221 699 1234 688 b 1256 667 1246 681 1253 673 b 1256 646 1259 658 1259 655 b 1242 632 1253 640 1247 634 b 1217 627 1236 631 1225 628 b 1192 619 1207 626 1196 623 b 1171 592 1185 617 1179 607 b 1155 563 1166 579 1158 566 b 1135 559 1151 561 1142 559 b 1113 564 1129 559 1119 561 b 1099 578 1108 567 1102 573 b 1094 598 1096 582 1094 592 b 1098 620 1094 605 1095 614 b 1113 636 1101 626 1107 633 b 1153 641 1120 639 1132 641 b 1192 645 1172 641 1185 643 b 1205 656 1197 648 1203 653 b 1207 671 1206 659 1207 667 b 1201 690 1207 675 1205 684 b 1182 709 1197 695 1189 705 b 1155 723 1175 715 1163 721 b 1122 723 1143 726 1135 726 b 1087 712 1112 721 1096 717 b 1058 694 1077 707 1065 699 b 1033 656 1053 688 1042 671 b 1001 606 1025 641 1010 618 b 970 556 992 593 978 570 b 941 512 963 541 950 521 l 906 467 b 872 429 893 445 883 435 b 820 414 861 422 847 419 b 775 402 797 410 781 406 b 766 385 769 398 766 393 b 769 358 765 380 766 368 b 794 319 771 344 776 338 b 820 287 806 306 819 292 b 823 266 822 282 823 273 b 819 243 823 259 821 248 b 794 210 817 237 805 222 b 753 161 781 198 764 176 b 711 112 742 145 723 123 b 666 62 699 101 679 78 l 627 15 b 597 -30 618 5 605 -15 b 584 -91 584 -56 584 -57 b 573 -149 584 -123 583 -127 b 561 -184 568 -162 561 -178 b 565 -220 559 -191 561 -206 b 580 -254 569 -238 573 -247 b 601 -265 584 -258 594 -263 b 631 -263 608 -266 621 -265 b 689 -240 641 -261 667 -251 b 746 -205 719 -226 733 -217 b 777 -164 756 -195 769 -177 b 798 -125 785 -151 794 -133 b 801 -88 805 -109 805 -107 b 802 -58 797 -70 797 -67 b 824 -44 806 -51 811 -47 b 873 -37 833 -41 856 -38 b 913 -43 902 -35 905 -35 b 924 -63 918 -47 923 -56 b 926 -83 926 -69 927 -79 b 920 -97 925 -87 922 -94 b 909 -108 919 -101 914 -106 b 875 -112 905 -110 889 -111 b 837 -116 860 -112 844 -113 b 808 -152 828 -119 823 -124 b 779 -201 799 -169 785 -192 b 751 -229 771 -210 758 -223 b 697 -259 744 -235 719 -249 b 634 -283 672 -271 648 -281 b 599 -286 621 -286 606 -287 l 579 -280 b 560 -265 574 -277 566 -270 b 545 -231 554 -256 549 -247 b 537 -199 543 -218 539 -204 b 514 -182 534 -194 527 -189 b 493 -167 502 -177 494 -172 b 491 -147 492 -163 491 -155 b 500 -111 491 -140 495 -123 b 513 -81 505 -98 510 -85 b 540 -63 516 -78 528 -69 b 577 -22 562 -52 562 -51 b 611 29 586 -5 599 16 l 646 71 b 690 119 655 82 674 105 b 738 177 706 135 727 161 b 769 216 749 193 763 210 b 792 239 777 222 786 232 b 801 264 798 247 801 256 b 797 283 801 270 799 279 l 773 311 b 747 354 755 330 752 334 b 742 381 744 366 742 378 b 737 389 742 383 740 387 b 700 404 734 392 718 398 b 661 410 676 411 668 413 b 645 401 656 408 649 405 b 631 374 641 397 635 385 b 618 341 628 364 622 349 b 602 315 614 333 606 322 b 584 285 597 308 589 294 b 543 219 580 276 561 245 b 502 159 524 193 506 165 b 444 97 498 153 471 126 l 392 47 l 351 28 b 284 2 329 17 299 5 b 223 -6 270 -2 243 -6 b 174 -3 195 -8 186 -7 b 153 9 167 0 157 6 b 140 31 149 13 144 22 b 131 57 137 38 132 50 b 123 79 131 65 127 74 b 100 90 119 83 110 87 b 75 98 91 93 80 95 b 65 113 71 101 67 107 b 65 136 63 119 63 130 b 76 156 67 143 71 151 b 113 165 83 163 87 164 b 153 161 133 166 145 165 b 170 148 160 158 168 153 b 174 130 174 143 176 136 b 162 105 173 124 168 113 b 151 77 154 93 151 86 b 156 50 152 69 154 57 b 169 27 157 43 163 32 b 191 14 174 20 182 16 b 233 15 200 12 215 12 b 287 24 249 17 273 20 b 340 44 301 28 325 37 l 380 66 b 437 120 386 70 412 94 b 493 183 463 146 488 174 l 528 235 b 563 291 541 255 557 280 l 587 331 b 606 370 594 344 604 360 b 619 401 610 380 615 394 b 644 426 623 410 630 418 b 669 458 660 437 662 439 b 684 494 672 469 680 485 b 729 544 689 501 709 524 b 765 587 750 565 765 583 b 763 598 765 591 764 595 b 754 606 762 601 757 605 b 707 612 750 609 730 611 b 653 622 675 614 666 616 b 595 672 642 628 623 644 b 539 721 569 701 551 716 b 487 731 524 729 517 731 b 431 729 467 732 444 731 b 388 716 420 727 401 721 b 347 696 375 711 356 703 b 321 672 339 691 327 680 b 312 648 316 664 312 655 b 316 622 312 643 314 631 b 310 581 319 608 319 605 l 301 556 l 308 523 b 320 481 312 505 318 486 b 334 469 323 478 329 471 b 361 463 340 465 349 463 b 406 470 370 464 391 467 b 448 486 419 474 439 481 b 482 512 456 492 473 503 b 508 542 493 521 505 534 b 522 561 512 548 518 557 b 538 573 525 566 532 571 b 564 578 543 576 554 578 b 592 572 575 578 584 576 b 604 558 597 569 603 563 b 600 544 606 555 604 549 b 575 523 596 539 585 530 b 533 508 559 513 552 510 b 505 502 521 507 508 504 l 486 486 b 456 467 479 481 465 471 b 408 450 447 462 426 455 b 355 444 384 444 370 443 b 319 453 338 444 330 446 b 299 475 312 457 304 467 b 287 515 296 482 291 500 b 279 546 285 530 281 544 b 257 560 276 549 267 556 b 237 575 248 565 239 571 b 234 605 235 579 233 591 b 243 636 235 621 238 629 b 268 655 247 642 258 650 b 294 674 278 659 289 668 b 315 698 300 681 309 691 b 351 722 320 704 336 715 b 391 740 364 729 382 737 b 426 749 398 743 415 747 b 485 753 440 752 460 754 "},"k":{"ha":1110,"x_min":0,"x_max":0,"o":"m 485 753 b 426 749 460 754 440 752 b 391 740 415 747 398 743 b 351 722 382 737 364 729 b 315 698 336 715 320 704 b 294 674 309 691 300 681 b 268 655 289 668 278 659 b 243 636 258 650 247 642 b 234 605 238 629 235 621 b 237 575 233 591 235 579 b 257 560 239 571 248 565 b 279 546 267 556 276 549 b 287 515 281 544 285 530 b 299 475 291 500 296 482 b 319 453 304 467 312 457 b 355 444 330 446 338 444 b 408 450 370 443 384 444 b 456 467 426 455 447 462 b 486 486 465 471 479 481 l 505 502 b 533 508 508 504 521 507 b 575 523 552 510 559 513 b 600 544 585 530 596 539 b 604 558 604 549 606 555 b 592 572 603 563 597 569 b 564 578 584 576 575 578 b 538 573 554 578 543 576 b 522 561 532 571 525 566 b 508 542 518 557 512 548 b 482 512 505 534 493 521 b 448 486 473 503 456 492 b 406 470 439 481 419 474 b 361 463 391 467 370 464 b 334 469 349 463 340 465 b 320 481 329 471 323 478 b 308 523 318 486 312 505 l 301 556 l 310 581 b 316 622 319 605 319 608 b 312 648 314 631 312 643 b 321 672 312 655 316 664 b 347 696 327 680 339 691 b 388 716 356 703 375 711 b 431 729 401 721 420 727 b 487 731 444 731 467 732 b 539 721 517 731 524 729 b 595 672 551 716 569 701 b 653 622 623 644 642 628 b 707 612 666 616 675 614 b 754 606 730 611 750 609 b 763 598 757 605 762 601 b 765 587 764 595 765 591 b 729 544 765 583 750 565 b 684 494 709 524 689 501 b 669 458 680 485 672 469 b 644 426 662 439 660 437 b 619 401 630 418 623 410 b 606 370 615 394 610 380 b 587 331 604 360 594 344 l 563 291 b 528 235 557 280 541 255 l 493 183 b 437 120 488 174 463 146 b 380 66 412 94 386 70 l 340 44 b 287 24 325 37 301 28 b 233 15 273 20 249 17 b 191 14 215 12 200 12 b 169 27 182 16 174 20 b 156 50 163 32 157 43 b 151 77 154 57 152 69 b 162 105 151 86 154 93 b 174 130 168 113 173 124 b 170 148 176 136 174 143 b 153 161 168 153 160 158 b 113 165 145 165 133 166 b 76 156 87 164 83 163 b 65 136 71 151 67 143 b 65 113 63 130 63 119 b 75 98 67 107 71 101 b 100 90 80 95 91 93 b 123 79 110 87 119 83 b 131 57 127 74 131 65 b 140 31 132 50 137 38 b 153 9 144 22 149 13 b 174 -3 157 6 167 0 b 223 -6 186 -7 195 -8 b 284 2 243 -6 270 -2 b 351 28 299 5 329 17 l 392 47 l 444 97 b 502 159 471 126 498 153 b 543 219 506 165 524 193 b 584 285 561 245 580 276 b 602 315 589 294 597 308 b 618 341 606 322 614 333 b 631 374 622 349 628 364 b 645 401 635 385 641 397 b 661 410 649 405 656 408 b 700 404 668 413 676 411 b 737 389 718 398 734 392 b 742 381 740 387 742 383 b 747 354 742 378 744 366 b 773 311 752 334 755 330 l 797 283 b 801 264 799 279 801 270 b 792 239 801 256 798 247 b 769 216 786 232 777 222 b 738 177 763 210 749 193 b 690 119 727 161 706 135 b 646 71 674 105 655 82 l 611 29 b 577 -22 599 16 586 -5 b 540 -63 562 -51 562 -52 b 513 -81 528 -69 516 -78 b 500 -111 510 -85 505 -98 b 491 -147 495 -123 491 -140 b 493 -167 491 -155 492 -163 b 514 -182 494 -172 502 -177 b 537 -199 527 -189 534 -194 b 545 -231 539 -204 543 -218 b 560 -265 549 -247 554 -256 b 579 -280 566 -270 574 -277 l 599 -286 b 634 -283 606 -287 621 -286 b 697 -259 648 -281 672 -271 b 751 -229 719 -249 744 -235 b 779 -201 758 -223 771 -210 b 808 -152 785 -192 799 -169 b 837 -116 823 -124 828 -119 b 875 -112 844 -113 860 -112 b 909 -108 889 -111 905 -110 b 920 -97 914 -106 919 -101 b 926 -83 922 -94 925 -87 b 924 -63 927 -79 926 -69 b 913 -43 923 -56 918 -47 b 873 -37 905 -35 902 -35 b 824 -44 856 -38 833 -41 b 802 -58 811 -47 806 -51 b 801 -88 797 -67 797 -70 b 798 -125 805 -107 805 -109 b 777 -164 794 -133 785 -151 b 746 -205 769 -177 756 -195 b 689 -240 733 -217 719 -226 b 631 -263 667 -251 641 -261 b 601 -265 621 -265 608 -266 b 580 -254 594 -263 584 -258 b 565 -220 573 -247 569 -238 b 561 -184 561 -206 559 -191 b 573 -149 561 -178 568 -162 b 584 -91 583 -127 584 -123 b 597 -30 584 -57 584 -56 b 627 15 605 -15 618 5 l 666 62 b 711 112 679 78 699 101 b 753 161 723 123 742 145 b 794 210 764 176 781 198 b 819 243 805 222 817 237 b 823 266 821 248 823 259 b 820 287 823 273 822 282 b 794 319 819 292 806 306 b 769 358 776 338 771 344 b 766 385 766 368 765 380 b 775 402 766 393 769 398 b 820 414 781 406 797 410 b 872 429 847 419 861 422 b 906 467 883 435 893 445 l 941 512 b 970 556 950 521 963 541 b 1001 606 978 570 992 593 b 1033 656 1010 618 1025 641 b 1058 694 1042 671 1053 688 b 1087 712 1065 699 1077 707 b 1122 723 1096 717 1112 721 b 1155 723 1135 726 1143 726 b 1182 709 1163 721 1175 715 b 1201 690 1189 705 1197 695 b 1207 671 1205 684 1207 675 b 1205 656 1207 667 1206 659 b 1192 645 1203 653 1197 648 b 1153 641 1185 643 1172 641 b 1113 636 1132 641 1120 639 b 1098 620 1107 633 1101 626 b 1094 598 1095 614 1094 605 b 1099 578 1094 592 1096 582 b 1113 564 1102 573 1108 567 b 1135 559 1119 561 1129 559 b 1155 563 1142 559 1151 561 b 1171 592 1158 566 1166 579 b 1192 619 1179 607 1185 617 b 1217 627 1196 623 1207 626 b 1242 632 1225 628 1236 631 b 1256 646 1247 634 1253 640 b 1256 667 1259 655 1259 658 b 1240 684 1253 673 1246 681 b 1212 710 1234 688 1221 699 b 1180 736 1202 720 1188 732 b 1151 746 1170 741 1158 745 b 1120 744 1144 747 1130 746 b 1079 731 1110 743 1092 737 b 1044 710 1067 725 1051 716 b 1017 671 1038 705 1026 688 b 983 618 1008 656 994 631 b 951 566 973 604 958 580 b 919 519 944 551 929 531 b 892 482 910 508 897 492 b 874 457 886 473 879 462 b 857 444 870 453 862 447 b 816 434 852 442 833 437 b 764 421 798 432 775 426 b 723 419 744 414 744 414 b 694 429 711 421 698 426 b 687 441 690 431 687 436 b 692 461 687 444 689 454 b 706 487 694 469 700 480 b 748 532 711 494 730 515 b 789 578 766 550 784 570 b 799 602 794 586 798 596 b 817 629 800 607 808 619 b 851 660 825 638 840 652 l 870 676 l 899 674 b 933 676 921 672 929 672 b 946 695 936 678 942 687 b 954 725 950 705 954 718 b 947 744 954 734 952 740 b 930 751 944 748 936 751 b 906 746 923 751 912 749 b 888 736 899 744 891 739 b 871 712 884 733 877 722 b 853 689 866 703 858 692 b 815 656 848 686 831 671 l 784 627 l 761 630 b 707 632 747 631 724 632 b 663 641 686 634 674 636 b 619 678 653 645 639 657 b 578 720 604 694 585 714 b 544 743 570 727 556 737 b 485 753 524 751 519 752 "},"L":{"ha":1009,"x_min":0,"x_max":0,"o":"m 617 826 b 644 817 631 826 635 825 b 654 788 653 808 654 806 b 648 760 654 777 651 765 b 637 747 645 755 641 749 b 621 744 633 745 627 744 b 592 750 617 744 603 747 b 556 753 574 756 569 756 b 518 739 547 751 530 745 b 460 707 505 734 479 719 b 415 674 441 694 420 680 b 392 638 409 669 399 652 b 381 588 380 615 380 611 b 373 545 381 566 380 559 b 365 517 369 535 365 522 b 374 479 365 509 369 493 b 390 447 380 465 387 450 b 421 442 394 442 399 441 b 451 437 444 443 448 442 b 445 416 455 432 453 429 b 431 385 441 407 434 394 b 421 364 429 376 425 367 b 407 359 419 361 412 359 b 390 363 401 359 394 361 b 379 377 387 365 381 371 b 374 406 377 382 374 396 b 365 447 374 421 372 431 l 355 471 b 348 490 355 472 352 481 b 325 516 342 506 339 508 b 305 531 317 519 306 527 b 299 553 301 534 299 544 b 306 580 299 563 302 573 b 332 601 309 588 317 594 b 357 616 344 606 356 613 b 369 640 359 618 365 629 b 389 676 374 651 382 668 b 431 712 395 686 409 698 b 481 744 447 724 470 739 b 524 765 493 751 512 760 l 556 776 b 574 799 561 778 568 785 b 592 822 580 810 588 820 b 617 826 596 824 607 826 m 1035 744 b 1066 737 1045 744 1056 742 b 1088 718 1075 733 1082 726 b 1099 689 1093 710 1097 698 b 1110 666 1101 681 1106 670 b 1128 656 1114 662 1121 657 b 1145 644 1134 654 1142 648 b 1152 623 1149 639 1152 631 b 1147 602 1152 617 1150 607 b 1132 589 1144 597 1138 591 b 1107 581 1128 586 1117 582 b 1084 569 1098 578 1087 573 b 1069 550 1081 566 1074 557 b 1032 508 1066 544 1049 524 b 970 456 1016 492 988 468 b 913 421 953 443 927 427 l 871 401 b 840 383 863 397 848 389 b 811 366 832 378 819 369 b 775 358 800 360 791 358 b 730 369 757 358 749 360 b 698 377 714 376 704 379 b 674 352 694 376 684 367 b 654 316 665 340 656 323 b 631 284 651 306 644 297 l 588 242 b 555 198 576 229 560 209 b 525 159 549 188 535 169 b 491 117 515 148 499 129 b 462 85 482 104 469 91 l 428 66 b 399 46 416 60 404 52 b 391 31 394 42 391 34 b 406 -6 391 27 397 10 b 440 -61 414 -22 430 -47 b 471 -109 450 -75 465 -96 b 519 -178 478 -120 499 -152 b 562 -232 538 -204 557 -228 b 586 -248 566 -236 577 -244 b 629 -260 595 -252 615 -258 b 678 -265 644 -263 666 -265 b 738 -258 691 -265 718 -262 b 792 -246 758 -256 782 -249 b 835 -225 801 -243 820 -233 b 875 -197 849 -218 867 -205 b 897 -165 882 -190 893 -176 b 907 -104 906 -147 907 -144 b 921 -27 907 -62 907 -61 b 935 20 930 -6 935 13 b 926 70 935 28 931 50 b 910 116 920 91 914 111 b 894 131 906 120 900 127 b 857 137 887 136 881 137 b 797 124 832 137 825 135 b 748 94 771 115 764 109 b 720 72 738 83 726 74 b 697 69 716 71 706 69 b 671 80 684 69 681 71 b 660 111 660 90 660 92 b 669 142 660 129 661 133 b 689 151 675 149 680 151 b 724 140 695 151 710 146 l 749 129 l 769 135 l 812 151 b 858 158 829 156 843 158 b 894 153 873 158 886 156 b 917 139 902 150 912 144 b 932 119 922 134 929 125 b 947 71 936 112 943 91 l 957 31 b 976 13 958 28 967 19 b 998 -9 985 6 995 -4 b 1000 -37 1000 -16 1001 -26 b 988 -85 999 -47 994 -69 b 970 -122 982 -104 975 -118 b 952 -134 967 -126 958 -131 b 935 -144 945 -137 938 -142 b 916 -175 931 -147 923 -161 b 886 -215 906 -194 898 -205 b 844 -244 877 -223 858 -236 b 795 -267 830 -253 808 -262 b 731 -281 783 -270 754 -277 b 665 -285 699 -286 682 -287 b 619 -279 653 -284 631 -281 b 581 -269 606 -277 589 -272 b 552 -251 572 -264 559 -256 b 502 -190 545 -244 522 -218 b 450 -115 481 -163 457 -129 b 419 -68 443 -101 429 -81 b 389 -20 410 -56 396 -35 b 368 9 381 -5 373 6 b 334 2 358 14 357 14 b 291 -13 321 -5 302 -11 b 243 -16 280 -14 258 -16 b 184 -21 228 -16 201 -19 b 131 -25 168 -24 144 -25 b 98 -16 116 -24 106 -21 b 72 12 92 -12 81 1 b 51 35 65 23 55 33 b 31 38 46 36 38 38 b 9 43 25 38 15 40 b -6 53 3 44 -4 49 b -9 75 -7 56 -9 67 b 0 102 -9 89 -7 93 b 42 114 9 111 11 111 b 94 124 66 116 80 119 b 136 136 105 128 124 133 b 181 137 149 138 169 139 b 244 125 193 136 221 131 b 303 106 267 119 294 110 b 337 81 311 101 327 90 b 363 61 346 71 358 62 b 384 65 370 59 376 61 l 427 89 b 476 132 456 105 458 107 b 507 170 487 147 501 164 b 536 208 514 176 527 194 b 575 257 545 223 563 245 b 601 289 588 270 599 284 b 604 301 603 294 604 299 b 596 314 604 304 601 309 b 575 321 590 319 584 321 b 546 312 565 321 557 319 b 525 303 538 306 530 303 b 518 312 519 304 518 306 b 531 328 518 318 521 322 b 547 345 538 332 545 341 b 549 375 550 351 551 362 b 554 400 548 393 549 396 b 564 401 557 404 560 404 b 572 379 568 399 570 392 b 580 351 573 368 577 356 b 597 340 582 347 591 343 b 621 339 604 338 615 337 b 641 346 628 340 637 344 b 662 372 645 350 655 361 b 678 407 671 385 676 396 b 706 449 680 421 682 426 b 744 493 719 463 736 482 l 770 531 b 810 588 777 544 795 569 b 850 634 826 607 844 628 b 894 671 856 642 876 658 l 939 706 b 975 725 947 710 963 719 l 1007 740 b 1035 744 1014 742 1026 744 m 1042 723 b 1011 719 1033 724 1023 723 l 973 702 b 915 662 962 695 935 678 b 863 619 894 646 870 627 l 828 576 b 784 516 815 560 795 533 b 740 456 773 498 754 471 b 716 416 719 431 716 426 b 724 396 716 407 719 402 b 747 383 729 392 739 386 b 775 379 756 381 769 379 b 799 382 782 379 793 381 b 831 402 806 385 819 394 b 891 433 843 409 869 424 b 958 471 913 444 943 459 b 1016 520 973 482 1000 505 b 1055 565 1032 537 1050 557 b 1065 605 1063 578 1064 584 b 1074 647 1066 623 1068 633 b 1079 684 1083 664 1083 665 b 1065 713 1075 698 1070 706 b 1042 723 1058 719 1050 722 m 173 116 b 121 113 150 117 131 115 b 95 102 113 110 102 106 b 81 85 89 98 83 92 b 76 60 78 79 76 68 b 86 30 76 50 79 41 b 106 6 91 20 100 10 b 127 -5 111 1 121 -4 b 162 -3 133 -6 149 -6 b 244 5 175 -1 212 3 b 312 14 285 7 304 10 b 331 26 319 17 327 22 b 338 39 335 30 338 35 b 330 57 338 43 334 51 b 305 80 325 64 314 74 b 248 103 294 87 273 95 b 173 116 216 112 203 115 "},"l":{"ha":1009,"x_min":0,"x_max":0,"o":"m 617 826 b 592 822 607 826 596 824 b 574 799 588 820 580 810 b 556 776 568 785 561 778 l 524 765 b 481 744 512 760 493 751 b 431 712 470 739 447 724 b 389 676 409 698 395 686 b 369 640 382 668 374 651 b 357 616 365 629 359 618 b 332 601 356 613 344 606 b 306 580 317 594 309 588 b 299 553 302 573 299 563 b 305 531 299 544 301 534 b 325 516 306 527 317 519 b 348 490 339 508 342 506 b 355 471 352 481 355 472 l 365 447 b 374 406 372 431 374 421 b 379 377 374 396 377 382 b 390 363 381 371 387 365 b 407 359 394 361 401 359 b 421 364 412 359 419 361 b 431 385 425 367 429 376 b 445 416 434 394 441 407 b 451 437 453 429 455 432 b 421 442 448 442 444 443 b 390 447 399 441 394 442 b 374 479 387 450 380 465 b 365 517 369 493 365 509 b 373 545 365 522 369 535 b 381 588 380 559 381 566 b 392 638 380 611 380 615 b 415 674 399 652 409 669 b 460 707 420 680 441 694 b 518 739 479 719 505 734 b 556 753 530 745 547 751 b 592 750 569 756 574 756 b 621 744 603 747 617 744 b 637 747 627 744 633 745 b 648 760 641 749 645 755 b 654 788 651 765 654 777 b 644 817 654 806 653 808 b 617 826 635 825 631 826 m 1035 744 b 1007 740 1026 744 1014 742 l 975 725 b 939 706 963 719 947 710 l 894 671 b 850 634 876 658 856 642 b 810 588 844 628 826 607 b 770 531 795 569 777 544 l 744 493 b 706 449 736 482 719 463 b 678 407 682 426 680 421 b 662 372 676 396 671 385 b 641 346 655 361 645 350 b 621 339 637 344 628 340 b 597 340 615 337 604 338 b 580 351 591 343 582 347 b 572 379 577 356 573 368 b 564 401 570 392 568 399 b 554 400 560 404 557 404 b 549 375 549 396 548 393 b 547 345 551 362 550 351 b 531 328 545 341 538 332 b 518 312 521 322 518 318 b 525 303 518 306 519 304 b 546 312 530 303 538 306 b 575 321 557 319 565 321 b 596 314 584 321 590 319 b 604 301 601 309 604 304 b 601 289 604 299 603 294 b 575 257 599 284 588 270 b 536 208 563 245 545 223 b 507 170 527 194 514 176 b 476 132 501 164 487 147 b 427 89 458 107 456 105 l 384 65 b 363 61 376 61 370 59 b 337 81 358 62 346 71 b 303 106 327 90 311 101 b 244 125 294 110 267 119 b 181 137 221 131 193 136 b 136 136 169 139 149 138 b 94 124 124 133 105 128 b 42 114 80 119 66 116 b 0 102 11 111 9 111 b -9 75 -7 93 -9 89 b -6 53 -9 67 -7 56 b 9 43 -4 49 3 44 b 31 38 15 40 25 38 b 51 35 38 38 46 36 b 72 12 55 33 65 23 b 98 -16 81 1 92 -12 b 131 -25 106 -21 116 -24 b 184 -21 144 -25 168 -24 b 243 -16 201 -19 228 -16 b 291 -13 258 -16 280 -14 b 334 2 302 -11 321 -5 b 368 9 357 14 358 14 b 389 -20 373 6 381 -5 b 419 -68 396 -35 410 -56 b 450 -115 429 -81 443 -101 b 502 -190 457 -129 481 -163 b 552 -251 522 -218 545 -244 b 581 -269 559 -256 572 -264 b 619 -279 589 -272 606 -277 b 665 -285 631 -281 653 -284 b 731 -281 682 -287 699 -286 b 795 -267 754 -277 783 -270 b 844 -244 808 -262 830 -253 b 886 -215 858 -236 877 -223 b 916 -175 898 -205 906 -194 b 935 -144 923 -161 931 -147 b 952 -134 938 -142 945 -137 b 970 -122 958 -131 967 -126 b 988 -85 975 -118 982 -104 b 1000 -37 994 -69 999 -47 b 998 -9 1001 -26 1000 -16 b 976 13 995 -4 985 6 b 957 31 967 19 958 28 l 947 71 b 932 119 943 91 936 112 b 917 139 929 125 922 134 b 894 153 912 144 902 150 b 858 158 886 156 873 158 b 812 151 843 158 829 156 l 769 135 l 749 129 l 724 140 b 689 151 710 146 695 151 b 669 142 680 151 675 149 b 660 111 661 133 660 129 b 671 80 660 92 660 90 b 697 69 681 71 684 69 b 720 72 706 69 716 71 b 748 94 726 74 738 83 b 797 124 764 109 771 115 b 857 137 825 135 832 137 b 894 131 881 137 887 136 b 910 116 900 127 906 120 b 926 70 914 111 920 91 b 935 20 931 50 935 28 b 921 -27 935 13 930 -6 b 907 -104 907 -61 907 -62 b 897 -165 907 -144 906 -147 b 875 -197 893 -176 882 -190 b 835 -225 867 -205 849 -218 b 792 -246 820 -233 801 -243 b 738 -258 782 -249 758 -256 b 678 -265 718 -262 691 -265 b 629 -260 666 -265 644 -263 b 586 -248 615 -258 595 -252 b 562 -232 577 -244 566 -236 b 519 -178 557 -228 538 -204 b 471 -109 499 -152 478 -120 b 440 -61 465 -96 450 -75 b 406 -6 430 -47 414 -22 b 391 31 397 10 391 27 b 399 46 391 34 394 42 b 428 66 404 52 416 60 l 462 85 b 491 117 469 91 482 104 b 525 159 499 129 515 148 b 555 198 535 169 549 188 b 588 242 560 209 576 229 l 631 284 b 654 316 644 297 651 306 b 674 352 656 323 665 340 b 698 377 684 367 694 376 b 730 369 704 379 714 376 b 775 358 749 360 757 358 b 811 366 791 358 800 360 b 840 383 819 369 832 378 b 871 401 848 389 863 397 l 913 421 b 970 456 927 427 953 443 b 1032 508 988 468 1016 492 b 1069 550 1049 524 1066 544 b 1084 569 1074 557 1081 566 b 1107 581 1087 573 1098 578 b 1132 589 1117 582 1128 586 b 1147 602 1138 591 1144 597 b 1152 623 1150 607 1152 617 b 1145 644 1152 631 1149 639 b 1128 656 1142 648 1134 654 b 1110 666 1121 657 1114 662 b 1099 689 1106 670 1101 681 b 1088 718 1097 698 1093 710 b 1066 737 1082 726 1075 733 b 1035 744 1056 742 1045 744 m 1042 723 b 1065 713 1050 722 1058 719 b 1079 684 1070 706 1075 698 b 1074 647 1083 665 1083 664 b 1065 605 1068 633 1066 623 b 1055 565 1064 584 1063 578 b 1016 520 1050 557 1032 537 b 958 471 1000 505 973 482 b 891 433 943 459 913 444 b 831 402 869 424 843 409 b 799 382 819 394 806 385 b 775 379 793 381 782 379 b 747 383 769 379 756 381 b 724 396 739 386 729 392 b 716 416 719 402 716 407 b 740 456 716 426 719 431 b 784 516 754 471 773 498 b 828 576 795 533 815 560 l 863 619 b 915 662 870 627 894 646 b 973 702 935 678 962 695 l 1011 719 b 1042 723 1023 723 1033 724 m 173 116 b 248 103 203 115 216 112 b 305 80 273 95 294 87 b 330 57 314 74 325 64 b 338 39 334 51 338 43 b 331 26 338 35 335 30 b 312 14 327 22 319 17 b 244 5 304 10 285 7 b 162 -3 212 3 175 -1 b 127 -5 149 -6 133 -6 b 106 6 121 -4 111 1 b 86 30 100 10 91 20 b 76 60 79 41 76 50 b 81 85 76 68 78 79 b 95 102 83 92 89 98 b 121 113 102 106 113 110 b 173 116 131 115 150 117 "},"M":{"ha":1163,"x_min":0,"x_max":0,"o":"m 601 757 b 649 747 631 756 635 756 b 674 721 661 741 667 735 b 680 678 681 705 682 703 l 677 638 b 683 619 677 628 679 623 b 703 617 688 617 694 616 l 724 623 b 746 645 729 626 739 636 l 769 671 b 798 689 775 676 788 683 b 851 706 809 694 833 701 b 920 716 873 712 896 715 b 969 712 951 718 959 717 b 990 696 976 709 985 702 b 1000 672 994 691 998 680 b 991 628 1001 660 1000 651 b 983 589 982 605 981 596 b 998 578 986 581 988 579 b 1020 582 1005 578 1015 580 b 1054 609 1027 585 1041 597 b 1092 639 1066 621 1082 634 b 1131 652 1101 643 1119 649 b 1181 656 1144 655 1168 656 b 1219 653 1195 656 1212 656 b 1240 643 1225 651 1234 646 b 1259 619 1246 638 1255 627 b 1268 582 1265 606 1268 597 b 1261 550 1268 569 1265 559 b 1231 522 1255 539 1248 532 b 1200 498 1219 514 1205 504 b 1181 469 1195 493 1187 480 b 1151 428 1176 459 1163 441 b 1096 356 1140 415 1115 382 b 1069 283 1077 329 1074 294 b 1039 215 1061 272 1054 234 b 995 150 1024 194 1005 165 b 944 94 985 134 957 117 b 887 26 931 73 894 44 b 864 -34 880 7 869 -19 l 851 -82 b 846 -126 848 -94 846 -114 b 855 -172 846 -142 849 -156 b 877 -221 859 -186 869 -207 b 901 -255 883 -235 894 -250 b 930 -267 908 -262 917 -265 b 968 -267 940 -268 956 -268 b 1002 -260 978 -266 993 -262 b 1033 -243 1010 -257 1025 -249 b 1065 -211 1042 -236 1056 -222 b 1089 -174 1074 -200 1084 -182 b 1102 -132 1094 -165 1099 -146 l 1106 -81 b 1095 -45 1106 -56 1106 -56 l 1070 -24 b 1056 3 1058 -14 1056 -11 b 1060 24 1056 10 1058 20 b 1073 34 1062 27 1068 31 b 1100 39 1079 37 1091 39 b 1126 34 1109 39 1120 37 b 1141 22 1131 31 1138 27 b 1145 3 1144 19 1145 9 b 1138 -35 1145 -5 1143 -21 b 1130 -78 1132 -49 1130 -67 b 1124 -126 1130 -87 1127 -109 b 1113 -174 1122 -143 1117 -164 b 1090 -213 1109 -183 1099 -201 b 1055 -253 1081 -225 1065 -243 b 1015 -278 1042 -264 1027 -273 b 960 -286 1001 -283 987 -285 b 909 -284 938 -287 918 -286 b 882 -268 901 -281 890 -276 b 853 -223 874 -260 863 -243 b 831 -175 844 -205 834 -183 b 824 -138 829 -166 825 -150 b 828 -88 823 -126 824 -106 b 848 -15 831 -71 840 -38 b 879 61 856 8 870 43 b 888 106 888 79 884 102 b 915 170 891 111 898 143 b 968 251 931 198 956 234 b 1017 303 980 268 1007 289 b 1081 372 1026 318 1062 346 b 1133 440 1099 397 1122 428 b 1161 477 1144 451 1156 469 b 1180 507 1166 486 1174 500 b 1212 535 1185 516 1198 527 b 1240 557 1224 543 1237 553 b 1246 582 1244 563 1246 571 b 1240 607 1245 591 1244 603 b 1228 624 1238 613 1231 620 b 1205 634 1223 628 1213 632 b 1169 636 1196 637 1182 637 b 1132 631 1157 635 1141 632 b 1105 621 1124 629 1112 624 b 1067 592 1097 618 1081 604 b 1027 562 1052 579 1034 565 b 996 554 1019 559 1006 555 b 960 534 982 552 977 549 b 937 507 950 524 939 512 b 927 476 934 504 931 489 b 915 438 924 462 919 444 b 897 409 911 430 903 418 b 864 357 891 401 876 378 b 814 279 852 336 830 301 b 765 207 799 256 777 223 l 702 116 b 656 37 663 61 659 54 b 650 8 656 27 653 14 b 636 -6 648 3 642 -4 b 606 -11 631 -9 618 -11 b 577 -4 590 -11 584 -10 b 563 19 569 2 566 9 b 563 46 561 30 561 39 b 574 63 565 53 569 60 b 606 68 579 66 589 68 b 639 72 619 68 634 69 b 686 132 643 74 665 101 l 745 216 l 795 289 b 844 366 813 315 834 349 b 875 416 853 381 867 405 l 895 447 b 907 484 898 454 904 470 b 918 518 910 498 915 513 b 942 547 919 522 931 535 l 961 568 l 961 590 b 969 632 961 606 964 618 b 978 665 974 644 978 658 b 969 686 978 672 976 679 l 958 696 l 928 696 b 858 685 905 696 887 694 b 803 668 837 681 812 672 b 766 634 791 661 779 650 b 731 604 753 619 740 608 b 705 596 723 600 711 596 b 683 594 697 596 688 595 b 670 580 678 592 672 586 b 662 540 668 574 664 556 b 647 489 659 516 656 505 l 612 422 b 549 321 598 397 570 352 b 471 210 529 291 494 241 b 409 124 449 181 421 142 b 385 73 390 96 388 91 b 379 48 384 62 381 50 b 350 34 377 44 364 39 b 314 27 335 31 319 27 b 296 32 307 27 300 29 b 290 56 292 38 290 44 b 295 81 290 64 292 76 b 309 95 297 88 304 94 b 341 101 314 97 328 100 b 369 106 354 102 366 105 l 395 142 l 455 224 l 530 331 b 589 427 551 361 578 405 l 623 489 b 640 542 633 506 636 516 b 650 592 643 558 647 581 b 656 657 652 602 656 631 b 654 713 659 696 658 706 b 640 729 651 719 644 725 b 617 736 635 731 625 735 b 572 735 608 737 588 737 b 516 724 556 733 531 729 b 463 704 501 719 477 710 b 389 644 440 693 430 683 b 317 567 362 619 330 584 b 272 500 303 549 283 519 b 238 440 262 481 246 454 b 206 369 231 426 217 394 b 178 291 196 344 183 308 b 158 214 172 273 163 239 b 144 118 153 189 147 146 b 144 36 142 78 142 61 b 155 -18 146 19 152 -6 b 169 -56 158 -31 165 -48 b 190 -86 175 -66 183 -80 b 218 -107 196 -94 208 -104 b 257 -116 231 -114 240 -116 b 311 -106 273 -116 289 -113 b 374 -81 329 -101 356 -90 b 418 -66 395 -70 409 -66 b 433 -68 424 -66 431 -67 b 441 -79 435 -69 439 -74 b 441 -104 444 -84 444 -93 b 432 -128 439 -113 435 -124 b 419 -139 430 -131 424 -137 b 402 -140 414 -141 406 -141 b 374 -128 397 -139 384 -133 b 339 -121 356 -119 353 -119 l 296 -131 b 247 -138 276 -137 263 -139 b 207 -127 231 -136 220 -133 b 175 -102 198 -122 183 -111 b 149 -64 167 -94 156 -76 b 133 -23 144 -52 136 -33 b 123 31 131 -12 126 11 b 122 111 119 59 119 72 l 129 179 b 140 235 131 190 135 216 b 160 306 144 256 154 288 b 192 389 167 326 181 363 b 232 473 202 416 220 453 b 264 528 244 493 258 518 b 303 583 269 538 286 563 b 359 648 319 604 344 633 b 410 694 374 663 396 684 b 457 724 424 706 445 719 b 506 744 469 731 492 739 b 551 755 522 748 542 754 b 601 757 560 756 582 757 "},"m":{"ha":1163,"x_min":0,"x_max":0,"o":"m 601 757 b 551 755 582 757 560 756 b 506 744 542 754 522 748 b 457 724 492 739 469 731 b 410 694 445 719 424 706 b 359 648 396 684 374 663 b 303 583 344 633 319 604 b 264 528 286 563 269 538 b 232 473 258 518 244 493 b 192 389 220 453 202 416 b 160 306 181 363 167 326 b 140 235 154 288 144 256 b 129 179 135 216 131 190 l 122 111 b 123 31 119 72 119 59 b 133 -23 126 11 131 -12 b 149 -64 136 -33 144 -52 b 175 -102 156 -76 167 -94 b 207 -127 183 -111 198 -122 b 247 -138 220 -133 231 -136 b 296 -131 263 -139 276 -137 l 339 -121 b 374 -128 353 -119 356 -119 b 402 -140 384 -133 397 -139 b 419 -139 406 -141 414 -141 b 432 -128 424 -137 430 -131 b 441 -104 435 -124 439 -113 b 441 -79 444 -93 444 -84 b 433 -68 439 -74 435 -69 b 418 -66 431 -67 424 -66 b 374 -81 409 -66 395 -70 b 311 -106 356 -90 329 -101 b 257 -116 289 -113 273 -116 b 218 -107 240 -116 231 -114 b 190 -86 208 -104 196 -94 b 169 -56 183 -80 175 -66 b 155 -18 165 -48 158 -31 b 144 36 152 -6 146 19 b 144 118 142 61 142 78 b 158 214 147 146 153 189 b 178 291 163 239 172 273 b 206 369 183 308 196 344 b 238 440 217 394 231 426 b 272 500 246 454 262 481 b 317 567 283 519 303 549 b 389 644 330 584 362 619 b 463 704 430 683 440 693 b 516 724 477 710 501 719 b 572 735 531 729 556 733 b 617 736 588 737 608 737 b 640 729 625 735 635 731 b 654 713 644 725 651 719 b 656 657 658 706 659 696 b 650 592 656 631 652 602 b 640 542 647 581 643 558 b 623 489 636 516 633 506 l 589 427 b 530 331 578 405 551 361 l 455 224 l 395 142 l 369 106 b 341 101 366 105 354 102 b 309 95 328 100 314 97 b 295 81 304 94 297 88 b 290 56 292 76 290 64 b 296 32 290 44 292 38 b 314 27 300 29 307 27 b 350 34 319 27 335 31 b 379 48 364 39 377 44 b 385 73 381 50 384 62 b 409 124 388 91 390 96 b 471 210 421 142 449 181 b 549 321 494 241 529 291 b 612 422 570 352 598 397 l 647 489 b 662 540 656 505 659 516 b 670 580 664 556 668 574 b 683 594 672 586 678 592 b 705 596 688 595 697 596 b 731 604 711 596 723 600 b 766 634 740 608 753 619 b 803 668 779 650 791 661 b 858 685 812 672 837 681 b 928 696 887 694 905 696 l 958 696 l 969 686 b 978 665 976 679 978 672 b 969 632 978 658 974 644 b 961 590 964 618 961 606 l 961 568 l 942 547 b 918 518 931 535 919 522 b 907 484 915 513 910 498 b 895 447 904 470 898 454 l 875 416 b 844 366 867 405 853 381 b 795 289 834 349 813 315 l 745 216 l 686 132 b 639 72 665 101 643 74 b 606 68 634 69 619 68 b 574 63 589 68 579 66 b 563 46 569 60 565 53 b 563 19 561 39 561 30 b 577 -4 566 9 569 2 b 606 -11 584 -10 590 -11 b 636 -6 618 -11 631 -9 b 650 8 642 -4 648 3 b 656 37 653 14 656 27 b 702 116 659 54 663 61 l 765 207 b 814 279 777 223 799 256 b 864 357 830 301 852 336 b 897 409 876 378 891 401 b 915 438 903 418 911 430 b 927 476 919 444 924 462 b 937 507 931 489 934 504 b 960 534 939 512 950 524 b 996 554 977 549 982 552 b 1027 562 1006 555 1019 559 b 1067 592 1034 565 1052 579 b 1105 621 1081 604 1097 618 b 1132 631 1112 624 1124 629 b 1169 636 1141 632 1157 635 b 1205 634 1182 637 1196 637 b 1228 624 1213 632 1223 628 b 1240 607 1231 620 1238 613 b 1246 582 1244 603 1245 591 b 1240 557 1246 571 1244 563 b 1212 535 1237 553 1224 543 b 1180 507 1198 527 1185 516 b 1161 477 1174 500 1166 486 b 1133 440 1156 469 1144 451 b 1081 372 1122 428 1099 397 b 1017 303 1062 346 1026 318 b 968 251 1007 289 980 268 b 915 170 956 234 931 198 b 888 106 898 143 891 111 b 879 61 884 102 888 79 b 848 -15 870 43 856 8 b 828 -88 840 -38 831 -71 b 824 -138 824 -106 823 -126 b 831 -175 825 -150 829 -166 b 853 -223 834 -183 844 -205 b 882 -268 863 -243 874 -260 b 909 -284 890 -276 901 -281 b 960 -286 918 -286 938 -287 b 1015 -278 987 -285 1001 -283 b 1055 -253 1027 -273 1042 -264 b 1090 -213 1065 -243 1081 -225 b 1113 -174 1099 -201 1109 -183 b 1124 -126 1117 -164 1122 -143 b 1130 -78 1127 -109 1130 -87 b 1138 -35 1130 -67 1132 -49 b 1145 3 1143 -21 1145 -5 b 1141 22 1145 9 1144 19 b 1126 34 1138 27 1131 31 b 1100 39 1120 37 1109 39 b 1073 34 1091 39 1079 37 b 1060 24 1068 31 1062 27 b 1056 3 1058 20 1056 10 b 1070 -24 1056 -11 1058 -14 l 1095 -45 b 1106 -81 1106 -56 1106 -56 l 1102 -132 b 1089 -174 1099 -146 1094 -165 b 1065 -211 1084 -182 1074 -200 b 1033 -243 1056 -222 1042 -236 b 1002 -260 1025 -249 1010 -257 b 968 -267 993 -262 978 -266 b 930 -267 956 -268 940 -268 b 901 -255 917 -265 908 -262 b 877 -221 894 -250 883 -235 b 855 -172 869 -207 859 -186 b 846 -126 849 -156 846 -142 b 851 -82 846 -114 848 -94 l 864 -34 b 887 26 869 -19 880 7 b 944 94 894 44 931 73 b 995 150 957 117 985 134 b 1039 215 1005 165 1024 194 b 1069 283 1054 234 1061 272 b 1096 356 1074 294 1077 329 b 1151 428 1115 382 1140 415 b 1181 469 1163 441 1176 459 b 1200 498 1187 480 1195 493 b 1231 522 1205 504 1219 514 b 1261 550 1248 532 1255 539 b 1268 582 1265 559 1268 569 b 1259 619 1268 597 1265 606 b 1240 643 1255 627 1246 638 b 1219 653 1234 646 1225 651 b 1181 656 1212 656 1195 656 b 1131 652 1168 656 1144 655 b 1092 639 1119 649 1101 643 b 1054 609 1082 634 1066 621 b 1020 582 1041 597 1027 585 b 998 578 1015 580 1005 578 b 983 589 988 579 986 581 b 991 628 981 596 982 605 b 1000 672 1000 651 1001 660 b 990 696 998 680 994 691 b 969 712 985 702 976 709 b 920 716 959 717 951 718 b 851 706 896 715 873 712 b 798 689 833 701 809 694 b 769 671 788 683 775 676 l 746 645 b 724 623 739 636 729 626 l 703 617 b 683 619 694 616 688 617 b 677 638 679 623 677 628 l 680 678 b 674 721 682 703 681 705 b 649 747 667 735 661 741 b 601 757 635 756 631 756 "},"N":{"ha":952,"x_min":0,"x_max":0,"o":"m 611 756 b 656 747 635 756 643 755 b 679 728 664 743 674 734 b 687 702 682 722 686 710 b 685 663 689 693 687 675 b 684 631 682 646 682 637 b 696 621 687 627 692 622 b 719 623 701 620 711 621 b 766 656 729 625 742 633 b 830 694 797 682 802 685 b 894 713 846 700 875 708 b 944 718 923 720 929 720 b 972 706 953 716 966 710 b 992 681 978 702 987 691 b 1007 642 996 672 1003 654 b 1014 600 1011 629 1014 610 b 986 532 1014 584 1011 578 b 944 443 971 506 957 462 b 898 356 931 423 909 371 b 865 286 887 339 883 314 l 821 221 b 769 162 817 215 788 191 b 696 62 750 133 713 91 b 648 -16 681 32 654 1 b 632 -69 643 -31 636 -55 b 628 -115 630 -81 628 -103 b 632 -154 628 -128 630 -145 b 651 -200 634 -163 643 -183 b 675 -243 659 -217 669 -236 b 697 -261 680 -249 690 -257 b 734 -267 706 -265 718 -267 b 781 -258 751 -266 765 -264 b 821 -239 794 -254 811 -245 b 850 -218 831 -233 844 -223 b 869 -189 856 -211 865 -198 b 884 -147 874 -180 881 -161 b 894 -93 889 -132 893 -108 b 892 -56 895 -73 894 -62 b 871 -34 890 -50 881 -41 b 850 -13 863 -29 853 -19 b 844 3 846 -6 844 0 b 848 17 844 5 846 11 b 861 31 850 22 856 29 b 880 36 866 33 874 36 b 903 36 886 36 896 37 b 926 27 913 36 919 33 b 936 0 934 19 936 16 b 929 -33 936 -9 932 -24 b 917 -93 925 -44 920 -68 b 906 -157 914 -116 909 -145 b 887 -202 902 -170 894 -190 b 859 -238 881 -213 869 -230 b 818 -265 850 -246 831 -258 b 773 -282 804 -271 783 -280 b 733 -287 763 -285 745 -287 b 698 -283 721 -287 706 -285 b 669 -268 691 -281 678 -274 b 639 -226 659 -259 650 -246 l 615 -173 b 605 -130 611 -161 606 -142 b 608 -77 604 -116 605 -98 b 626 -11 612 -58 619 -29 b 667 75 632 7 650 46 b 719 170 683 105 704 147 b 760 262 734 194 751 249 b 793 320 769 275 774 294 b 858 383 810 348 846 366 b 910 449 870 400 900 435 b 959 531 919 462 942 499 b 991 604 989 582 991 588 b 981 647 991 613 987 632 b 962 684 976 665 969 678 b 934 697 953 694 948 696 b 879 688 921 698 907 696 b 823 670 856 681 832 674 b 778 638 814 667 795 653 b 741 607 761 623 744 609 b 711 601 737 606 723 603 b 683 590 694 598 687 595 b 671 546 681 586 675 567 b 656 492 668 526 661 501 b 614 416 653 481 633 447 b 537 298 594 383 560 331 b 473 212 514 266 485 227 l 422 142 b 391 76 394 100 393 96 b 381 49 388 58 386 53 b 350 36 377 45 363 40 b 316 30 337 32 321 30 b 298 36 310 30 302 32 b 292 55 294 40 292 46 b 296 78 292 62 294 72 b 308 94 299 83 305 91 b 339 102 312 97 324 100 b 369 108 352 104 366 106 b 400 148 373 110 387 128 l 453 221 b 520 312 469 241 498 282 b 597 430 542 343 576 395 b 639 508 618 465 637 500 l 652 558 b 662 649 656 578 660 619 b 661 713 665 693 664 706 b 644 729 658 718 651 725 b 608 736 635 734 629 736 b 559 731 594 736 573 734 b 510 719 545 729 524 723 b 463 697 497 714 476 705 b 394 644 447 689 424 670 b 326 574 369 621 339 590 b 270 494 313 559 288 522 b 219 403 253 465 230 423 b 188 330 209 381 195 348 b 165 254 181 310 170 277 b 147 176 158 231 150 196 b 142 83 144 151 142 119 b 149 4 142 37 143 24 b 169 -50 153 -10 162 -34 b 194 -89 178 -67 188 -83 b 218 -104 201 -94 211 -101 b 259 -109 226 -108 236 -109 b 316 -102 282 -109 297 -107 b 376 -78 330 -98 356 -87 b 423 -61 399 -67 416 -61 b 442 -67 431 -61 438 -63 b 448 -89 446 -70 448 -76 b 442 -118 448 -99 445 -111 b 428 -132 439 -123 432 -131 b 408 -135 422 -135 415 -136 b 380 -124 404 -134 390 -129 b 354 -115 369 -119 357 -115 b 318 -122 350 -115 334 -119 b 253 -130 292 -130 282 -131 b 201 -119 223 -129 217 -128 b 174 -100 191 -114 179 -106 b 153 -66 169 -95 159 -80 b 133 -20 146 -52 137 -31 b 122 19 129 -9 124 9 b 119 101 119 32 119 60 b 129 201 121 144 124 175 b 150 284 132 221 143 259 b 182 373 157 309 172 349 b 215 443 193 397 207 429 b 256 511 222 456 241 487 b 306 584 270 535 294 569 b 365 648 319 601 345 629 b 419 694 384 667 408 687 b 456 718 428 701 445 712 b 498 737 468 723 486 732 b 551 752 511 742 534 748 b 611 756 571 756 592 757 "},"n":{"ha":952,"x_min":0,"x_max":0,"o":"m 611 756 b 551 752 592 757 571 756 b 498 737 534 748 511 742 b 456 718 486 732 468 723 b 419 694 445 712 428 701 b 365 648 408 687 384 667 b 306 584 345 629 319 601 b 256 511 294 569 270 535 b 215 443 241 487 222 456 b 182 373 207 429 193 397 b 150 284 172 349 157 309 b 129 201 143 259 132 221 b 119 101 124 175 121 144 b 122 19 119 60 119 32 b 133 -20 124 9 129 -9 b 153 -66 137 -31 146 -52 b 174 -100 159 -80 169 -95 b 201 -119 179 -106 191 -114 b 253 -130 217 -128 223 -129 b 318 -122 282 -131 292 -130 b 354 -115 334 -119 350 -115 b 380 -124 357 -115 369 -119 b 408 -135 390 -129 404 -134 b 428 -132 415 -136 422 -135 b 442 -118 432 -131 439 -123 b 448 -89 445 -111 448 -99 b 442 -67 448 -76 446 -70 b 423 -61 438 -63 431 -61 b 376 -78 416 -61 399 -67 b 316 -102 356 -87 330 -98 b 259 -109 297 -107 282 -109 b 218 -104 236 -109 226 -108 b 194 -89 211 -101 201 -94 b 169 -50 188 -83 178 -67 b 149 4 162 -34 153 -10 b 142 83 143 24 142 37 b 147 176 142 119 144 151 b 165 254 150 196 158 231 b 188 330 170 277 181 310 b 219 403 195 348 209 381 b 270 494 230 423 253 465 b 326 574 288 522 313 559 b 394 644 339 590 369 621 b 463 697 424 670 447 689 b 510 719 476 705 497 714 b 559 731 524 723 545 729 b 608 736 573 734 594 736 b 644 729 629 736 635 734 b 661 713 651 725 658 718 b 662 649 664 706 665 693 b 652 558 660 619 656 578 l 639 508 b 597 430 637 500 618 465 b 520 312 576 395 542 343 b 453 221 498 282 469 241 l 400 148 b 369 108 387 128 373 110 b 339 102 366 106 352 104 b 308 94 324 100 312 97 b 296 78 305 91 299 83 b 292 55 294 72 292 62 b 298 36 292 46 294 40 b 316 30 302 32 310 30 b 350 36 321 30 337 32 b 381 49 363 40 377 45 b 391 76 386 53 388 58 b 422 142 393 96 394 100 l 473 212 b 537 298 485 227 514 266 b 614 416 560 331 594 383 b 656 492 633 447 653 481 b 671 546 661 501 668 526 b 683 590 675 567 681 586 b 711 601 687 595 694 598 b 741 607 723 603 737 606 b 778 638 744 609 761 623 b 823 670 795 653 814 667 b 879 688 832 674 856 681 b 934 697 907 696 921 698 b 962 684 948 696 953 694 b 981 647 969 678 976 665 b 991 604 987 632 991 613 b 959 531 991 588 989 582 b 910 449 942 499 919 462 b 858 383 900 435 870 400 b 793 320 846 366 810 348 b 760 262 774 294 769 275 b 719 170 751 249 734 194 b 667 75 704 147 683 105 b 626 -11 650 46 632 7 b 608 -77 619 -29 612 -58 b 605 -130 605 -98 604 -116 b 615 -173 606 -142 611 -161 l 639 -226 b 669 -268 650 -246 659 -259 b 698 -283 678 -274 691 -281 b 733 -287 706 -285 721 -287 b 773 -282 745 -287 763 -285 b 818 -265 783 -280 804 -271 b 859 -238 831 -258 850 -246 b 887 -202 869 -230 881 -213 b 906 -157 894 -190 902 -170 b 917 -93 909 -145 914 -116 b 929 -33 920 -68 925 -44 b 936 0 932 -24 936 -9 b 926 27 936 16 934 19 b 903 36 919 33 913 36 b 880 36 896 37 886 36 b 861 31 874 36 866 33 b 848 17 856 29 850 22 b 844 3 846 11 844 5 b 850 -13 844 0 846 -6 b 871 -34 853 -19 863 -29 b 892 -56 881 -41 890 -50 b 894 -93 894 -62 895 -73 b 884 -147 893 -108 889 -132 b 869 -189 881 -161 874 -180 b 850 -218 865 -198 856 -211 b 821 -239 844 -223 831 -233 b 781 -258 811 -245 794 -254 b 734 -267 765 -264 751 -266 b 697 -261 718 -267 706 -265 b 675 -243 690 -257 680 -249 b 651 -200 669 -236 659 -217 b 632 -154 643 -183 634 -163 b 628 -115 630 -145 628 -128 b 632 -69 628 -103 630 -81 b 648 -16 636 -55 643 -31 b 696 62 654 1 681 32 b 769 162 713 91 750 133 b 821 221 788 191 817 215 l 865 286 b 898 356 883 314 887 339 b 944 443 909 371 931 423 b 986 532 957 462 971 506 b 1014 600 1011 578 1014 584 b 1007 642 1014 610 1011 629 b 992 681 1003 654 996 672 b 972 706 987 691 978 702 b 944 718 966 710 953 716 b 894 713 929 720 923 720 b 830 694 875 708 846 700 b 766 656 802 685 797 682 b 719 623 742 633 729 625 b 696 621 711 621 701 620 b 684 631 692 622 687 627 b 685 663 682 637 682 646 b 687 702 687 675 689 693 b 679 728 686 710 682 722 b 656 747 674 734 664 743 b 611 756 643 755 635 756 "},"O":{"ha":856,"x_min":0,"x_max":0,"o":"m 720 744 b 782 738 742 743 770 741 b 837 719 795 735 819 727 b 893 704 867 704 869 703 b 926 701 906 705 921 704 b 941 689 931 699 938 694 b 945 660 944 683 945 671 b 934 631 945 643 944 640 b 904 619 924 620 921 619 b 873 628 887 619 881 621 b 860 654 866 633 863 640 b 853 680 858 664 855 675 b 832 697 851 684 843 692 b 799 712 823 703 808 709 b 758 720 790 715 771 719 b 705 724 744 722 720 724 b 643 720 689 724 661 722 b 581 711 624 719 595 714 l 526 696 b 456 669 511 692 481 680 b 376 619 425 654 405 641 b 326 581 356 604 333 586 b 281 531 319 577 299 554 b 242 476 264 507 245 483 b 227 437 239 469 231 452 b 219 381 220 417 219 405 b 214 332 219 364 216 343 b 204 279 211 323 206 299 b 194 226 201 259 196 235 b 181 194 191 216 184 202 b 172 167 176 185 172 173 b 183 119 172 160 177 139 b 206 61 189 99 199 72 b 229 30 212 48 221 35 b 259 16 234 25 249 19 b 314 11 271 13 294 11 b 376 15 333 11 361 13 l 426 22 b 469 40 440 25 456 32 b 508 61 481 46 498 56 b 549 78 518 66 536 73 b 579 92 561 81 575 88 b 589 107 583 95 588 103 b 588 121 590 112 590 119 b 557 142 586 124 572 133 b 518 169 543 150 524 163 b 498 194 510 176 502 187 b 483 234 494 201 488 219 b 469 287 479 249 473 273 b 450 328 465 307 462 314 b 431 354 442 336 432 348 b 426 386 428 359 426 374 b 432 439 426 398 429 421 b 444 484 436 456 441 477 b 458 506 446 493 453 502 b 481 521 463 511 473 518 b 497 532 488 525 495 530 b 508 553 499 534 504 544 b 525 583 511 563 519 576 b 554 609 531 592 544 603 b 600 635 564 617 584 628 b 652 655 615 643 638 651 b 698 660 666 657 686 660 b 733 655 713 660 725 658 b 754 642 741 652 750 645 b 765 624 757 637 763 630 b 775 580 767 619 771 599 b 786 534 778 559 783 540 b 805 515 789 529 797 520 b 825 495 813 510 821 501 b 831 469 828 490 831 479 b 825 430 831 459 828 441 b 813 392 823 418 818 401 b 780 344 808 382 794 361 b 748 289 759 319 754 309 b 732 249 744 275 737 257 b 701 213 728 242 714 225 b 679 184 686 199 679 189 b 684 169 679 180 681 173 b 703 156 687 166 695 159 b 740 149 714 150 722 149 b 777 156 757 149 766 150 b 812 177 784 159 800 169 b 848 205 824 184 840 197 b 869 237 861 215 865 221 b 880 267 871 246 876 260 b 894 285 883 273 890 281 b 916 292 900 289 908 292 b 938 284 925 292 931 289 b 948 254 946 278 947 274 b 943 222 949 233 948 229 b 923 210 939 217 930 212 b 895 205 917 208 904 206 b 860 186 883 204 877 200 b 817 155 849 177 830 163 b 779 133 805 147 787 137 b 740 127 768 129 756 127 b 692 138 720 127 713 129 b 663 150 678 144 665 150 b 642 138 661 150 652 144 b 619 119 631 131 620 123 b 608 99 616 116 612 107 b 592 75 606 91 598 80 b 552 56 585 69 569 62 b 493 29 534 51 510 40 b 447 6 477 19 456 9 b 401 -4 438 4 418 -1 b 319 -9 382 -6 352 -9 b 247 -4 275 -9 263 -8 b 211 17 235 1 222 7 b 184 54 201 26 192 38 b 159 121 178 66 167 96 b 131 182 147 165 146 167 l 115 197 l 115 239 b 124 312 116 274 117 286 l 140 365 b 156 394 144 378 150 389 b 181 411 161 399 173 406 b 208 451 196 419 197 420 b 226 493 215 469 223 487 l 244 518 l 275 556 b 311 595 285 569 301 587 l 361 636 b 439 682 384 653 408 668 b 517 715 463 694 498 709 b 582 732 535 721 565 730 b 648 743 600 736 630 741 b 720 744 666 744 698 744 m 705 640 b 674 639 696 641 683 640 b 638 629 665 637 649 632 b 594 609 627 625 607 616 b 552 581 580 602 561 589 b 528 545 541 569 533 558 b 523 511 521 530 521 523 b 526 478 524 503 526 487 b 517 413 526 469 521 439 b 498 345 511 383 504 358 b 488 314 493 334 488 320 b 498 264 488 307 493 285 b 515 210 504 243 511 218 b 532 185 519 202 526 191 b 569 159 538 180 555 168 b 605 144 584 151 600 144 b 627 154 609 144 619 148 b 648 181 638 162 643 169 b 681 224 653 195 659 204 b 718 269 700 242 711 255 b 727 330 726 286 727 290 b 732 394 727 356 729 381 b 740 432 735 406 739 423 b 754 482 741 441 747 463 b 761 534 765 515 766 518 l 753 580 b 744 619 750 595 745 613 b 729 633 741 624 734 631 b 705 640 723 636 712 639 "},"o":{"ha":856,"x_min":0,"x_max":0,"o":"m 720 744 b 648 743 698 744 666 744 b 582 732 630 741 600 736 b 517 715 565 730 535 721 b 439 682 498 709 463 694 b 361 636 408 668 384 653 l 311 595 b 275 556 301 587 285 569 l 244 518 l 226 493 b 208 451 223 487 215 469 b 181 411 197 420 196 419 b 156 394 173 406 161 399 b 140 365 150 389 144 378 l 124 312 b 115 239 117 286 116 274 l 115 197 l 131 182 b 159 121 146 167 147 165 b 184 54 167 96 178 66 b 211 17 192 38 201 26 b 247 -4 222 7 235 1 b 319 -9 263 -8 275 -9 b 401 -4 352 -9 382 -6 b 447 6 418 -1 438 4 b 493 29 456 9 477 19 b 552 56 510 40 534 51 b 592 75 569 62 585 69 b 608 99 598 80 606 91 b 619 119 612 107 616 116 b 642 138 620 123 631 131 b 663 150 652 144 661 150 b 692 138 665 150 678 144 b 740 127 713 129 720 127 b 779 133 756 127 768 129 b 817 155 787 137 805 147 b 860 186 830 163 849 177 b 895 205 877 200 883 204 b 923 210 904 206 917 208 b 943 222 930 212 939 217 b 948 254 948 229 949 233 b 938 284 947 274 946 278 b 916 292 931 289 925 292 b 894 285 908 292 900 289 b 880 267 890 281 883 273 b 869 237 876 260 871 246 b 848 205 865 221 861 215 b 812 177 840 197 824 184 b 777 156 800 169 784 159 b 740 149 766 150 757 149 b 703 156 722 149 714 150 b 684 169 695 159 687 166 b 679 184 681 173 679 180 b 701 213 679 189 686 199 b 732 249 714 225 728 242 b 748 289 737 257 744 275 b 780 344 754 309 759 319 b 813 392 794 361 808 382 b 825 430 818 401 823 418 b 831 469 828 441 831 459 b 825 495 831 479 828 490 b 805 515 821 501 813 510 b 786 534 797 520 789 529 b 775 580 783 540 778 559 b 765 624 771 599 767 619 b 754 642 763 630 757 637 b 733 655 750 645 741 652 b 698 660 725 658 713 660 b 652 655 686 660 666 657 b 600 635 638 651 615 643 b 554 609 584 628 564 617 b 525 583 544 603 531 592 b 508 553 519 576 511 563 b 497 532 504 544 499 534 b 481 521 495 530 488 525 b 458 506 473 518 463 511 b 444 484 453 502 446 493 b 432 439 441 477 436 456 b 426 386 429 421 426 398 b 431 354 426 374 428 359 b 450 328 432 348 442 336 b 469 287 462 314 465 307 b 483 234 473 273 479 249 b 498 194 488 219 494 201 b 518 169 502 187 510 176 b 557 142 524 163 543 150 b 588 121 572 133 586 124 b 589 107 590 119 590 112 b 579 92 588 103 583 95 b 549 78 575 88 561 81 b 508 61 536 73 518 66 b 469 40 498 56 481 46 b 426 22 456 32 440 25 l 376 15 b 314 11 361 13 333 11 b 259 16 294 11 271 13 b 229 30 249 19 234 25 b 206 61 221 35 212 48 b 183 119 199 72 189 99 b 172 167 177 139 172 160 b 181 194 172 173 176 185 b 194 226 184 202 191 216 b 204 279 196 235 201 259 b 214 332 206 299 211 323 b 219 381 216 343 219 364 b 227 437 219 405 220 417 b 242 476 231 452 239 469 b 281 531 245 483 264 507 b 326 581 299 554 319 577 b 376 619 333 586 356 604 b 456 669 405 641 425 654 b 526 696 481 680 511 692 l 581 711 b 643 720 595 714 624 719 b 705 724 661 722 689 724 b 758 720 720 724 744 722 b 799 712 771 719 790 715 b 832 697 808 709 823 703 b 853 680 843 692 851 684 b 860 654 855 675 858 664 b 873 628 863 640 866 633 b 904 619 881 621 887 619 b 934 631 921 619 924 620 b 945 660 944 640 945 643 b 941 689 945 671 944 683 b 926 701 938 694 931 699 b 893 704 921 704 906 705 b 837 719 869 703 867 704 b 782 738 819 727 795 735 b 720 744 770 741 742 743 m 705 640 b 729 633 712 639 723 636 b 744 619 734 631 741 624 b 753 580 745 613 750 595 l 761 534 b 754 482 766 518 765 515 b 740 432 747 463 741 441 b 732 394 739 423 735 406 b 727 330 729 381 727 356 b 718 269 727 290 726 286 b 681 224 711 255 700 242 b 648 181 659 204 653 195 b 627 154 643 169 638 162 b 605 144 619 148 609 144 b 569 159 600 144 584 151 b 532 185 555 168 538 180 b 515 210 526 191 519 202 b 498 264 511 218 504 243 b 488 314 493 285 488 307 b 498 345 488 320 493 334 b 517 413 504 358 511 383 b 526 478 521 439 526 469 b 523 511 526 487 524 503 b 528 545 521 523 521 530 b 552 581 533 558 541 569 b 594 609 561 589 580 602 b 638 629 607 616 627 625 b 674 639 649 632 665 637 b 705 640 683 640 696 641 "},"P":{"ha":973,"x_min":0,"x_max":0,"o":"m 750 778 b 769 772 753 778 762 776 b 831 760 778 770 805 764 b 899 744 856 756 887 748 b 938 725 912 739 930 731 b 967 701 946 719 959 709 b 990 668 974 694 984 679 l 1008 622 b 1035 582 1017 597 1019 594 b 1056 563 1044 575 1054 567 b 1059 540 1057 559 1059 549 b 1046 511 1059 525 1058 522 b 1024 494 1040 505 1030 496 b 1000 462 1017 490 1010 481 b 970 422 992 444 981 431 b 927 394 961 414 942 401 b 883 376 912 387 893 379 l 847 366 b 818 345 831 361 827 358 b 799 323 812 337 804 327 b 773 315 793 317 788 315 b 746 325 758 315 754 317 b 736 353 738 333 736 337 b 742 382 736 363 739 376 b 756 398 744 389 751 395 b 773 403 761 401 769 403 b 799 394 778 403 789 399 b 837 388 814 388 820 387 b 873 395 848 389 864 392 b 918 414 882 398 902 406 b 960 443 935 422 951 432 b 981 473 969 451 979 465 b 984 507 987 487 987 492 b 981 537 981 518 981 531 b 987 562 981 544 983 555 b 994 587 991 570 994 581 b 985 620 994 593 990 607 b 970 657 981 632 974 649 b 955 682 966 666 959 677 b 927 706 950 688 938 699 b 885 726 916 713 897 722 b 822 739 873 730 844 735 b 756 744 793 744 774 745 l 679 737 b 602 725 650 734 615 729 b 543 705 588 722 562 713 b 486 678 523 696 498 684 b 442 648 475 672 456 658 b 407 615 430 637 413 623 b 389 586 402 608 393 594 b 379 560 384 577 380 566 b 381 532 378 555 378 543 b 379 489 383 517 383 510 b 377 433 373 468 373 461 b 386 391 379 416 383 396 b 401 372 390 384 396 376 b 429 365 406 369 417 366 b 461 367 440 364 455 365 b 483 377 469 369 479 373 b 516 431 489 381 502 405 b 545 497 529 458 543 488 b 552 529 549 507 552 521 b 545 559 552 536 549 549 b 539 584 542 569 539 580 b 542 599 539 589 540 595 b 556 610 544 602 550 607 b 582 615 560 613 573 615 b 609 612 593 615 605 614 b 622 601 614 610 619 606 b 629 578 626 596 629 585 b 624 555 629 569 627 559 b 601 537 621 550 611 542 b 579 523 591 531 581 526 b 569 496 577 520 572 508 b 538 427 564 484 551 453 b 505 368 525 401 510 375 b 481 351 499 362 488 354 b 451 344 474 348 460 344 b 417 344 443 342 427 343 b 387 356 406 346 394 352 b 368 378 380 360 371 370 b 356 420 364 385 358 405 b 347 455 353 436 349 452 b 325 468 344 457 335 463 b 303 485 314 472 306 479 b 298 506 300 490 298 500 b 305 529 298 513 301 523 b 331 548 308 535 318 543 b 366 587 351 557 352 558 b 394 632 373 603 386 624 b 432 668 402 642 419 657 b 499 707 446 679 476 696 b 564 736 521 719 551 731 b 611 750 577 741 598 747 b 673 758 625 753 652 756 b 727 769 699 760 714 764 b 750 778 737 774 747 778 m 831 631 b 845 627 836 631 843 629 b 854 617 849 626 853 620 b 855 590 855 612 855 600 b 844 564 853 576 851 570 b 806 553 836 556 831 555 b 766 542 779 552 775 550 b 721 488 760 536 740 512 b 671 419 703 464 681 432 l 637 370 b 598 312 627 356 609 331 b 554 248 587 294 567 265 b 514 191 540 232 522 206 b 490 155 506 176 495 159 b 457 140 484 150 469 144 b 430 126 445 135 432 130 b 420 107 426 123 422 115 b 417 86 419 101 417 91 b 422 67 417 81 419 72 b 437 43 425 61 431 50 b 455 23 443 35 450 26 b 487 12 459 20 474 16 b 539 -7 501 8 524 0 l 567 -22 l 626 -22 b 701 -15 680 -22 686 -21 b 735 10 709 -11 725 0 b 758 36 745 19 756 31 b 761 68 762 44 763 52 b 765 100 759 84 760 91 b 779 116 769 106 774 114 b 806 119 784 119 795 119 b 837 106 824 118 827 117 b 848 73 847 94 848 93 b 842 44 848 57 846 51 b 816 31 837 38 830 34 l 789 27 b 759 3 785 26 772 16 b 723 -28 748 -9 731 -23 b 687 -41 715 -32 699 -39 b 627 -46 674 -44 650 -46 b 571 -43 606 -46 581 -44 b 529 -27 561 -41 543 -33 b 479 -7 515 -19 492 -11 b 443 6 465 -5 448 2 b 417 34 436 9 425 22 b 389 57 403 55 401 56 b 369 54 381 58 373 56 b 355 35 364 51 357 43 b 336 13 351 29 343 19 b 314 1 330 7 319 2 l 271 -2 b 219 -10 252 -3 232 -6 b 164 -19 206 -15 185 -19 b 119 -17 143 -20 127 -19 b 95 -3 112 -15 101 -8 b 77 19 89 2 81 12 b 62 38 74 26 67 34 b 39 46 58 42 47 45 b 14 52 30 47 19 50 b 2 63 9 54 4 58 b -3 85 -1 68 -3 78 b 3 108 -3 94 0 105 b 19 122 6 113 14 119 b 56 126 26 124 42 126 b 106 136 75 126 85 129 b 157 148 123 144 138 147 b 219 144 178 149 194 148 l 278 133 b 314 125 291 131 307 128 b 345 99 320 122 334 110 b 376 80 364 80 368 78 b 391 88 381 81 388 84 b 398 108 394 91 397 100 b 407 133 399 116 404 128 b 427 150 412 140 420 147 b 457 163 432 153 447 159 b 493 199 477 170 478 170 b 532 256 501 214 519 240 b 582 327 545 272 569 305 b 622 386 596 349 614 376 l 655 432 b 705 501 665 448 687 479 l 747 556 b 761 588 756 566 759 573 b 767 612 762 597 764 608 b 779 623 768 615 774 620 b 806 631 784 626 796 630 b 831 631 816 632 827 632 m 169 126 b 129 122 154 126 135 124 l 105 112 b 90 99 99 109 92 104 b 86 69 88 95 86 81 b 96 31 85 49 87 44 b 118 7 102 21 111 11 b 155 1 126 3 134 1 b 212 10 173 1 190 5 b 279 21 233 17 255 19 b 320 28 299 22 316 25 b 334 45 324 30 331 38 b 341 65 338 52 341 61 b 326 87 341 68 334 79 b 300 106 318 96 306 105 b 265 113 294 108 279 111 l 219 121 b 169 126 207 124 185 126 "},"p":{"ha":973,"x_min":0,"x_max":0,"o":"m 750 778 b 727 769 747 778 737 774 b 673 758 714 764 699 760 b 611 750 652 756 625 753 b 564 736 598 747 577 741 b 499 707 551 731 521 719 b 432 668 476 696 446 679 b 394 632 419 657 402 642 b 366 587 386 624 373 603 b 331 548 352 558 351 557 b 305 529 318 543 308 535 b 298 506 301 523 298 513 b 303 485 298 500 300 490 b 325 468 306 479 314 472 b 347 455 335 463 344 457 b 356 420 349 452 353 436 b 368 378 358 405 364 385 b 387 356 371 370 380 360 b 417 344 394 352 406 346 b 451 344 427 343 443 342 b 481 351 460 344 474 348 b 505 368 488 354 499 362 b 538 427 510 375 525 401 b 569 496 551 453 564 484 b 579 523 572 508 577 520 b 601 537 581 526 591 531 b 624 555 611 542 621 550 b 629 578 627 559 629 569 b 622 601 629 585 626 596 b 609 612 619 606 614 610 b 582 615 605 614 593 615 b 556 610 573 615 560 613 b 542 599 550 607 544 602 b 539 584 540 595 539 589 b 545 559 539 580 542 569 b 552 529 549 549 552 536 b 545 497 552 521 549 507 b 516 431 543 488 529 458 b 483 377 502 405 489 381 b 461 367 479 373 469 369 b 429 365 455 365 440 364 b 401 372 417 366 406 369 b 386 391 396 376 390 384 b 377 433 383 396 379 416 b 379 489 373 461 373 468 b 381 532 383 510 383 517 b 379 560 378 543 378 555 b 389 586 380 566 384 577 b 407 615 393 594 402 608 b 442 648 413 623 430 637 b 486 678 456 658 475 672 b 543 705 498 684 523 696 b 602 725 562 713 588 722 b 679 737 615 729 650 734 l 756 744 b 822 739 774 745 793 744 b 885 726 844 735 873 730 b 927 706 897 722 916 713 b 955 682 938 699 950 688 b 970 657 959 677 966 666 b 985 620 974 649 981 632 b 994 587 990 607 994 593 b 987 562 994 581 991 570 b 981 537 983 555 981 544 b 984 507 981 531 981 518 b 981 473 987 492 987 487 b 960 443 979 465 969 451 b 918 414 951 432 935 422 b 873 395 902 406 882 398 b 837 388 864 392 848 389 b 799 394 820 387 814 388 b 773 403 789 399 778 403 b 756 398 769 403 761 401 b 742 382 751 395 744 389 b 736 353 739 376 736 363 b 746 325 736 337 738 333 b 773 315 754 317 758 315 b 799 323 788 315 793 317 b 818 345 804 327 812 337 b 847 366 827 358 831 361 l 883 376 b 927 394 893 379 912 387 b 970 422 942 401 961 414 b 1000 462 981 431 992 444 b 1024 494 1010 481 1017 490 b 1046 511 1030 496 1040 505 b 1059 540 1058 522 1059 525 b 1056 563 1059 549 1057 559 b 1035 582 1054 567 1044 575 b 1008 622 1019 594 1017 597 l 990 668 b 967 701 984 679 974 694 b 938 725 959 709 946 719 b 899 744 930 731 912 739 b 831 760 887 748 856 756 b 769 772 805 764 778 770 b 750 778 762 776 753 778 m 831 631 b 806 631 827 632 816 632 b 779 623 796 630 784 626 b 767 612 774 620 768 615 b 761 588 764 608 762 597 b 747 556 759 573 756 566 l 705 501 b 655 432 687 479 665 448 l 622 386 b 582 327 614 376 596 349 b 532 256 569 305 545 272 b 493 199 519 240 501 214 b 457 163 478 170 477 170 b 427 150 447 159 432 153 b 407 133 420 147 412 140 b 398 108 404 128 399 116 b 391 88 397 100 394 91 b 376 80 388 84 381 81 b 345 99 368 78 364 80 b 314 125 334 110 320 122 b 278 133 307 128 291 131 l 219 144 b 157 148 194 148 178 149 b 106 136 138 147 123 144 b 56 126 85 129 75 126 b 19 122 42 126 26 124 b 3 108 14 119 6 113 b -3 85 0 105 -3 94 b 2 63 -3 78 -1 68 b 14 52 4 58 9 54 b 39 46 19 50 30 47 b 62 38 47 45 58 42 b 77 19 67 34 74 26 b 95 -3 81 12 89 2 b 119 -17 101 -8 112 -15 b 164 -19 127 -19 143 -20 b 219 -10 185 -19 206 -15 b 271 -2 232 -6 252 -3 l 314 1 b 336 13 319 2 330 7 b 355 35 343 19 351 29 b 369 54 357 43 364 51 b 389 57 373 56 381 58 b 417 34 401 56 403 55 b 443 6 425 22 436 9 b 479 -7 448 2 465 -5 b 529 -27 492 -11 515 -19 b 571 -43 543 -33 561 -41 b 627 -46 581 -44 606 -46 b 687 -41 650 -46 674 -44 b 723 -28 699 -39 715 -32 b 759 3 731 -23 748 -9 b 789 27 772 16 785 26 l 816 31 b 842 44 830 34 837 38 b 848 73 846 51 848 57 b 837 106 848 93 847 94 b 806 119 827 117 824 118 b 779 116 795 119 784 119 b 765 100 774 114 769 106 b 761 68 760 91 759 84 b 758 36 763 52 762 44 b 735 10 756 31 745 19 b 701 -15 725 0 709 -11 b 626 -22 686 -21 680 -22 l 567 -22 l 539 -7 b 487 12 524 0 501 8 b 455 23 474 16 459 20 b 437 43 450 26 443 35 b 422 67 431 50 425 61 b 417 86 419 72 417 81 b 420 107 417 91 419 101 b 430 126 422 115 426 123 b 457 140 432 130 445 135 b 490 155 469 144 484 150 b 514 191 495 159 506 176 b 554 248 522 206 540 232 b 598 312 567 265 587 294 b 637 370 609 331 627 356 l 671 419 b 721 488 681 432 703 464 b 766 542 740 512 760 536 b 806 553 775 550 779 552 b 844 564 831 555 836 556 b 855 590 851 570 853 576 b 854 617 855 600 855 612 b 845 627 853 620 849 626 b 831 631 843 629 836 631 m 169 126 b 219 121 185 126 207 124 l 265 113 b 300 106 279 111 294 108 b 326 87 306 105 318 96 b 341 65 334 79 341 68 b 334 45 341 61 338 52 b 320 28 331 38 324 30 b 279 21 316 25 299 22 b 212 10 255 19 233 17 b 155 1 190 5 173 1 b 118 7 134 1 126 3 b 96 31 111 11 102 21 b 86 69 87 44 85 49 b 90 99 86 81 88 95 b 105 112 92 104 99 109 l 129 122 b 169 126 135 124 154 126 "},"Q":{"ha":842,"x_min":0,"x_max":0,"o":"m 696 749 b 749 743 716 749 740 746 b 781 728 758 741 773 733 b 809 700 790 722 803 709 b 831 657 817 691 827 671 b 846 615 837 644 844 624 l 856 579 b 875 544 858 563 862 557 b 894 521 884 536 893 525 b 894 484 894 517 894 500 b 881 422 893 465 888 444 l 867 373 b 853 346 863 365 857 353 b 832 331 848 341 839 333 b 813 318 825 327 817 321 b 798 287 809 314 803 300 b 773 231 793 273 781 248 b 722 157 763 212 744 184 b 647 75 703 133 669 96 b 575 11 625 54 593 25 b 506 -37 556 -3 526 -24 l 456 -70 b 419 -85 446 -77 431 -82 l 379 -94 b 350 -106 368 -95 356 -100 b 340 -121 344 -110 340 -116 b 351 -144 340 -127 344 -137 b 366 -162 356 -152 363 -160 b 401 -181 369 -165 384 -172 b 454 -215 421 -190 437 -200 b 491 -243 467 -226 483 -238 l 536 -257 b 606 -266 562 -264 575 -266 b 673 -258 634 -266 651 -264 b 716 -245 689 -255 708 -249 b 752 -220 723 -243 739 -231 b 784 -182 764 -209 779 -193 b 808 -156 790 -172 801 -160 b 838 -145 817 -149 827 -146 b 862 -147 846 -144 857 -145 b 878 -160 868 -149 874 -155 b 884 -191 882 -169 884 -177 b 877 -219 884 -207 883 -212 b 856 -226 871 -224 865 -226 b 826 -220 849 -226 836 -223 b 799 -214 817 -217 805 -214 b 765 -236 792 -214 784 -219 b 726 -265 751 -248 733 -261 b 676 -279 718 -268 695 -274 b 596 -285 644 -286 636 -287 b 527 -277 565 -284 544 -282 b 482 -261 514 -273 494 -266 b 439 -231 471 -256 452 -243 b 390 -199 423 -217 408 -206 b 354 -180 376 -193 359 -184 b 331 -154 348 -176 337 -164 b 309 -133 322 -143 314 -134 b 290 -136 305 -132 296 -133 l 265 -149 b 194 -156 250 -157 250 -157 b 110 -158 151 -154 132 -155 b 66 -163 95 -161 75 -163 b 32 -156 56 -163 44 -160 b 0 -128 19 -149 12 -143 b -19 -106 -8 -117 -17 -106 b -44 -101 -20 -105 -32 -103 b -74 -94 -56 -100 -69 -97 b -86 -81 -79 -93 -84 -86 b -90 -63 -88 -75 -90 -67 b -85 -44 -90 -58 -87 -50 b -71 -31 -81 -39 -76 -32 b -32 -27 -67 -29 -49 -27 b 24 -20 -10 -27 6 -25 b 91 -13 44 -15 57 -13 b 158 -23 129 -13 133 -14 b 211 -36 173 -29 196 -34 b 252 -47 225 -38 244 -44 b 280 -73 262 -53 269 -59 b 301 -96 286 -84 296 -94 b 318 -98 306 -99 314 -99 b 338 -87 322 -97 331 -92 b 363 -75 345 -82 356 -77 b 393 -69 369 -73 382 -70 b 422 -63 403 -69 416 -66 b 464 -39 430 -61 448 -50 l 522 0 b 578 41 539 11 563 30 b 637 94 593 52 619 75 b 696 159 656 111 681 141 l 734 208 b 760 254 742 217 753 238 l 781 305 b 790 354 788 322 790 333 b 794 401 790 369 792 390 b 804 454 797 412 801 435 b 813 500 806 472 811 493 l 827 529 b 835 558 832 539 835 550 b 827 602 835 567 831 586 b 812 649 822 619 816 640 b 801 675 809 658 804 670 b 784 697 798 681 791 691 b 760 716 778 705 767 713 b 731 725 754 719 741 723 b 681 729 721 727 699 729 b 616 726 664 729 634 727 b 554 713 594 723 572 719 l 498 691 b 426 645 482 683 452 664 b 368 594 394 621 378 607 b 334 549 361 584 345 564 b 306 498 319 530 312 517 b 299 448 299 477 297 469 b 294 387 301 430 300 415 b 276 321 290 368 281 338 b 265 283 269 305 265 288 b 274 231 265 279 269 256 b 290 179 280 207 286 184 b 306 164 293 174 300 167 b 338 158 313 160 321 158 b 382 164 351 158 370 161 b 416 176 394 167 408 172 b 463 215 424 180 445 197 b 505 262 481 232 500 254 b 521 308 509 271 518 292 b 531 350 526 325 531 344 b 522 382 531 356 527 370 b 514 413 518 394 514 407 b 518 430 514 418 515 425 b 531 444 519 434 525 441 b 559 451 538 448 547 451 b 589 444 570 451 581 448 b 608 430 596 441 605 434 b 616 405 614 423 616 417 b 607 379 616 392 614 386 b 581 359 603 373 591 365 b 556 344 569 354 559 347 b 544 305 555 343 549 324 b 525 254 538 285 530 262 b 480 202 519 244 500 221 b 429 158 460 182 438 163 b 387 144 420 154 401 147 b 338 137 373 140 351 137 b 301 142 323 137 308 139 b 281 154 294 145 286 150 b 268 172 277 158 271 166 b 255 218 265 178 258 199 l 244 263 b 224 287 243 269 234 279 b 204 309 216 294 206 304 b 199 334 201 314 199 325 b 208 387 199 344 204 368 b 227 440 214 407 222 431 b 256 468 233 452 239 458 b 285 506 275 481 276 481 b 304 544 291 519 299 537 b 335 586 308 551 322 570 b 364 624 347 603 360 620 b 416 664 368 628 392 646 b 490 710 443 683 473 702 l 553 734 b 623 748 578 742 595 745 b 696 749 644 749 676 750 m 89 -33 b 39 -38 71 -33 48 -36 b 14 -49 29 -41 18 -45 b 6 -77 8 -54 7 -60 b 16 -112 5 -97 6 -99 b 38 -133 22 -120 31 -130 b 68 -141 46 -139 54 -141 b 119 -135 79 -141 102 -139 b 191 -134 146 -131 157 -131 b 243 -135 213 -136 236 -136 b 262 -127 248 -133 257 -130 b 273 -116 267 -124 272 -119 b 270 -99 274 -112 272 -105 b 255 -77 268 -94 260 -83 b 234 -62 249 -70 240 -64 b 201 -56 228 -60 213 -57 b 150 -43 188 -54 165 -48 b 89 -33 125 -34 118 -33 "},"q":{"ha":842,"x_min":0,"x_max":0,"o":"m 696 749 b 623 748 676 750 644 749 b 553 734 595 745 578 742 l 490 710 b 416 664 473 702 443 683 b 364 624 392 646 368 628 b 335 586 360 620 347 603 b 304 544 322 570 308 551 b 285 506 299 537 291 519 b 256 468 276 481 275 481 b 227 440 239 458 233 452 b 208 387 222 431 214 407 b 199 334 204 368 199 344 b 204 309 199 325 201 314 b 224 287 206 304 216 294 b 244 263 234 279 243 269 l 255 218 b 268 172 258 199 265 178 b 281 154 271 166 277 158 b 301 142 286 150 294 145 b 338 137 308 139 323 137 b 387 144 351 137 373 140 b 429 158 401 147 420 154 b 480 202 438 163 460 182 b 525 254 500 221 519 244 b 544 305 530 262 538 285 b 556 344 549 324 555 343 b 581 359 559 347 569 354 b 607 379 591 365 603 373 b 616 405 614 386 616 392 b 608 430 616 417 614 423 b 589 444 605 434 596 441 b 559 451 581 448 570 451 b 531 444 547 451 538 448 b 518 430 525 441 519 434 b 514 413 515 425 514 418 b 522 382 514 407 518 394 b 531 350 527 370 531 356 b 521 308 531 344 526 325 b 505 262 518 292 509 271 b 463 215 500 254 481 232 b 416 176 445 197 424 180 b 382 164 408 172 394 167 b 338 158 370 161 351 158 b 306 164 321 158 313 160 b 290 179 300 167 293 174 b 274 231 286 184 280 207 b 265 283 269 256 265 279 b 276 321 265 288 269 305 b 294 387 281 338 290 368 b 299 448 300 415 301 430 b 306 498 297 469 299 477 b 334 549 312 517 319 530 b 368 594 345 564 361 584 b 426 645 378 607 394 621 b 498 691 452 664 482 683 l 554 713 b 616 726 572 719 594 723 b 681 729 634 727 664 729 b 731 725 699 729 721 727 b 760 716 741 723 754 719 b 784 697 767 713 778 705 b 801 675 791 691 798 681 b 812 649 804 670 809 658 b 827 602 816 640 822 619 b 835 558 831 586 835 567 b 827 529 835 550 832 539 l 813 500 b 804 454 811 493 806 472 b 794 401 801 435 797 412 b 790 354 792 390 790 369 b 781 305 790 333 788 322 l 760 254 b 734 208 753 238 742 217 l 696 159 b 637 94 681 141 656 111 b 578 41 619 75 593 52 b 522 0 563 30 539 11 l 464 -39 b 422 -63 448 -50 430 -61 b 393 -69 416 -66 403 -69 b 363 -75 382 -70 369 -73 b 338 -87 356 -77 345 -82 b 318 -98 331 -92 322 -97 b 301 -96 314 -99 306 -99 b 280 -73 296 -94 286 -84 b 252 -47 269 -59 262 -53 b 211 -36 244 -44 225 -38 b 158 -23 196 -34 173 -29 b 91 -13 133 -14 129 -13 b 24 -20 57 -13 44 -15 b -32 -27 6 -25 -10 -27 b -71 -31 -49 -27 -67 -29 b -85 -44 -76 -32 -81 -39 b -90 -63 -87 -50 -90 -58 b -86 -81 -90 -67 -88 -75 b -74 -94 -84 -86 -79 -93 b -44 -101 -69 -97 -56 -100 b -19 -106 -32 -103 -20 -105 b 0 -128 -17 -106 -8 -117 b 32 -156 12 -143 19 -149 b 66 -163 44 -160 56 -163 b 110 -158 75 -163 95 -161 b 194 -156 132 -155 151 -154 b 265 -149 250 -157 250 -157 l 290 -136 b 309 -133 296 -133 305 -132 b 331 -154 314 -134 322 -143 b 354 -180 337 -164 348 -176 b 390 -199 359 -184 376 -193 b 439 -231 408 -206 423 -217 b 482 -261 452 -243 471 -256 b 527 -277 494 -266 514 -273 b 596 -285 544 -282 565 -284 b 676 -279 636 -287 644 -286 b 726 -265 695 -274 718 -268 b 765 -236 733 -261 751 -248 b 799 -214 784 -219 792 -214 b 826 -220 805 -214 817 -217 b 856 -226 836 -223 849 -226 b 877 -219 865 -226 871 -224 b 884 -191 883 -212 884 -207 b 878 -160 884 -177 882 -169 b 862 -147 874 -155 868 -149 b 838 -145 857 -145 846 -144 b 808 -156 827 -146 817 -149 b 784 -182 801 -160 790 -172 b 752 -220 779 -193 764 -209 b 716 -245 739 -231 723 -243 b 673 -258 708 -249 689 -255 b 606 -266 651 -264 634 -266 b 536 -257 575 -266 562 -264 l 491 -243 b 454 -215 483 -238 467 -226 b 401 -181 437 -200 421 -190 b 366 -162 384 -172 369 -165 b 351 -144 363 -160 356 -152 b 340 -121 344 -137 340 -127 b 350 -106 340 -116 344 -110 b 379 -94 356 -100 368 -95 l 419 -85 b 456 -70 431 -82 446 -77 l 506 -37 b 575 11 526 -24 556 -3 b 647 75 593 25 625 54 b 722 157 669 96 703 133 b 773 231 744 184 763 212 b 798 287 781 248 793 273 b 813 318 803 300 809 314 b 832 331 817 321 825 327 b 853 346 839 333 848 341 b 867 373 857 353 863 365 l 881 422 b 894 484 888 444 893 465 b 894 521 894 500 894 517 b 875 544 893 525 884 536 b 856 579 862 557 858 563 l 846 615 b 831 657 844 624 837 644 b 809 700 827 671 817 691 b 781 728 803 709 790 722 b 749 743 773 733 758 741 b 696 749 740 746 716 749 m 89 -33 b 150 -43 118 -33 125 -34 b 201 -56 165 -48 188 -54 b 234 -62 213 -57 228 -60 b 255 -77 240 -64 249 -70 b 270 -99 260 -83 268 -94 b 273 -116 272 -105 274 -112 b 262 -127 272 -119 267 -124 b 243 -135 257 -130 248 -133 b 191 -134 236 -136 213 -136 b 119 -135 157 -131 146 -131 b 68 -141 102 -139 79 -141 b 38 -133 54 -141 46 -139 b 16 -112 31 -130 22 -120 b 6 -77 6 -99 5 -97 b 14 -49 7 -60 8 -54 b 39 -38 18 -45 29 -41 b 89 -33 48 -36 71 -33 "}}}
